<?xml version="1.0" standalone="no"?>
<!DOCTYPE svg PUBLIC "-//W3C//DTD SVG 20010904//EN"
 "http://www.w3.org/TR/2001/REC-SVG-20010904/DTD/svg10.dtd">
<svg version="1.0" xmlns="http://www.w3.org/2000/svg"
 width="900.000000pt" height="600.000000pt" viewBox="0 0 900.000000 600.000000"
 preserveAspectRatio="xMidYMid meet">
<metadata>
Created by potrace 1.15, written by Peter Selinger 2001-2017
</metadata>
<g transform="translate(0.000000,600.000000) scale(0.100000,-0.100000)"
fill="#000000" stroke="none">
<path d="M3178 5933 c-43 -2 -78 -8 -78 -13 0 -6 10 -10 23 -10 44 0 132 -32
187 -69 l55 -36 -107 -5 c-96 -5 -113 -9 -179 -42 -73 -36 -158 -107 -114 -95
108 29 126 31 173 18 25 -6 48 -14 50 -16 3 -2 -51 -59 -120 -127 -68 -68
-144 -151 -169 -184 l-46 -62 -74 40 c-135 72 -252 109 -404 127 -101 12 -153
2 -235 -43 -205 -114 -260 -337 -170 -693 75 -298 222 -472 447 -528 187 -47
235 94 98 286 -95 134 -96 207 -3 305 49 52 52 54 106 54 52 0 54 -1 47 -22
-4 -13 -9 -113 -11 -223 -5 -243 -17 -303 -90 -447 -64 -128 -80 -203 -64
-304 12 -72 45 -159 91 -239 36 -63 150 -174 255 -247 94 -66 232 -143 241
-134 4 3 1 6 -4 6 -6 0 -34 18 -62 40 -28 22 -53 40 -57 40 -4 0 -13 8 -21 18
-8 9 -11 11 -8 4 17 -34 -169 103 -244 179 -119 120 -192 309 -176 452 6 45
21 87 62 164 77 147 93 219 93 417 0 233 36 433 101 564 86 171 186 300 365
470 95 89 135 121 172 133 l47 16 -56 8 c-32 4 -72 4 -90 -1 -19 -4 -46 -6
-61 -5 -16 1 -28 -2 -28 -8 0 -5 -12 -9 -28 -9 -15 1 -38 -2 -52 -6 -18 -5
-13 0 15 18 50 32 125 54 190 56 82 3 262 -7 274 -14 6 -4 11 -2 11 3 0 6 -3
11 -8 11 -4 0 -19 10 -32 23 -14 12 -56 37 -92 56 -56 28 -70 32 -83 21 -13
-11 -14 -10 -8 6 6 17 5 18 -13 4 -10 -8 -16 -10 -12 -6 4 5 0 15 -10 22 -15
12 -13 13 18 14 75 0 309 -21 390 -36 90 -16 296 -77 342 -100 22 -11 26 -19
23 -46 -5 -32 10 -62 26 -52 5 3 9 0 9 -5 0 -6 -4 -11 -9 -11 -15 0 -41 30
-41 47 0 23 -25 0 -40 -37 -7 -16 -16 -27 -21 -24 -5 3 -6 -3 -2 -12 6 -16 7
-15 20 2 7 10 13 13 13 7 0 -7 -4 -15 -10 -18 -5 -3 -10 -11 -10 -16 0 -6 5
-7 12 -3 7 5 8 3 3 -6 -6 -10 -12 -8 -26 9 -18 22 -18 22 -29 1 -6 -11 -9 -20
-6 -20 3 0 -1 -12 -9 -27 -11 -21 -12 -30 -2 -42 10 -12 9 -14 -5 -8 -15 5
-18 1 -17 -21 0 -24 1 -25 9 -7 10 23 13 5 4 -19 -6 -15 -8 -15 -21 1 -13 17
-14 16 -7 -6 4 -15 2 -21 -4 -17 -13 8 -22 -17 -15 -46 4 -19 3 -20 -7 -8 -9
12 -10 10 -5 -13 4 -19 2 -26 -5 -22 -5 3 -10 1 -10 -4 0 -6 12 -11 28 -12 26
-1 26 -1 -6 -10 -30 -9 -33 -13 -27 -36 3 -15 2 -29 -5 -33 -6 -4 -16 -27 -21
-51 -5 -24 -12 -52 -15 -61 -4 -13 -1 -16 9 -12 8 3 17 -2 20 -10 4 -10 1 -13
-9 -9 -7 3 -14 4 -15 2 0 -2 -3 -53 -5 -114 -3 -60 -10 -112 -15 -116 -13 -7
-7 -204 6 -233 6 -14 5 -17 -3 -12 -8 4 -12 0 -12 -12 0 -10 7 -19 15 -19 13
0 19 18 18 54 -1 7 3 11 7 8 6 -4 32 41 32 55 -1 3 9 15 20 27 18 20 20 26 9
49 -6 15 -14 24 -17 21 -3 -3 0 -15 6 -27 6 -12 9 -24 7 -27 -3 -2 -11 5 -17
17 -14 26 -5 54 15 46 8 -3 17 -1 20 4 6 9 -16 15 -38 11 -5 -1 -6 3 -2 9 4 6
19 5 42 -5 19 -8 38 -15 40 -15 3 0 0 -7 -7 -15 -9 -10 -9 -15 -1 -15 10 0 15
13 12 33 0 4 6 7 15 7 9 0 12 -5 8 -12 -5 -9 -3 -9 9 1 9 7 15 17 12 21 -3 5
0 12 6 16 7 4 9 3 6 -3 -4 -6 0 -14 9 -17 9 -3 12 -2 9 5 -4 6 3 7 19 3 14 -3
26 -2 26 3 0 8 53 32 68 31 4 -1 6 -9 4 -19 -2 -12 8 -21 35 -30 21 -7 41 -12
46 -11 4 1 7 -3 7 -9 0 -5 5 -7 10 -4 6 4 7 11 4 17 -4 5 5 2 19 -7 14 -9 30
-16 34 -16 4 1 8 -5 8 -11 1 -7 7 -12 14 -10 7 1 9 -2 6 -9 -5 -7 -15 -3 -30
11 -13 12 -30 20 -37 17 -10 -4 -10 -6 0 -6 14 -1 58 -43 55 -53 -2 -4 3 -5
10 -2 7 2 22 -4 32 -16 10 -11 13 -20 7 -20 -7 0 -12 5 -12 10 0 6 -6 10 -12
10 -7 -1 -3 -9 10 -20 13 -10 31 -17 40 -14 14 5 14 4 3 -4 -8 -6 -21 -8 -30
-5 -12 3 -12 2 2 -7 9 -6 14 -16 11 -22 -4 -7 -2 -8 4 -4 7 4 13 2 13 -3 1 -6
2 -16 3 -23 1 -12 26 -25 26 -13 0 4 -9 20 -21 36 -15 22 -17 27 -5 23 9 -3
16 -10 16 -16 0 -5 4 -7 8 -4 4 2 9 -9 10 -25 1 -16 -2 -29 -7 -29 -5 0 -2
-18 6 -40 15 -37 33 -54 33 -30 0 6 -4 10 -10 10 -5 0 -10 5 -10 11 0 5 4 8 9
4 5 -3 11 0 14 7 2 7 3 5 2 -4 -2 -10 1 -21 6 -24 5 -3 9 -10 9 -15 0 -6 -4
-8 -9 -5 -5 3 -11 -1 -15 -9 -3 -9 0 -15 10 -15 12 0 13 -4 3 -21 -8 -17 -8
-20 1 -14 9 5 10 2 6 -12 -8 -24 2 -55 15 -47 5 3 9 -2 9 -11 0 -9 -4 -13 -10
-10 -11 7 -14 -8 -3 -18 13 -14 10 -192 -5 -242 -8 -27 -15 -54 -16 -60 -1 -5
-5 -15 -9 -22 -4 -6 -3 -14 3 -18 6 -4 7 -12 4 -18 -4 -7 2 -2 14 9 16 17 20
31 17 65 -2 24 -2 39 1 32 3 -7 18 -9 40 -6 33 5 49 -9 22 -20 -10 -4 -10 -6
0 -6 7 -1 23 4 34 10 32 17 79 29 73 18 -4 -5 -12 -9 -19 -9 -7 0 -30 -8 -50
-18 -21 -11 -49 -18 -62 -16 -19 2 -24 -3 -24 -19 0 -18 2 -19 10 -7 5 8 17
16 27 17 70 6 110 18 131 40 7 7 19 13 25 12 9 0 8 -2 0 -6 -25 -9 -13 -24 20
-23 64 0 86 -5 111 -29 27 -25 80 -38 73 -18 -3 7 -10 11 -16 9 -15 -3 -14 35
1 44 7 5 9 2 5 -9 -3 -9 0 -18 9 -21 19 -7 18 -40 -3 -57 -15 -12 -16 -12 -10
3 4 12 2 15 -8 12 -12 -5 -12 -10 1 -36 12 -23 14 -50 10 -121 -3 -51 -6 -109
-6 -131 0 -44 17 -73 34 -56 5 5 21 10 34 10 l23 0 -28 -24 c-25 -21 -60 -26
-48 -6 3 5 1 11 -5 15 -5 3 -10 1 -10 -4 0 -6 -5 -11 -10 -11 -6 0 -8 12 -5
28 5 26 4 25 -10 -5 -8 -17 -19 -34 -25 -38 -12 -7 -4 -25 11 -25 6 0 7 5 3
12 -5 7 -3 8 6 3 10 -6 12 -3 7 11 -6 17 -6 17 5 3 7 -9 20 -14 28 -11 8 3 4
-6 -10 -21 -24 -26 -47 -37 -35 -17 3 6 2 10 -4 10 -5 0 -11 -3 -14 -7 -2 -5
-2 -2 -1 5 4 16 -11 16 -25 -1 -8 -10 -7 -17 2 -26 9 -9 9 -14 -3 -21 -8 -5
-18 -6 -23 -3 -5 3 -12 2 -16 -3 -3 -5 -25 -22 -48 -37 -68 -47 -102 -89 -95
-122 4 -23 2 -27 -11 -22 -9 3 -18 2 -21 -4 -2 -5 -3 -4 -1 3 1 7 8 12 14 10
6 -1 11 5 11 15 0 14 -2 14 -20 -2 -24 -22 -26 -45 -3 -45 9 0 13 -3 9 -7 -11
-11 -30 -10 -38 2 -5 6 -8 2 -8 -8 0 -11 -5 -16 -12 -12 -7 4 -4 -1 6 -9 11
-9 15 -16 9 -16 -6 0 -15 -13 -21 -28 -5 -16 -17 -36 -27 -45 -11 -11 -12 -17
-4 -17 8 0 5 -7 -7 -16 -16 -13 -16 -15 -2 -10 10 3 20 0 24 -6 4 -7 3 -8 -4
-4 -7 4 -12 2 -12 -4 0 -6 -4 -9 -9 -6 -5 3 -12 -1 -15 -10 -3 -8 -10 -13 -15
-9 -5 3 -12 1 -16 -5 -4 -6 -10 -8 -14 -6 -4 3 -16 -12 -26 -32 -37 -73 -104
-168 -149 -212 -25 -24 -46 -40 -46 -35 0 6 -4 5 -8 0 -9 -14 -90 -39 -122
-39 -46 1 -125 13 -155 24 -67 24 -125 56 -130 73 -11 32 -68 65 -125 72 -67
8 -104 29 -97 55 6 25 -13 41 -55 46 -60 7 -87 12 -97 19 -20 12 -11 -11 40
-111 28 -54 67 -116 86 -136 39 -40 135 -87 194 -95 21 -3 36 -9 34 -13 -3 -5
59 -7 138 -5 145 2 218 15 360 64 l57 20 2 -22 c0 -12 1 -31 0 -42 0 -11 2
-14 4 -7 3 6 9 10 14 7 5 -3 11 4 15 15 3 11 11 20 16 20 6 0 1 -13 -11 -29
-24 -35 -21 -67 10 -109 12 -17 19 -35 15 -41 -17 -29 -207 -106 -343 -140
-42 -11 -115 -21 -162 -23 -47 -2 -88 -7 -91 -11 -3 -4 -56 -9 -117 -10 -67
-1 -112 -6 -111 -12 0 -5 9 -26 20 -45 18 -32 19 -26 3 15 -5 12 4 15 47 16
121 1 423 51 542 90 91 30 216 89 337 159 54 32 208 137 245 168 6 5 20 5 30
1 19 -7 18 -8 -2 -8 -13 -1 -23 -6 -23 -13 0 -6 -3 -8 -6 -5 -7 7 -63 -61 -64
-77 0 -4 6 -6 13 -3 9 3 13 -8 13 -39 0 -24 -3 -39 -7 -32 -4 6 -11 8 -16 5
-5 -3 -8 10 -8 29 2 35 -9 45 -19 19 -3 -8 -1 -15 4 -15 6 0 10 -5 10 -11 0
-6 -9 -8 -22 -3 -13 3 -20 3 -17 0 4 -4 -15 -29 -42 -55 -27 -27 -45 -51 -41
-55 4 -4 2 -6 -4 -4 -6 2 -31 -13 -57 -33 -44 -34 -45 -37 -31 -57 13 -19 13
-21 -1 -16 -8 3 -15 10 -15 15 0 5 -7 9 -16 9 -14 0 -14 -3 -4 -15 7 -9 9 -19
5 -23 -4 -4 -10 -1 -12 6 -6 15 -30 15 -73 0 -31 -10 -32 -12 -15 -25 11 -7
26 -13 34 -13 10 1 7 6 -9 15 -18 10 -20 14 -8 15 9 0 20 -4 23 -10 3 -5 11
-10 17 -10 6 0 5 7 -3 17 -12 14 -12 16 1 11 8 -2 16 -14 18 -25 2 -17 -2 -19
-30 -17 -18 1 -44 5 -58 9 -20 5 -22 4 -10 -5 12 -9 11 -10 -8 -5 -13 4 -30 1
-39 -6 -8 -7 -27 -15 -41 -17 -29 -4 -66 -21 -59 -28 2 -2 20 3 40 11 21 8 37
11 37 6 0 -14 -58 -29 -100 -26 -43 3 -60 -6 -34 -17 16 -7 15 -8 -6 -4 -14 2
-34 7 -44 11 -11 5 -17 5 -14 -1 4 -5 -14 -10 -39 -11 -25 -1 -49 -6 -53 -12
-3 -6 -15 -11 -26 -10 -10 1 -35 1 -54 0 -27 -1 -31 -4 -20 -11 12 -8 11 -10
-7 -10 -12 0 -25 5 -28 10 -3 6 -36 10 -73 9 -37 0 -61 -3 -54 -6 6 -2 12 -13
12 -23 0 -14 6 -18 21 -15 17 4 19 2 8 -11 -6 -8 -14 -12 -17 -9 -3 3 -14 -2
-24 -12 -11 -9 -18 -11 -18 -5 0 7 4 12 8 12 10 0 9 36 -1 46 -4 4 -8 3 -8 -2
-7 -45 -4 -63 13 -86 11 -16 16 -28 12 -28 -3 0 -1 -6 5 -13 6 -8 8 -16 5 -20
-3 -3 3 -26 15 -51 11 -25 17 -46 13 -46 -4 0 1 -5 11 -11 9 -5 17 -15 17 -22
0 -8 -4 -6 -11 3 -9 12 -9 11 -4 -5 4 -11 9 -33 11 -50 2 -16 9 -44 14 -61 11
-31 8 -123 -4 -143 -4 -6 -4 -11 1 -11 15 1 43 27 43 41 0 12 2 11 9 -1 7 -10
4 -18 -10 -28 -22 -15 -17 -32 9 -32 15 0 15 2 2 10 -11 8 -7 9 15 5 17 -3 24
-2 18 1 -7 3 -13 10 -13 16 0 6 6 6 15 -2 22 -18 19 -27 -12 -34 -16 -3 -39
-8 -53 -12 -19 -4 -21 -3 -10 5 8 5 11 13 7 17 -3 4 -27 -14 -52 -39 -27 -28
-61 -51 -85 -58 -39 -12 -54 -29 -25 -29 8 0 15 -5 15 -11 0 -6 -7 -8 -16 -5
-9 3 -23 6 -32 6 -15 0 -15 2 -2 10 12 8 12 10 -5 10 -11 0 -27 -5 -35 -10
-12 -8 -12 -10 5 -10 17 0 17 -2 5 -10 -21 -13 -41 -12 -37 2 1 8 -18 11 -60
10 -35 0 -65 3 -68 8 -3 5 16 15 43 24 107 36 154 93 153 189 0 168 -187 419
-386 520 -111 56 -188 72 -345 72 -135 0 -148 -2 -194 -25 -64 -32 -88 -65
-94 -132 -2 -29 -8 -58 -13 -64 -17 -21 109 -189 206 -275 44 -39 135 -108
204 -154 l44 -30 -34 -7 c-19 -4 -82 -8 -142 -10 -89 -2 -104 -5 -90 -15 9 -7
27 -13 39 -13 12 0 30 -3 40 -7 12 -4 15 -3 10 5 -5 9 7 12 41 12 26 0 73 4
105 9 52 9 61 7 118 -21 81 -39 196 -78 232 -78 18 0 28 -5 28 -14 0 -8 9 -18
20 -21 11 -3 20 -10 20 -15 0 -5 8 -11 18 -13 9 -3 -7 -3 -37 0 -30 2 -61 8
-70 14 -12 7 -8 8 14 4 24 -5 27 -4 13 5 -14 8 -34 5 -92 -16 l-75 -26 -37 21
c-20 12 -38 20 -41 17 -2 -2 21 -16 51 -31 30 -15 57 -32 59 -38 2 -7 18 -12
35 -13 27 0 29 2 21 18 -12 23 -20 23 -12 1 6 -16 5 -17 -12 -3 -10 8 -20 14
-22 12 -3 -2 -7 -1 -11 2 -3 3 3 6 14 6 10 0 28 7 38 15 10 8 23 12 29 8 6 -3
7 -1 3 5 -4 7 -3 12 2 12 18 0 21 -13 5 -25 -9 -7 -17 -21 -18 -31 0 -11 -4
-25 -8 -31 -4 -6 -2 -15 4 -19 8 -4 9 -3 5 4 -4 7 -2 12 3 12 6 0 11 -6 11
-14 0 -8 5 -18 12 -22 7 -5 9 -2 6 7 -4 11 1 15 18 15 13 0 21 -2 19 -5 -3 -2
0 -10 6 -18 6 -7 8 -13 4 -13 -4 0 -14 8 -21 18 -13 16 -14 16 -8 -1 4 -11 1
-17 -7 -17 -11 0 -11 -2 1 -9 8 -6 17 -8 21 -5 4 2 14 -12 23 -31 9 -19 21
-35 26 -35 6 0 10 -9 10 -19 0 -11 5 -23 11 -27 7 -4 9 0 5 14 -4 12 -2 23 5
28 8 4 9 3 5 -4 -4 -7 -2 -20 4 -29 11 -16 11 -16 6 -1 -3 10 -1 20 4 23 10 6
30 -26 29 -47 0 -7 -4 -4 -9 7 -7 18 -8 19 -15 3 -4 -10 -11 -15 -16 -12 -5 3
-9 1 -9 -5 0 -5 5 -11 11 -13 13 -4 15 -181 2 -185 -6 -2 -19 -10 -29 -18 -17
-13 -16 -14 12 -6 70 20 311 158 361 208 10 10 67 58 126 107 99 81 199 184
271 279 18 23 35 36 43 33 9 -4 7 5 -7 24 -21 30 -40 39 -40 19 0 -5 5 -7 10
-4 6 4 5 -5 -2 -19 -6 -14 -15 -26 -19 -26 -15 0 -16 26 -1 48 13 21 13 25 -7
46 -12 12 -18 26 -14 31 5 4 2 5 -5 1 -10 -6 -10 -13 3 -33 14 -21 15 -30 5
-48 -8 -16 -9 -28 -2 -41 7 -14 6 -25 -4 -39 -8 -10 -14 -14 -14 -9 0 6 5 15
10 20 8 8 6 15 -6 25 -20 16 -23 16 -36 -3 -5 -9 -7 -4 -4 14 4 25 3 26 -35
23 -23 -2 -37 0 -34 6 6 9 -3 12 -40 11 -17 -1 -17 0 -2 4 9 3 14 10 11 16 -4
6 -2 8 4 4 5 -3 13 0 15 6 4 10 6 10 6 1 1 -7 6 -13 12 -13 6 0 9 7 5 15 -6
17 9 21 19 4 4 -6 -1 -17 -11 -25 -17 -13 -16 -13 19 -10 31 4 39 1 46 -16 7
-20 8 -19 24 5 10 16 13 28 7 32 -6 3 -10 1 -10 -4 0 -6 -5 -11 -10 -11 -7 0
-7 6 0 20 9 17 8 20 -10 20 -12 0 -18 -4 -15 -10 10 -15 -5 -12 -22 6 -13 12
-13 15 -2 13 22 -4 49 12 42 25 -3 6 -3 8 2 4 4 -4 13 -1 19 6 6 8 66 46 132
84 133 76 232 146 339 240 39 34 72 62 75 62 4 0 112 -85 176 -140 24 -20 125
-79 169 -99 17 -7 73 -25 125 -39 80 -22 115 -26 225 -26 154 1 275 28 398 90
42 21 78 36 80 33 2 -2 15 -58 29 -124 14 -66 33 -136 42 -155 l16 -35 -4 35
c-3 19 -16 82 -30 140 -34 142 -46 263 -29 279 11 10 13 8 7 -15 -5 -19 -4
-25 5 -20 6 4 11 16 11 26 0 10 4 21 9 25 6 3 6 -7 1 -27 -11 -35 -2 -111 11
-103 4 3 13 -5 20 -17 11 -21 11 -22 -5 -8 -17 13 -17 12 -2 -24 8 -20 15 -40
14 -44 0 -4 9 -31 22 -60 17 -40 26 -50 36 -42 9 9 11 7 7 -8 -2 -11 2 -31 9
-43 49 -81 50 -82 59 -68 7 9 7 5 3 -13 -4 -20 -2 -29 10 -34 9 -3 16 -11 16
-18 0 -22 49 -66 68 -60 12 4 13 3 4 -3 -16 -12 6 -32 69 -61 57 -28 94 -28
155 -1 73 32 96 61 96 118 0 18 2 21 9 10 6 -9 7 -1 4 24 -5 43 5 48 22 10 8
-17 9 -30 3 -38 -5 -7 -6 -15 -2 -19 4 -4 1 -6 -7 -4 -7 2 -16 -3 -19 -11 -3
-8 0 -11 7 -7 18 12 12 -5 -27 -79 -53 -98 -98 -128 -198 -133 -64 -4 -81 -1
-127 21 -69 34 -126 95 -182 192 -47 82 -63 80 -21 -3 38 -75 99 -150 147
-180 62 -39 165 -56 240 -38 58 13 119 49 119 69 0 7 4 6 10 -3 8 -12 10 -11
10 7 0 12 16 52 35 90 47 92 70 164 100 304 27 129 31 174 15 184 -6 4 -8 11
-5 16 3 5 -1 6 -9 3 -19 -7 -20 -16 -3 -33 10 -10 9 -11 -6 -5 -12 4 -16 2
-14 -7 2 -8 2 -11 0 -6 -3 4 -9 5 -14 1 -12 -7 -11 0 3 31 6 14 15 25 19 25 5
0 6 7 3 15 -6 15 -25 21 -23 8 1 -5 1 -14 0 -22 -2 -25 -16 0 -16 29 0 21 3
26 12 18 8 -6 16 -2 25 14 11 17 14 67 14 205 -1 156 1 183 14 184 9 0 5 4 -7
9 -15 6 -23 18 -23 34 0 45 -69 236 -120 332 -49 92 -50 94 -31 113 10 10 37
45 58 77 103 152 138 265 137 444 -1 69 -6 136 -11 150 -10 23 -10 23 -17 -13
-4 -21 -4 -41 -1 -46 9 -15 -16 -25 -28 -12 -9 9 -7 10 8 5 17 -7 18 -6 5 7
-12 14 -16 14 -30 0 -15 -15 -14 -17 2 -29 10 -7 18 -25 18 -40 0 -22 2 -24
11 -12 9 12 10 12 5 -3 -3 -10 -6 -24 -7 -30 0 -7 -5 -3 -10 8 -7 15 -8 9 -4
-22 3 -26 1 -43 -5 -43 -5 0 -10 6 -11 13 -4 49 -3 63 5 68 4 4 5 17 1 30 -7
22 -8 22 -21 4 -8 -11 -12 -26 -9 -33 3 -7 0 -22 -5 -32 -6 -11 -11 -32 -12
-47 -1 -15 -6 -31 -10 -34 -5 -3 -2 -22 7 -42 8 -20 14 -47 14 -59 -1 -19 -3
-18 -9 7 l-8 30 -1 -32 c0 -18 -5 -33 -11 -33 -12 0 -13 40 -1 59 5 8 6 21 3
30 -8 20 -20 -18 -21 -67 -1 -18 -5 -31 -11 -27 -5 3 -6 13 -3 23 3 9 3 14 -1
11 -4 -4 -8 -16 -11 -28 -2 -11 -7 -26 -10 -31 -3 -6 -2 -10 4 -10 5 0 12 6
15 13 3 6 3 0 0 -15 -4 -19 -1 -29 13 -36 10 -6 14 -14 10 -18 -5 -5 -12 -2
-16 5 -7 10 -13 8 -28 -9 -11 -11 -30 -22 -42 -23 -16 -1 -21 -6 -17 -20 3
-13 1 -15 -7 -9 -8 6 -22 0 -42 -19 -16 -16 -25 -29 -19 -29 6 0 17 7 24 15
13 15 35 11 25 -6 -4 -5 1 -9 10 -9 11 0 15 5 11 16 -3 8 -2 12 4 9 6 -3 10 1
10 9 0 23 36 39 59 27 16 -9 20 -6 27 17 4 15 8 33 9 41 0 24 19 23 34 -1 13
-21 13 -22 -2 -9 -14 11 -17 11 -18 0 -1 -8 -1 -17 0 -21 0 -5 -4 -8 -10 -8
-8 0 -8 -5 1 -15 12 -14 7 -20 -14 -16 -5 1 -6 -5 -2 -14 5 -14 4 -15 -16 0
-13 8 -28 15 -34 15 -14 0 -26 -38 -14 -45 15 -9 17 -55 4 -66 -17 -14 -45 -4
-42 13 2 7 -4 12 -13 12 -9 -1 -16 5 -15 14 0 8 -6 17 -14 19 -13 4 -13 3 0
-7 12 -10 12 -11 -5 -5 -11 4 -31 10 -45 12 -21 4 -18 -2 25 -41 28 -25 48
-46 45 -46 -3 -1 -16 -3 -29 -6 -14 -2 -31 -9 -38 -16 -7 -6 -16 -8 -19 -5 -3
3 7 12 23 21 l28 15 -25 2 c-14 1 -31 1 -37 0 -7 -1 -13 3 -13 9 0 5 -3 9 -7
8 -5 -1 -30 3 -58 10 -72 17 -190 23 -260 13 -33 -5 -49 -9 -35 -10 21 -1 22
-3 9 -11 -10 -6 -28 -6 -48 0 -21 6 -42 5 -59 -1 -15 -6 -65 -12 -112 -13 -47
-1 -92 -5 -100 -8 -39 -16 -68 -17 -79 -4 -9 11 -9 15 1 18 7 3 -13 14 -45 26
-32 12 -69 29 -82 38 -23 15 -25 15 -19 0 11 -28 -6 -17 -18 12 -9 22 -12 24
-15 9 -6 -22 -29 -16 -27 7 1 9 -2 16 -8 16 -5 0 -7 4 -3 9 3 5 0 13 -6 17 -8
4 -9 3 -5 -4 4 -7 0 -12 -11 -13 -14 0 -15 -2 -3 -7 8 -4 15 -17 16 -29 0 -12
-3 -20 -7 -17 -4 2 -10 -5 -14 -16 -3 -11 -11 -20 -16 -20 -6 0 -3 10 5 22 21
29 22 62 2 35 -13 -16 -14 -16 -20 -1 -4 10 -2 22 3 27 5 5 8 15 7 21 -2 6 -1
8 1 4 3 -5 9 -8 15 -8 6 0 3 11 -6 25 -22 33 -20 40 7 22 12 -8 56 -27 97 -42
109 -40 284 -46 474 -15 122 19 148 20 224 10 47 -6 89 -13 93 -15 13 -9 139
96 189 157 100 123 141 247 140 417 0 52 -2 97 -5 99 -3 3 -5 -24 -6 -59 -1
-150 -14 -216 -62 -312 -51 -103 -111 -176 -195 -240 l-57 -43 -70 13 c-80 13
-138 11 -280 -11 -284 -45 -498 -1 -603 123 -24 28 -62 61 -85 72 -48 24 -87
57 -87 73 0 6 16 49 34 95 25 61 35 77 38 60 5 -35 51 -49 89 -26 29 16 32 16
62 0 25 -14 57 -18 153 -17 117 0 122 1 195 36 134 65 213 156 213 249 0 39
-7 55 -39 98 -55 72 -89 86 -210 86 -97 0 -103 -1 -179 -40 -85 -43 -162 -110
-192 -166 -11 -21 -18 -54 -17 -86 0 -46 -2 -53 -19 -53 -10 0 -29 -11 -42
-24 l-24 -23 -4 74 -3 75 53 56 c73 76 134 163 174 247 30 64 32 78 33 170 0
116 -16 172 -77 279 -43 74 -95 132 -285 319 -68 66 -123 124 -123 128 0 30
250 13 387 -27 149 -43 305 -149 382 -263 93 -136 191 -183 260 -125 123 103
125 434 4 748 -99 259 -330 472 -603 557 -106 33 -331 34 -470 2 -117 -27
-273 -81 -383 -132 -117 -53 -126 -55 -178 -26 -226 127 -431 200 -639 229
-69 10 -291 26 -330 24 -19 -1 -70 -4 -112 -5z m2097 -108 c122 -33 311 -143
392 -227 49 -51 146 -186 175 -243 68 -131 118 -345 119 -502 1 -121 -27 -253
-54 -253 -12 0 -16 -4 -11 -12 5 -9 2 -9 -9 1 -19 15 -24 2 -6 -16 8 -8 8 -13
0 -18 -6 -3 -11 -3 -10 2 3 21 -15 53 -32 53 -10 0 -21 5 -24 10 -4 6 -15 8
-25 5 -11 -3 -29 4 -46 18 -23 20 -31 22 -41 12 -12 -13 -7 -25 9 -25 5 0 6 5
3 10 -3 6 -1 10 4 10 14 0 14 -13 0 -27 -8 -8 -8 -13 0 -17 6 -4 11 -2 11 3 0
15 17 14 17 -1 0 -7 4 -22 7 -33 l7 -20 -13 20 c-7 11 -19 21 -27 23 -37 8
-47 48 -18 76 13 14 18 12 46 -14 50 -48 47 -35 -5 23 -26 28 -50 51 -55 50
-4 -1 -12 11 -18 27 -12 37 -62 100 -73 94 -4 -3 -8 -14 -8 -24 0 -19 -37 -47
-47 -36 -3 3 2 8 11 12 9 3 16 11 16 16 0 6 -8 7 -17 3 -51 -20 -49 -20 -33
-1 8 10 24 22 37 27 15 5 23 17 23 31 -1 21 -2 21 -11 6 -11 -19 -39 -25 -39
-8 0 5 6 7 13 4 8 -3 13 5 15 21 1 14 -3 25 -9 25 -6 0 -9 -7 -5 -15 3 -8 0
-15 -5 -15 -7 0 -9 9 -6 22 5 17 -8 36 -60 90 -37 37 -71 68 -77 67 -23 -3
-36 1 -36 11 0 5 8 7 18 4 10 -3 4 5 -13 20 -16 15 -38 25 -47 22 -10 -2 -18
0 -18 4 0 5 -19 3 -41 -5 -56 -20 -63 -18 -15 5 l39 18 -94 21 c-77 18 -118
21 -232 18 -87 -2 -142 -8 -149 -15 -8 -8 -52 -12 -128 -11 -80 0 -109 3 -95
10 16 7 12 8 -14 4 -19 -3 -39 -1 -45 4 -17 13 -60 21 -72 13 -7 -5 -7 -14 2
-30 8 -17 13 -20 17 -10 3 7 4 3 4 -9 -1 -13 -2 -23 -3 -23 -2 0 -12 14 -25
31 -14 20 -18 34 -11 41 6 6 2 17 -14 33 -13 13 -24 31 -24 40 0 8 -6 15 -14
15 -8 0 -20 16 -26 35 -6 19 -15 35 -20 35 -4 0 -11 39 -15 88 -6 77 -11 92
-38 126 -17 22 -26 36 -20 33 7 -4 14 -3 17 2 11 17 -12 22 -28 5 -9 -8 -16
-11 -16 -5 0 6 -7 11 -15 11 -8 0 -15 5 -15 11 0 6 7 9 15 5 8 -3 15 -1 15 4
0 6 5 10 11 10 5 0 7 -4 4 -10 -3 -5 -1 -10 4 -10 6 0 11 8 12 18 0 13 2 14 6
2 4 -8 15 -22 27 -31 19 -16 21 -15 50 13 67 64 332 168 516 202 108 19 319
15 405 -9z m-2875 -390 c152 -21 283 -66 407 -142 l31 -19 -45 -74 c-25 -41
-49 -85 -54 -97 -10 -28 -10 -28 -62 -3 l-42 21 24 -21 c13 -11 22 -23 19 -25
-3 -3 -22 11 -42 30 -38 35 -60 43 -71 25 -3 -5 -16 -10 -28 -9 -20 1 -20 2 3
9 21 7 22 8 5 9 -11 1 -31 4 -45 6 -22 5 -23 4 -5 -5 17 -9 17 -10 -5 -4 -37
10 -101 6 -117 -7 -10 -9 -17 -9 -25 -1 -16 16 -28 15 -28 -3 0 -18 -17 -20
-22 -4 -3 8 -10 9 -23 2 -11 -5 -38 -19 -60 -29 -22 -11 -39 -25 -38 -31 1 -6
-4 -14 -13 -17 -8 -3 -12 -2 -9 4 3 6 2 10 -3 10 -17 0 -22 -13 -10 -27 14
-18 3 -29 -15 -15 -14 12 -27 7 -27 -10 0 -5 5 -6 10 -3 6 3 10 -1 10 -10 0
-12 -5 -15 -17 -10 -10 3 -22 7 -27 8 -12 3 -107 -114 -100 -124 2 -4 0 -10
-5 -13 -14 -9 -24 67 -23 174 1 229 122 377 342 419 3 0 52 -6 110 -14z m28
-632 c-39 -42 -48 -66 -48 -126 0 -65 15 -102 76 -197 50 -78 83 -146 84 -172
0 -10 -9 -27 -20 -38 -64 -64 -279 34 -359 165 -16 28 -35 74 -42 103 -9 45
-8 62 10 120 22 72 54 112 106 132 38 15 150 38 189 39 l30 1 -26 -27z m3137
-833 c-89 -9 -142 -25 -206 -65 -125 -78 -179 -177 -133 -243 65 -94 311 -54
442 72 55 52 72 84 72 135 0 32 -6 44 -31 65 -17 14 -38 26 -46 26 -9 0 -13 3
-10 6 11 12 67 -18 87 -46 58 -82 -16 -209 -163 -283 -151 -76 -311 -71 -364
10 -56 85 24 211 184 292 58 29 106 39 183 39 l65 -1 -80 -7z m75 -30 c17 -9
17 -12 3 -41 -12 -25 -13 -36 -5 -50 10 -15 9 -17 -6 -13 -14 5 -15 4 -2 -5
13 -10 8 -15 -12 -12 -4 0 -4 -7 -1 -17 3 -9 3 -14 -2 -10 -4 4 -19 -7 -33
-23 -20 -24 -22 -33 -12 -42 10 -9 12 -9 8 3 -3 8 1 21 8 28 10 9 14 9 14 1 0
-8 4 -8 15 1 8 7 15 19 15 26 0 8 4 14 9 14 5 0 12 13 16 30 4 16 11 32 16 35
5 4 9 15 9 25 0 10 6 22 13 26 6 4 9 4 5 0 -3 -4 0 -22 7 -39 11 -28 11 -36
-5 -68 -11 -20 -31 -44 -47 -54 -15 -10 -33 -25 -39 -33 -6 -8 -16 -12 -22 -8
-7 4 -12 2 -12 -4 0 -7 -7 -5 -16 4 -18 18 -36 12 -32 -11 2 -9 -4 -18 -12
-20 -13 -4 -13 -3 0 6 8 6 11 11 7 11 -10 0 -69 -41 -79 -55 -4 -5 -43 -10
-87 -10 -70 0 -82 3 -105 24 -58 54 -14 144 112 231 71 48 223 76 272 50z
m-2660 -1560 c36 -6 100 -22 142 -36 263 -86 518 -441 445 -616 -28 -66 -137
-121 -242 -120 -59 0 -194 54 -316 128 -170 103 -376 296 -415 391 -30 71 -4
183 50 218 62 41 203 56 336 35z"/>
<path d="M2995 5120 c-86 -13 -163 -93 -202 -210 -22 -68 -27 -350 -5 -357 6
-3 12 2 12 9 0 8 14 57 30 110 32 101 93 200 145 234 16 10 59 20 107 24 72 6
85 11 105 34 28 33 28 42 3 83 -36 59 -106 86 -195 73z"/>
<path d="M3949 4637 c-72 -48 -103 -126 -103 -257 0 -172 63 -307 182 -385 71
-47 162 -33 211 32 11 16 24 33 28 38 35 45 52 179 34 270 -28 138 -79 230
-160 287 -46 32 -63 38 -106 38 -38 0 -61 -6 -86 -23z m171 -21 c95 -51 164
-201 165 -361 0 -90 -19 -185 -37 -185 -6 0 -7 8 -3 18 5 9 15 42 23 72 36
134 -39 358 -142 421 -46 28 -117 26 -154 -6 -24 -20 -50 -65 -37 -65 1 0 21
19 44 41 38 38 44 41 82 36 47 -6 87 -39 130 -106 38 -59 37 -71 -2 -26 -41
46 -80 66 -130 67 -49 0 -54 -4 -50 -48 3 -42 -13 -64 -45 -64 -21 0 -24 -5
-24 -37 1 -81 58 -182 121 -214 85 -43 169 -10 187 74 l10 42 1 -51 c1 -28 -6
-72 -15 -98 -14 -42 -23 -51 -61 -68 -43 -19 -46 -19 -95 -1 -81 29 -130 110
-149 249 -6 44 -14 93 -19 109 -7 25 -8 19 -9 -32 -3 -188 102 -354 224 -355
34 -1 51 5 70 22 14 13 28 20 32 16 12 -11 -63 -76 -89 -77 -80 -4 -122 15
-181 80 -45 50 -73 113 -93 214 -51 252 76 424 246 333z"/>
<path d="M3062 4603 c-61 -21 -118 -98 -111 -149 0 -4 -4 -10 -10 -14 -7 -3
-9 -15 -5 -24 6 -17 8 -16 21 5 13 24 13 23 7 -6 l-7 -30 21 25 c18 21 21 22
22 7 0 -10 -4 -15 -10 -12 -5 3 -10 1 -10 -4 0 -6 4 -11 10 -11 5 0 1 -16 -10
-36 -11 -19 -16 -33 -10 -29 17 11 11 -4 -11 -26 -16 -16 -20 -29 -15 -57 5
-31 4 -33 -4 -13 -13 31 -3 89 21 123 24 34 24 37 -1 31 -11 -3 -21 -13 -21
-22 -1 -9 -5 -2 -9 14 -4 17 -6 -17 -4 -80 5 -137 6 -145 18 -138 5 4 7 -1 3
-10 -4 -10 -4 -31 0 -47 4 -22 9 -28 18 -20 8 7 17 4 30 -10 15 -16 15 -20 3
-15 -9 4 -18 0 -22 -10 -4 -10 -2 -14 5 -9 8 4 9 -1 4 -17 -4 -17 -3 -20 3
-10 8 10 14 11 28 1 16 -10 16 -11 2 -6 -14 4 -18 0 -18 -17 0 -18 2 -19 11
-7 8 12 9 9 5 -12 -5 -21 3 -37 34 -77 23 -29 45 -49 49 -46 5 3 12 -2 15 -11
7 -20 72 -16 68 4 -1 8 2 11 8 7 23 -14 10 -35 -22 -35 l-33 -1 25 -14 c28
-16 44 -19 36 -7 -2 4 4 19 14 32 19 24 19 24 13 3 -4 -19 -1 -23 19 -23 13 0
29 -5 36 -12 9 -9 12 -9 12 1 0 7 4 9 10 6 5 -3 24 2 42 12 18 9 38 16 43 15
6 -1 3 3 -6 10 -17 14 -14 42 3 32 7 -4 8 -2 4 4 -4 7 -3 12 3 12 6 0 8 6 5
14 -3 8 4 19 16 26 16 9 20 18 16 35 -4 14 -1 25 7 28 9 4 9 6 -1 6 -9 1 -9 9
3 37 18 43 18 47 5 39 -5 -3 -10 -1 -10 4 0 6 3 11 8 11 9 0 6 78 -9 165 -8
50 -18 77 -36 96 -17 18 -21 29 -13 34 8 5 6 11 -7 22 -10 8 -12 12 -6 8 9 -4
11 -1 7 9 -10 25 -24 7 -22 -26 2 -18 14 -41 30 -57 32 -29 35 -43 13 -61 -9
-8 -15 -9 -15 -2 0 6 5 14 10 17 17 10 11 25 -7 18 -10 -3 -15 -3 -11 2 4 4
-3 22 -15 39 -12 17 -21 32 -19 34 7 7 0 42 -8 37 -5 -3 -10 -1 -10 5 0 6 -4
8 -10 5 -5 -3 -10 0 -10 9 0 8 -6 17 -12 19 -9 4 -8 6 2 7 10 0 6 6 -10 16
-23 14 -23 14 -3 9 18 -5 22 -3 17 9 -3 9 -12 16 -20 16 -8 0 -14 7 -14 15 0
8 -5 15 -12 15 -6 0 -9 2 -6 5 8 8 39 -6 33 -15 -3 -4 2 -10 10 -14 24 -9 18
6 -18 45 -27 29 -44 38 -83 43 -27 4 -56 9 -64 11 -8 2 -34 -4 -58 -12z m145
-124 c31 -10 79 -62 102 -109 9 -19 4 -16 -24 13 -40 42 -77 58 -118 50 -30
-6 -77 -45 -77 -64 0 -7 12 -1 28 13 57 55 115 46 169 -25 33 -44 59 -98 31
-67 -27 32 -64 50 -100 50 -32 0 -40 -4 -48 -25 -5 -14 -21 -30 -35 -35 -22
-8 -25 -15 -25 -62 0 -80 15 -119 62 -161 58 -50 99 -59 161 -32 23 10 22 -5
-5 -45 -60 -88 -156 -49 -222 90 -28 59 -31 74 -30 163 0 63 -3 94 -10 87 -5
-5 -9 -49 -9 -98 0 -74 4 -97 27 -147 38 -83 72 -124 120 -145 53 -24 88 -16
126 27 35 40 40 21 7 -28 -32 -48 -83 -74 -129 -65 -90 17 -189 164 -207 305
-27 215 68 359 206 310z"/>
<path d="M3600 3802 c-159 -53 -270 -161 -270 -262 0 -93 95 -178 249 -224
116 -34 189 -14 292 81 174 161 175 318 4 394 -69 31 -199 36 -275 11z m173
-96 c26 -68 -304 -200 -353 -141 -40 48 158 153 291 154 41 1 58 -3 62 -13z"/>
<path d="M4322 3456 c-22 -24 -43 -42 -45 -39 -3 3 -10 -5 -17 -16 -6 -12 -15
-19 -20 -16 -4 3 -10 2 -12 -2 -5 -12 -80 -59 -106 -67 -12 -4 -22 -12 -22
-17 0 -6 -4 -8 -9 -4 -5 3 -17 -2 -25 -11 -9 -9 -22 -17 -29 -18 -6 -1 -29
-10 -51 -19 -21 -9 -44 -17 -51 -17 -8 0 -15 -4 -17 -9 -1 -6 -16 -12 -33 -15
-16 -2 -30 -5 -30 -6 0 -1 -16 -4 -35 -6 -51 -5 -69 -9 -76 -17 -4 -4 -2 -7 4
-7 7 0 12 -9 12 -20 0 -10 8 -23 18 -29 9 -5 16 -12 15 -15 -7 -15 0 -26 42
-70 29 -30 54 -46 70 -46 13 0 26 -4 30 -10 3 -5 12 -7 20 -3 8 3 15 1 15 -5
0 -17 116 -13 130 4 7 7 22 14 34 14 12 0 35 15 52 33 38 40 86 121 77 130 -3
4 -2 7 4 7 6 0 16 12 22 28 11 27 48 194 49 222 1 28 11 62 23 76 27 32 -2 10
-39 -30z"/>
<path d="M2266 1382 c-4 -6 -21 -8 -41 -5 -18 3 -59 2 -89 -1 l-54 -7 9 -31
c11 -38 31 -69 88 -136 143 -166 464 -272 784 -259 67 3 127 7 133 8 14 3 6
39 -15 63 -25 29 -138 92 -261 146 -63 28 -118 57 -123 65 -4 9 -13 13 -18 10
-5 -4 -58 12 -117 35 -59 23 -145 55 -191 71 -47 16 -88 34 -92 40 -4 8 -9 8
-13 1z m10 -38 c7 -9 13 -11 15 -5 3 7 26 4 64 -8 86 -26 327 -122 346 -138 8
-7 22 -13 30 -13 8 0 82 -33 164 -74 145 -72 204 -113 191 -135 -12 -19 -98
-23 -245 -12 -311 23 -550 120 -664 268 -75 98 -82 126 -35 136 40 9 122 -3
134 -19z"/>
<path d="M5896 1374 c-22 -12 -26 -18 -15 -25 7 -4 14 -22 15 -38 1 -18 -3
-28 -8 -25 -5 4 -7 17 -4 30 6 22 4 24 -21 18 -22 -4 -25 -3 -13 5 22 17 -39
3 -68 -16 -12 -7 -27 -11 -32 -8 -12 8 -13 -5 -1 -23 7 -11 9 -11 14 1 3 8 17
15 32 15 19 0 23 -4 16 -11 -24 -24 -9 -26 16 -3 15 14 29 23 32 20 3 -3 1 -8
-4 -12 -6 -4 -10 -18 -10 -32 0 -23 -3 -25 -35 -22 -19 2 -41 8 -47 14 -7 6
-13 7 -13 2 0 -5 -4 -3 -9 4 -5 8 -20 15 -34 15 -14 1 -23 5 -20 10 2 4 0 7
-6 7 -5 0 -13 -5 -17 -11 -3 -6 -15 -9 -25 -6 -11 3 -19 2 -19 -2 0 -4 -18 -8
-41 -9 -22 -2 -62 -8 -87 -13 -26 -6 -121 -11 -212 -12 -91 0 -155 -2 -143 -4
16 -3 32 -24 58 -78 105 -220 278 -262 557 -136 48 22 143 110 143 133 0 7 5
13 12 13 6 0 15 4 20 9 5 5 3 6 -4 2 -21 -12 -15 1 13 29 24 24 25 27 10 50
-9 13 -16 28 -16 32 0 4 5 0 11 -9 5 -10 15 -18 20 -18 6 0 7 5 4 10 -3 6 4
10 17 11 20 1 19 2 -9 15 -17 7 -38 23 -47 35 -14 20 -14 24 2 35 24 18 3 17
-32 -2z"/>
</g>
</svg>
