<?xml version="1.0" standalone="no"?>
<!DOCTYPE svg PUBLIC "-//W3C//DTD SVG 20010904//EN"
 "http://www.w3.org/TR/2001/REC-SVG-20010904/DTD/svg10.dtd">
<svg version="1.0" xmlns="http://www.w3.org/2000/svg"
 width="1080.000000pt" height="1608.000000pt" viewBox="0 0 1080.000000 1608.000000"
 preserveAspectRatio="xMidYMid meet">
<metadata>
Created by potrace 1.15, written by Peter Selinger 2001-2017
</metadata>
<g transform="translate(0.000000,1608.000000) scale(0.100000,-0.100000)"
fill="#000000" stroke="none">
<path d="M2355 15839 c-108 -80 -221 -193 -256 -254 -24 -42 -29 -46 -29 -25
0 42 36 156 74 231 20 40 34 74 32 77 -8 7 -167 -104 -230 -161 l-59 -52 49
-75 c27 -41 62 -100 78 -131 l30 -57 55 5 c54 5 60 3 194 -71 225 -124 415
-244 571 -361 43 -33 90 -69 105 -79 57 -43 220 -188 282 -253 259 -267 373
-486 399 -767 18 -183 89 -358 236 -578 139 -207 335 -415 607 -642 31 -26 57
-52 57 -57 0 -32 -44 -7 -185 103 -144 113 -326 250 -489 370 -225 166 -396
268 -489 292 -32 8 -145 20 -250 26 -429 24 -628 64 -775 157 -167 105 -227
285 -172 508 29 120 82 252 140 350 60 103 99 200 118 299 36 180 -31 359
-194 518 -66 64 -173 147 -191 148 -7 0 -5 -15 7 -47 53 -141 84 -403 78 -660
-4 -158 -8 -188 -32 -268 -15 -49 -50 -135 -78 -190 -95 -189 -118 -281 -99
-383 37 -188 199 -337 492 -451 209 -81 476 -141 738 -166 178 -17 268 -31
276 -44 2 -5 -39 -11 -93 -15 -175 -13 -469 -57 -632 -97 -235 -56 -372 -109
-491 -190 -298 -202 -176 -490 359 -847 72 -48 110 -66 175 -83 111 -28 251
-58 255 -54 2 2 -16 16 -40 31 -171 106 -309 211 -417 317 -148 146 -211 253
-211 364 0 236 377 397 1065 453 72 5 155 13 186 15 55 6 58 4 145 -53 75 -50
272 -194 352 -259 30 -25 20 -33 -42 -33 -45 0 -418 -44 -471 -55 -372 -81
-533 -152 -612 -269 -39 -58 -39 -140 1 -212 55 -101 171 -211 344 -327 84
-56 89 -58 277 -82 l50 -7 -25 19 c-14 11 -63 46 -110 79 -120 83 -259 224
-295 298 -76 156 -7 265 225 352 83 31 167 52 345 83 63 11 368 41 420 41 24
0 53 -19 135 -91 58 -50 111 -97 118 -104 12 -10 11 -22 -4 -71 -24 -81 -27
-83 -77 -74 -105 20 -385 43 -517 44 -171 1 -220 -13 -220 -60 0 -70 181 -183
582 -364 l153 -69 16 -54 c53 -179 245 -389 399 -438 149 -48 270 -33 333 42
41 47 77 160 77 238 0 51 1 53 23 46 265 -83 413 -46 477 121 52 134 28 479
-41 617 -110 219 -373 415 -601 446 -42 6 -91 8 -108 4 -37 -7 -75 18 -223
145 -238 204 -433 490 -542 793 -40 110 -91 323 -100 414 -24 241 -144 446
-399 683 -141 131 -288 230 -488 328 -59 30 -108 55 -108 56 0 2 9 28 21 58
35 93 112 224 200 340 56 73 71 91 133 158 44 47 19 39 -73 -23 -177 -119
-315 -247 -361 -337 l-21 -43 6 55 c12 95 84 257 155 350 60 79 42 72 -113
-44 -134 -100 -216 -185 -261 -271 l-16 -30 0 35 c0 68 77 250 146 348 28 38
0 25 -92 -44 -117 -87 -195 -164 -246 -242 -22 -34 -42 -61 -44 -59 -12 11 43
176 86 261 28 54 49 100 48 101 -5 5 -133 -95 -182 -143 -61 -59 -125 -139
-137 -171 -19 -48 -21 -10 -4 65 10 45 37 117 65 171 26 51 45 93 41 93 -3 0
-42 -28 -86 -61z m322 -459 c108 -19 188 -56 358 -163 540 -343 900 -838 1000
-1375 14 -75 30 -153 37 -172 29 -92 133 -282 235 -430 91 -132 276 -329 385
-410 26 -19 47 -37 47 -40 -1 -10 -90 -70 -103 -70 -20 0 -269 247 -355 352
-237 289 -367 577 -397 883 -15 153 -104 355 -239 540 -231 318 -596 601
-1102 854 -57 28 -103 54 -103 57 0 8 116 -5 237 -26z m1473 -3195 c69 -9 150
-21 180 -28 47 -11 55 -16 54 -35 -3 -92 -5 -119 -13 -131 -7 -12 -31 -5 -133
34 -131 51 -245 105 -291 138 -57 40 2 46 203 22z"/>
<path d="M772 15290 c-53 -92 -91 -187 -106 -269 l-13 -66 -16 72 c-18 75 -21
172 -8 261 4 29 4 49 0 45 -17 -17 -81 -190 -111 -301 -27 -100 -32 -134 -33
-234 0 -65 -1 -118 -3 -118 -2 0 -18 33 -37 73 -39 81 -75 211 -75 269 0 63
-14 43 -32 -44 -46 -226 -50 -443 -9 -548 24 -64 24 -63 11 -55 -33 20 -138
191 -160 258 -7 22 -16 35 -21 30 -16 -16 -33 -161 -33 -293 0 -120 3 -143 27
-209 l26 -73 -25 23 c-14 13 -47 57 -72 98 -57 90 -63 77 -32 -74 38 -186 91
-318 168 -414 15 -19 20 -31 12 -26 -52 30 -113 77 -169 129 -76 73 -75 65 8
-104 91 -182 171 -294 259 -362 23 -18 40 -34 37 -36 -13 -13 -291 138 -311
169 -3 5 -9 9 -14 9 -20 0 62 -174 131 -280 58 -88 117 -158 161 -190 23 -17
36 -30 30 -30 -24 0 -120 41 -185 79 -37 22 -67 37 -67 34 0 -3 28 -37 63 -76
125 -141 316 -291 414 -324 65 -22 66 -37 2 -28 -102 13 -232 46 -302 76 -39
16 -75 28 -80 26 -13 -4 150 -147 228 -200 106 -72 184 -96 342 -104 124 -6
134 -7 102 -18 -60 -21 -151 -71 -229 -126 -71 -50 -315 -278 -306 -286 2 -3
37 10 76 26 40 17 109 40 153 52 77 19 237 42 244 35 2 -2 -38 -24 -90 -49
-51 -25 -129 -73 -173 -106 -88 -67 -270 -238 -262 -246 3 -3 29 6 59 19 84
39 235 76 329 82 69 4 80 2 60 -7 -125 -57 -180 -88 -247 -138 -80 -59 -233
-198 -233 -211 0 -5 54 10 120 31 96 32 141 41 218 44 l97 5 -45 -17 c-70 -28
-149 -72 -208 -115 -69 -51 -194 -159 -190 -164 2 -1 42 10 88 26 124 43 320
74 320 52 0 -5 -19 -14 -43 -21 -79 -23 -211 -111 -336 -224 -24 -21 -41 -41
-38 -43 3 -3 36 4 74 15 103 30 226 53 269 49 l39 -3 -69 -28 c-37 -15 -94
-44 -125 -64 -64 -41 -193 -145 -187 -151 2 -2 35 6 73 17 117 34 301 61 289
43 -3 -5 -32 -19 -64 -31 -60 -21 -199 -108 -262 -164 l-35 -30 30 6 c17 3 62
13 100 21 77 17 175 21 159 7 -5 -5 -27 -14 -49 -21 -44 -14 -144 -70 -188
-107 -16 -13 -26 -23 -23 -23 2 0 35 6 73 14 101 21 183 29 183 18 0 -5 -19
-15 -43 -22 -48 -15 -170 -84 -189 -108 -11 -13 -11 -15 3 -10 33 12 165 30
194 25 l30 -4 -25 -8 c-31 -10 -191 -93 -204 -106 -19 -17 2 -19 65 -5 72 16
193 26 182 15 -5 -4 -33 -17 -63 -30 -30 -13 -75 -35 -100 -51 l-45 -27 100 4
c95 5 98 5 59 -8 -87 -29 -215 -113 -141 -93 32 9 167 20 167 14 0 -3 -27 -16
-60 -28 -33 -12 -60 -27 -60 -32 0 -5 8 -7 18 -4 9 2 49 7 87 11 l70 5 -35
-17 c-19 -9 -62 -29 -95 -45 -103 -49 -140 -88 -64 -68 19 5 70 10 113 12 l79
3 68 -90 c124 -163 249 -451 329 -757 15 -57 35 -62 44 -13 11 58 93 261 161
400 162 330 369 615 662 910 104 104 236 227 288 266 17 13 32 26 35 29 3 3
34 28 69 55 35 28 78 61 95 75 17 14 42 33 56 43 14 9 48 33 75 52 160 115
381 251 564 348 l114 60 -7 191 c-7 201 -8 206 -56 206 -117 1 -566 -288 -880
-566 -187 -166 -238 -212 -330 -297 -145 -136 -495 -492 -658 -669 -74 -82
-139 -148 -144 -148 -5 0 -45 28 -90 63 -44 34 -93 71 -108 82 -79 57 -219
166 -224 173 -16 27 174 916 240 1124 l16 48 22 -28 c71 -86 133 -207 186
-362 31 -88 100 -378 100 -417 0 -13 3 -23 8 -23 4 0 42 71 84 158 82 168 181
323 303 477 138 173 393 418 573 548 28 21 52 42 52 46 0 7 -272 96 -292 96
-10 0 -307 -256 -449 -387 -70 -65 -130 -118 -134 -118 -4 0 -88 75 -186 167
-114 105 -178 171 -175 180 3 8 13 39 22 71 29 105 155 477 164 486 5 5 43
-19 92 -60 106 -88 140 -113 211 -152 51 -29 157 -75 157 -69 0 1 -43 47 -96
102 -349 363 -578 706 -713 1072 -87 234 -136 503 -129 705 l3 104 69 139 68
139 23 -45 c62 -122 132 -448 180 -844 14 -115 29 -219 34 -229 6 -16 13 -6
35 50 102 253 151 547 126 759 -23 202 -78 366 -165 500 -25 37 -45 70 -45 73
0 3 16 24 35 48 19 23 35 47 35 54 0 6 -23 38 -50 71 -87 104 -158 229 -195
339 -9 28 -20 50 -25 50 -4 0 -26 -32 -48 -70z"/>
<path d="M1980 14869 c0 -6 -7 -9 -15 -5 -8 3 -20 -3 -27 -13 -13 -19 -85 -47
-95 -38 -3 3 -14 -3 -26 -14 -24 -22 -47 -25 -47 -6 0 7 -5 5 -10 -5 -6 -9
-26 -22 -45 -28 -19 -6 -35 -16 -35 -21 0 -5 -10 -7 -23 -4 -15 4 -28 1 -36
-9 -7 -9 -18 -13 -24 -9 -6 4 -7 1 -2 -7 6 -10 4 -12 -8 -7 -29 11 -18 -7 21
-34 59 -42 338 -169 370 -169 11 0 17 44 27 187 6 89 -3 193 -16 193 -5 0 -9
-5 -9 -11z"/>
<path d="M2714 14640 c-91 -19 -207 -93 -270 -172 -39 -49 -88 -170 -99 -242
-8 -58 5 -55 37 7 54 107 171 227 266 274 48 23 72 28 157 31 132 5 226 -15
338 -71 48 -25 87 -41 87 -37 0 5 -27 33 -60 63 -59 53 -150 109 -220 135 -45
17 -183 24 -236 12z"/>
<path d="M1491 14532 c26 -102 42 -285 34 -387 -7 -96 -30 -258 -44 -315 -55
-218 -125 -401 -215 -558 -20 -35 -36 -67 -36 -71 0 -4 29 -24 65 -45 204
-119 375 -307 461 -505 39 -90 69 -203 86 -318 7 -46 15 -83 18 -83 12 0 60
114 80 190 25 95 25 176 0 268 -31 113 -84 210 -171 315 -67 81 -129 171 -139
203 -10 28 -8 45 9 97 98 299 181 770 181 1032 l0 83 -32 13 c-41 16 -210 99
-261 128 -21 11 -41 21 -46 21 -4 0 0 -30 10 -68z"/>
<path d="M2858 14360 c-88 -16 -149 -52 -239 -142 -95 -97 -141 -176 -164
-285 -27 -128 -14 -237 40 -329 55 -93 170 -144 329 -144 249 0 462 121 525
300 18 52 25 187 12 255 -12 66 -61 179 -92 212 -20 20 -20 21 -2 26 10 3 41
8 68 12 75 10 128 27 113 37 -7 4 -31 8 -53 8 -22 0 -104 11 -182 25 -167 28
-290 37 -355 25z m282 -137 c49 -32 82 -69 115 -128 44 -79 57 -133 57 -228
-1 -114 -23 -170 -92 -238 -101 -98 -269 -149 -444 -134 -144 12 -227 59 -281
156 -28 51 -30 60 -30 169 0 158 16 198 99 252 127 83 279 142 401 157 111 13
149 12 175 -6z"/>
<path d="M2815 14129 c-181 -20 -291 -164 -249 -325 66 -256 463 -295 584 -58
52 103 21 230 -76 310 -76 61 -156 84 -259 73z"/>
<path d="M3130 10956 c-241 -101 -473 -273 -863 -640 -127 -120 -441 -449
-593 -621 -43 -49 -90 -101 -103 -115 -35 -37 -354 -419 -449 -537 -46 -57
-87 -103 -93 -103 -5 0 -90 69 -187 152 -233 201 -238 206 -295 258 l-48 45
25 278 c14 152 26 282 26 287 0 18 -24 11 -109 -30 l-83 -40 7 -43 c7 -42 82
-377 110 -492 11 -44 15 -120 15 -281 l0 -221 44 -56 c147 -189 262 -460 371
-874 42 -158 56 -196 62 -170 14 57 108 331 153 445 117 297 334 672 537 932
348 446 765 831 1238 1146 158 106 262 169 368 224 44 23 57 35 53 48 -3 9
-21 67 -39 127 -19 61 -44 154 -57 208 -12 53 -25 97 -28 97 -4 -1 -32 -11
-62 -24z"/>
<path d="M3325 10176 c-268 -141 -447 -251 -655 -405 -723 -536 -1209 -1252
-1424 -2098 -15 -57 -37 -159 -51 -227 -22 -112 -24 -132 -14 -208 18 -138 -1
-330 -47 -463 -16 -47 -58 -119 -105 -177 l-22 -26 25 -44 c57 -100 69 -119
94 -158 15 -22 29 -40 32 -40 19 0 103 38 137 61 167 113 265 361 265 669 0
499 183 1053 498 1509 180 261 286 387 527 626 262 261 652 568 936 737 39 23
73 47 76 53 2 7 -20 50 -50 96 -30 46 -61 99 -71 117 -9 18 -24 32 -34 31 -9
0 -62 -24 -117 -53z"/>
<path d="M3814 9558 c-510 -277 -954 -644 -1276 -1055 -163 -208 -270 -375
-388 -608 -47 -93 -99 -201 -114 -240 -92 -229 -138 -374 -203 -635 l-38 -155
3 -189 c3 -218 -8 -323 -43 -426 -48 -140 -110 -220 -217 -279 l-69 -38 73
-73 c104 -104 105 -104 184 -91 186 33 316 153 388 361 37 105 46 164 56 385
22 436 100 753 277 1115 75 153 160 298 245 420 23 34 50 71 58 83 8 12 41 56
74 97 345 431 782 818 1279 1130 64 40 117 77 117 80 0 3 -19 17 -42 30 -23
13 -71 44 -106 69 -35 25 -79 56 -97 68 l-32 21 -129 -70z"/>
<path d="M7495 9510 c-71 -4 -160 -10 -197 -14 l-68 -8 31 -51 c53 -89 158
-313 194 -414 200 -551 243 -1242 125 -2013 -68 -445 -221 -1036 -356 -1378
-14 -35 -23 -66 -21 -68 9 -10 267 521 359 741 109 260 241 637 303 865 47
172 105 458 127 628 33 243 32 664 0 867 -25 154 -66 312 -119 450 -64 167
-204 408 -236 403 -7 0 -70 -4 -142 -8z"/>
<path d="M8406 9402 c-83 -165 -154 -380 -206 -621 -31 -147 -74 -487 -68
-543 l4 -33 12 45 c102 364 211 620 355 835 56 84 171 219 226 265 29 25 42
43 36 48 -9 9 -286 72 -312 72 -7 0 -28 -31 -47 -68z"/>
<path d="M6730 9421 c-135 -25 -250 -53 -250 -63 0 -4 26 -47 58 -95 219 -330
364 -790 411 -1303 14 -148 14 -559 1 -726 -46 -555 -164 -1113 -360 -1691
-38 -112 -67 -203 -65 -203 12 0 245 484 340 705 247 577 412 1169 457 1640
16 167 15 508 -1 650 -35 314 -146 641 -293 867 -55 83 -183 239 -196 237 -4
-1 -50 -9 -102 -18z"/>
<path d="M4294 9258 c-118 -121 -171 -193 -235 -320 -77 -152 -138 -362 -160
-553 -16 -130 -16 -438 0 -585 20 -192 17 -183 68 -210 153 -81 278 -337 444
-905 17 -60 35 -114 39 -118 25 -28 18 363 -10 563 -16 114 -66 282 -122 405
-159 352 -166 782 -19 1149 65 162 193 355 325 494 34 35 59 67 57 70 -3 4
-52 23 -110 43 -58 19 -116 41 -128 47 -12 7 -30 12 -40 12 -10 0 -59 -42
-109 -92z"/>
<path d="M6010 9233 c-69 -25 -142 -48 -162 -50 -21 -3 -38 -9 -38 -14 0 -5
25 -59 55 -119 221 -440 331 -1051 297 -1652 -35 -631 -150 -1209 -372 -1866
-33 -97 -58 -178 -56 -180 5 -4 233 456 269 543 14 33 44 103 66 155 242 554
414 1174 461 1665 13 135 13 473 -1 593 -28 260 -96 506 -198 715 -77 160
-139 251 -172 254 -13 0 -80 -19 -149 -44z"/>
<path d="M9109 9196 c-261 -148 -489 -392 -692 -738 -103 -174 -239 -463 -272
-578 -10 -34 -11 -35 99 128 346 515 741 822 1125 873 83 11 285 7 326 -7 18
-6 -92 109 -142 148 -101 78 -332 219 -359 218 -5 0 -43 -20 -85 -44z"/>
<path d="M4850 9063 c-165 -229 -302 -485 -369 -688 -49 -152 -76 -326 -68
-443 11 -164 45 -264 154 -447 29 -49 60 -120 78 -180 29 -98 30 -105 30 -310
-1 -190 -3 -223 -28 -340 -68 -323 -181 -638 -348 -969 -28 -54 -49 -100 -47
-102 4 -3 94 92 253 266 109 118 252 299 312 395 39 62 70 134 84 194 36 158
29 611 -17 1150 -24 286 -25 332 -20 716 3 226 10 464 15 530 6 66 13 155 17
198 4 46 3 77 -3 77 -5 0 -25 -21 -43 -47z"/>
<path d="M5412 8936 c-61 -122 -116 -304 -140 -460 -23 -151 -22 -485 2 -656
17 -122 74 -387 96 -445 20 -53 78 -289 89 -363 21 -139 24 -272 8 -377 -42
-272 -153 -450 -541 -870 -61 -66 -130 -140 -152 -165 -23 -25 -62 -67 -87
-95 -26 -27 -45 -51 -42 -53 2 -2 59 29 127 69 624 367 951 716 1074 1144 27
92 29 113 29 270 0 202 -7 237 -80 401 -289 641 -394 1150 -334 1618 6 43 8
80 6 82 -2 3 -27 -42 -55 -100z"/>
<path d="M3721 8693 c-46 -9 -179 -62 -238 -94 -282 -158 -538 -460 -758 -898
-57 -113 -135 -298 -135 -318 0 -5 19 23 41 62 106 181 287 387 424 483 211
147 409 222 698 267 35 6 37 8 30 33 -16 54 -6 313 15 395 l19 77 -36 -1 c-20
-1 -47 -4 -60 -6z"/>
<path d="M9400 8650 c-56 -12 -183 -73 -277 -133 -273 -175 -557 -543 -763
-987 -61 -133 -121 -282 -116 -288 3 -2 35 42 73 98 157 235 239 337 392 491
169 168 330 281 503 352 273 113 557 108 808 -12 59 -28 80 -34 80 -24 0 57
-69 252 -134 381 -25 50 -28 52 -98 73 -147 43 -377 67 -468 49z"/>
<path d="M10301 8259 c-28 -56 -51 -107 -51 -114 0 -7 16 -24 34 -39 l35 -26
37 67 c21 38 46 81 57 96 l19 29 -29 41 c-17 23 -35 43 -40 44 -6 2 -33 -42
-62 -98z"/>
<path d="M10453 8118 c-14 -24 -37 -59 -50 -79 -28 -43 -28 -42 0 -84 l24 -35
51 74 51 73 -17 46 c-9 26 -20 47 -24 47 -4 0 -20 -19 -35 -42z"/>
<path d="M9390 7986 c-353 -124 -712 -523 -980 -1090 -67 -141 -134 -305 -128
-311 2 -2 29 34 59 81 163 255 352 479 530 628 210 177 416 278 644 317 95 16
280 6 375 -21 59 -17 217 -81 239 -97 5 -3 -11 -45 -82 -213 -416 -997 -1003
-1720 -1652 -2035 -148 -72 -316 -130 -423 -147 l-74 -12 7 -60 c12 -116 12
-116 55 -116 113 0 320 46 472 106 686 268 1281 1065 1646 2204 99 308 96 290
88 447 -10 198 -10 198 -59 219 -278 113 -566 153 -717 100z"/>
<path d="M3340 7694 c-447 -132 -782 -512 -965 -1094 -53 -169 -72 -289 -31
-199 61 137 199 323 332 450 222 210 548 370 878 430 l126 23 0 36 c0 72 -39
161 -118 275 -82 117 -87 119 -222 79z"/>
<path d="M10594 7361 c-134 -82 -261 -434 -353 -981 -16 -96 -33 -204 -36
-240 l-7 -65 34 46 c45 62 86 108 127 142 40 33 61 23 61 -28 0 -44 -40 -193
-93 -347 -24 -71 -40 -128 -36 -128 20 0 103 121 171 248 22 43 49 86 59 97
19 19 19 19 19 -17 0 -44 -39 -274 -81 -477 -16 -79 -28 -146 -25 -148 2 -2
15 10 29 26 62 74 128 318 177 652 16 110 34 207 41 215 31 38 61 -42 75 -203
4 -40 10 -73 14 -73 22 0 39 780 20 966 -14 146 -48 275 -81 310 -28 29 -72
31 -115 5z"/>
<path d="M9592 7340 c-163 -66 -480 -282 -826 -561 -44 -36 -130 -105 -191
-154 -91 -74 -501 -424 -634 -542 -45 -40 -30 -42 30 -5 160 102 458 245 610
293 84 27 121 34 191 34 78 0 89 -2 112 -24 32 -30 33 -63 5 -128 -60 -142
-331 -469 -707 -853 -110 -113 -198 -207 -196 -209 9 -9 259 115 384 191 592
358 1065 901 1306 1496 48 119 85 264 91 363 5 79 4 88 -16 108 -29 29 -71 26
-159 -9z"/>
<path d="M3680 6893 c-83 -14 -300 -87 -435 -147 -172 -77 -530 -263 -575
-299 -14 -11 -18 -17 -10 -14 8 3 56 22 105 42 220 88 496 173 635 196 98 16
226 16 272 1 50 -18 111 -87 137 -157 48 -129 54 -372 15 -642 -23 -163 112
213 141 392 32 193 13 438 -42 551 -21 42 -35 57 -65 69 -36 14 -119 18 -178
8z"/>
<path d="M9878 6342 c-420 -859 -960 -1445 -1544 -1678 -101 -40 -300 -94
-346 -94 l-31 0 6 -67 c4 -38 7 -79 7 -92 0 -24 1 -24 76 -17 272 25 598 153
834 329 142 106 153 119 218 249 101 205 204 355 355 520 45 49 108 128 140
176 58 89 201 367 258 502 41 99 132 360 127 365 -2 2 -47 -85 -100 -193z"/>
<path d="M3235 6356 c-153 -36 -465 -172 -710 -311 -22 -13 -58 -33 -80 -45
-103 -57 -194 -115 -186 -118 5 -2 27 6 48 16 84 43 285 120 449 173 167 53
302 81 409 83 81 1 94 -2 136 -26 60 -35 103 -102 131 -204 18 -68 21 -107 22
-274 1 -107 -3 -229 -7 -270 -11 -98 2 -85 49 50 75 219 109 466 85 631 -15
107 -55 228 -90 269 -28 34 -30 35 -112 37 -46 1 -111 -4 -144 -11z"/>
<path d="M2845 5755 c-81 -14 -221 -58 -350 -108 -165 -64 -403 -178 -320
-153 459 136 745 155 842 54 43 -44 88 -146 104 -238 9 -46 14 -147 14 -262 0
-216 4 -218 58 -20 31 112 32 125 32 297 -1 169 -3 185 -29 265 -41 125 -64
156 -126 169 -64 14 -136 13 -225 -4z"/>
<path d="M2286 5213 c-13 -175 27 -329 106 -410 57 -59 128 -84 233 -84 83 -1
233 29 283 55 25 13 26 15 7 21 -82 27 -214 89 -290 134 -158 95 -252 192
-296 304 -11 29 -24 56 -28 60 -5 5 -11 -31 -15 -80z"/>
<path d="M3567 5228 c-13 -18 -43 -66 -67 -106 l-43 -73 69 -145 c43 -92 73
-143 80 -140 10 4 226 138 404 251 76 49 161 102 219 138 34 20 61 41 61 46 0
5 -39 12 -87 15 -49 4 -190 16 -315 27 -303 25 -292 26 -321 -13z"/>
<path d="M1935 4813 c7 -91 41 -268 61 -325 8 -22 14 -58 14 -79 0 -36 2 -38
54 -58 97 -36 518 -100 586 -89 21 3 14 10 -45 39 -263 132 -484 323 -635 551
-14 21 -29 38 -33 38 -5 0 -6 -35 -2 -77z"/>
<path d="M4315 4853 c-233 -140 -547 -293 -600 -293 -23 0 -18 -21 29 -122 97
-204 116 -246 116 -255 0 -6 6 -15 13 -21 14 -12 22 -3 143 168 80 113 353
525 360 545 8 20 9 20 -61 -22z"/>
<path d="M9391 4760 c-46 -152 -146 -288 -280 -379 -33 -23 -62 -45 -66 -51
-6 -10 144 40 287 96 121 47 278 122 278 133 0 5 -16 28 -36 52 -20 24 -63 85
-96 136 -34 51 -61 93 -62 93 -1 0 -12 -36 -25 -80z"/>
<path d="M8800 4389 c-104 -74 -223 -139 -351 -195 -132 -57 -335 -114 -408
-114 l-29 0 5 -87 c3 -49 7 -90 9 -92 8 -9 218 21 315 45 158 38 360 120 455
185 l41 28 28 133 c15 73 30 139 32 146 9 21 -10 12 -97 -49z"/>
<path d="M9750 4315 c-89 -68 -327 -146 -519 -171 -81 -10 -45 -21 129 -39
257 -25 557 -17 642 18 l29 12 -115 108 c-63 59 -116 107 -118 106 -2 0 -23
-16 -48 -34z"/>
<path d="M4319 4243 c-131 -113 -234 -195 -301 -242 -27 -17 -48 -35 -48 -39
0 -11 61 -153 117 -272 l50 -105 17 33 c24 47 219 530 273 676 7 21 12 40 10
43 -3 2 -56 -40 -118 -94z"/>
<path d="M1996 3959 c-3 -13 -7 -75 -11 -136 l-5 -113 28 0 c118 0 343 55 456
112 77 39 164 98 196 133 l25 28 -38 -7 c-89 -16 -277 -36 -342 -36 -64 0
-230 21 -282 36 -18 5 -23 1 -27 -17z"/>
<path d="M8713 3755 c-181 -122 -432 -220 -664 -259 -43 -8 -46 -14 -45 -111
l1 -70 60 3 c94 4 269 40 390 79 129 42 292 120 310 148 17 26 26 245 11 245
-6 0 -34 -16 -63 -35z"/>
<path d="M2555 3584 c-91 -55 -304 -108 -517 -129 -65 -7 -66 -8 -72 -39 -8
-47 -12 -304 -4 -311 17 -17 239 67 353 133 135 79 259 216 299 330 14 39 14
42 -2 41 -9 0 -35 -12 -57 -25z"/>
<path d="M4784 1175 c-59 -63 -107 -221 -129 -434 l-7 -64 43 7 c99 16 191 25
314 31 72 3 162 8 201 11 l72 6 25 56 c50 112 44 198 -17 282 -68 93 -191 140
-364 140 l-105 0 -33 -35z"/>
<path d="M9090 977 c-44 -38 -78 -92 -111 -173 -34 -87 -76 -246 -81 -309 -3
-35 -1 -40 17 -36 11 2 183 6 383 8 l363 5 24 36 c26 40 58 124 69 185 15 78
-36 143 -149 189 -93 39 -418 119 -474 118 -9 -1 -27 -11 -41 -23z"/>
<path d="M1245 753 c-50 -37 -83 -80 -124 -161 -33 -65 -91 -272 -91 -324 0
-29 2 -30 33 -24 17 3 191 9 385 12 l353 7 26 44 c32 54 63 153 63 199 0 104
-92 162 -365 230 -207 51 -231 52 -280 17z"/>
<path d="M7305 543 c-37 -9 -77 -57 -112 -131 -32 -69 -82 -245 -97 -341 l-7
-44 83 8 c46 4 184 7 308 6 124 0 230 3 236 7 19 12 62 104 74 155 31 143 -68
269 -250 320 -59 17 -202 29 -235 20z"/>
</g>
</svg>
