<?xml version="1.0" standalone="no"?>
<!DOCTYPE svg PUBLIC "-//W3C//DTD SVG 20010904//EN"
 "http://www.w3.org/TR/2001/REC-SVG-20010904/DTD/svg10.dtd">
<svg version="1.0" xmlns="http://www.w3.org/2000/svg"
 width="286.000000pt" height="478.000000pt" viewBox="0 0 286.000000 478.000000"
 preserveAspectRatio="xMidYMid meet">
<metadata>
Created by potrace 1.15, written by Peter Selinger 2001-2017
</metadata>
<g transform="translate(0.000000,478.000000) scale(0.100000,-0.100000)"
fill="#000000" stroke="none">
<path d="M1736 4766 c137 -32 255 -122 254 -193 -1 -10 -7 -1 -15 20 -19 55
-49 83 -130 123 -125 61 -285 65 -488 10 -49 -13 -84 -19 -79 -14 4 4 51 19
103 33 52 13 85 24 75 25 -46 1 -181 -45 -253 -87 -117 -67 -189 -102 -231
-113 l-37 -10 45 4 45 4 -40 -13 c-50 -17 -82 -18 -91 -4 -4 8 1 9 17 4 19 -5
21 -4 9 4 -21 15 -53 14 -45 -1 4 -7 -7 2 -24 20 -17 18 -31 41 -31 52 0 31
-24 24 -70 -22 -45 -45 -81 -106 -79 -135 0 -12 3 -10 8 7 15 47 39 85 82 125
l43 40 -43 -48 c-56 -64 -74 -108 -73 -184 1 -34 -2 -64 -7 -67 -4 -3 -7 7 -6
22 2 15 1 20 -2 12 -2 -10 -30 -23 -72 -33 -159 -41 -297 -166 -338 -306 -19
-67 -9 -110 47 -192 63 -92 81 -136 78 -182 -3 -40 -6 -43 -54 -67 -28 -14
-72 -34 -99 -44 -93 -37 -175 -135 -175 -211 0 -43 12 -66 68 -129 19 -21 42
-57 53 -80 10 -22 19 -34 19 -25 0 17 -41 80 -95 147 -28 34 -35 52 -35 85 0
58 53 143 105 169 11 6 4 -4 -17 -21 -42 -36 -78 -104 -78 -148 0 -31 28 -79
87 -148 43 -50 51 -80 28 -105 -10 -11 -23 -20 -28 -20 -6 0 -3 6 6 13 15 10
8 12 -40 12 -32 0 -70 4 -85 9 l-28 8 0 -51 c0 -66 36 -108 136 -157 68 -34
78 -36 140 -31 40 3 61 1 53 -4 -8 -5 -39 -9 -69 -9 -94 0 -234 81 -266 155
-7 16 -13 24 -14 16 0 -27 45 -82 95 -115 77 -51 135 -69 204 -64 l59 4 6 -39
c6 -37 41 -117 51 -117 3 0 -4 19 -16 41 -22 44 -38 149 -23 149 5 0 9 -21 10
-48 1 -40 11 -70 52 -156 3 -5 -2 -5 -9 -1 -8 5 -10 4 -6 0 19 -21 45 -9 116
51 76 66 277 204 381 262 61 35 174 74 205 71 11 -1 25 -1 32 0 18 2 73 51 73
66 0 7 -46 39 -102 71 -72 40 -125 79 -174 129 -84 83 -104 132 -104 257 0 69
-2 78 -18 78 -20 0 -42 21 -61 57 -10 19 -7 24 27 44 20 13 83 67 139 120 62
59 118 103 146 115 l44 18 -54 25 -54 26 31 37 c17 21 44 47 60 58 28 20 34
21 104 9 126 -20 268 22 389 115 52 40 61 40 71 0 25 -97 213 -264 318 -280
34 -6 39 -11 52 -53 8 -25 18 -64 22 -85 l7 -39 -47 6 c-26 4 -46 3 -44 -1 59
-116 69 -187 44 -295 -18 -79 -20 -121 -6 -147 8 -16 5 -19 -18 -25 -21 -4
-34 -18 -50 -49 -46 -97 -127 -154 -268 -191 -83 -22 -96 -31 -70 -51 14 -10
48 -14 115 -14 149 -1 197 -31 299 -190 100 -155 196 -305 199 -309 2 -3 20 3
41 13 l37 17 -25 -20 c-37 -30 -12 -25 27 5 47 35 73 82 72 124 l-2 35 -6 -40
c-8 -46 -23 -76 -47 -96 -12 -9 -10 -3 5 17 26 36 41 124 22 124 -7 0 -9 5 -5
11 5 8 1 8 -14 0 -27 -14 -65 -14 -80 1 -9 9 -12 9 -12 0 0 -6 8 -16 18 -21 9
-6 12 -11 5 -11 -17 0 -43 41 -43 69 0 35 45 106 83 132 30 20 30 20 -6 -15
-38 -36 -68 -91 -66 -123 0 -10 7 3 15 28 21 68 71 108 183 148 51 17 110 42
130 55 136 87 184 225 126 368 -15 37 -22 70 -19 84 6 22 11 24 65 24 70 0 75
11 29 63 -16 19 -27 37 -24 40 10 10 -50 35 -136 57 -46 12 -97 28 -113 36
-16 9 -31 13 -34 10 -3 -2 12 -14 34 -25 21 -11 33 -20 27 -21 -23 0 -80 47
-96 80 -23 46 -22 106 3 210 32 135 38 184 29 249 -13 90 -54 172 -116 231
-66 62 -137 96 -252 120 -74 15 -82 18 -52 22 l35 5 -31 1 c-25 2 -34 8 -44
32 -30 74 -163 155 -270 166 -39 4 -37 2 16 -10z"/>
<path d="M1606 4165 c-13 -20 -25 -25 -57 -25 l-40 0 21 -30 c19 -27 20 -31 6
-65 -8 -19 -14 -35 -12 -35 2 0 17 5 34 11 27 9 36 8 61 -10 l29 -21 6 36 c5
24 16 41 37 53 l31 19 -37 12 c-28 9 -37 18 -42 41 -8 40 -18 44 -37 14z"/>
<path d="M985 3804 c16 -25 16 -25 -4 -14 -28 15 -28 -3 1 -32 16 -16 17 -20
5 -15 -21 8 -23 -9 -3 -20 8 -4 16 -19 18 -33 4 -23 5 -23 12 -5 21 55 37 85
46 85 6 0 6 -9 -1 -27 -26 -68 21 -145 98 -159 47 -9 82 10 105 55 l17 34 7
-28 c4 -15 2 -47 -3 -72 -8 -31 -7 -43 1 -40 13 4 24 41 25 86 2 52 -45 128
-98 159 -39 22 -57 27 -123 27 -48 0 -82 5 -89 13 -23 22 -32 13 -14 -14z"/>
<path d="M1736 3636 c-72 -27 -126 -98 -126 -166 0 -16 5 -30 10 -30 6 0 10
11 10 25 0 14 7 42 16 63 l17 37 9 -39 c11 -51 22 -63 66 -76 54 -14 108 3
132 43 25 40 25 46 0 40 -15 -4 -20 0 -20 16 0 14 6 21 20 21 11 0 20 -5 20
-12 0 -6 3 -9 6 -6 3 4 1 17 -6 30 -11 23 -11 23 10 -2 17 -19 21 -33 17 -62
-3 -21 -1 -38 4 -38 5 0 9 7 9 15 0 9 9 15 25 15 25 0 37 20 13 20 -7 1 1 8
17 17 25 14 27 18 12 21 -17 4 -18 5 -2 22 17 18 16 19 -17 14 -24 -4 -47 0
-76 15 -56 28 -118 35 -166 17z"/>
<path d="M1074 2861 c-49 -22 -51 -26 -80 -109 -13 -35 -31 -81 -42 -102 -24
-48 -19 -78 34 -246 36 -112 37 -114 73 -124 103 -27 256 -42 431 -43 201 0
306 15 388 54 l45 22 -6 101 c-19 295 -40 430 -70 451 -48 33 -158 10 -234
-49 -40 -31 -93 -90 -112 -125 -6 -10 -25 3 -72 50 -120 120 -258 166 -355
120z"/>
<path d="M966 997 c-19 -12 -238 -157 -244 -162 -1 -1 -7 -67 -12 -146 -14
-190 -25 -241 -72 -322 -117 -201 -118 -286 -4 -338 23 -10 35 -19 28 -19 -24
0 -69 29 -97 62 -24 29 -27 38 -23 90 3 40 14 76 38 120 96 180 99 186 109
308 15 164 18 251 9 237 -4 -6 -8 -42 -8 -79 0 -37 -5 -114 -11 -170 -10 -107
-16 -123 -109 -296 -62 -116 -50 -210 35 -262 27 -17 42 -20 72 -14 21 4 32 9
26 11 -20 7 -16 22 46 185 84 221 115 320 166 532 25 103 54 208 64 232 21 46
19 51 -13 31z"/>
<path d="M1011 908 c-16 -51 -37 -131 -46 -178 -10 -47 -39 -159 -66 -249 -27
-90 -65 -225 -85 -300 -20 -75 -40 -143 -45 -152 -7 -14 1 -17 64 -22 83 -6
108 4 155 57 32 37 36 53 46 225 3 46 3 81 0 78 -3 -3 -9 -63 -14 -133 -9
-135 -18 -160 -70 -192 -16 -10 -13 -5 8 14 39 34 51 78 52 184 0 93 19 169
64 257 18 38 46 102 61 144 l27 76 -53 141 c-29 78 -56 142 -60 142 -5 0 -21
-42 -38 -92z"/>
<path d="M2035 923 c-67 -86 -159 -234 -158 -255 1 -11 -3 -16 -9 -12 -7 4 3
-17 21 -47 17 -30 47 -84 66 -121 20 -38 38 -68 40 -68 7 0 -39 92 -82 163
-19 32 -33 60 -30 63 7 7 147 -249 160 -292 8 -26 6 -48 -8 -99 -20 -74 -16
-107 20 -189 13 -29 22 -55 20 -57 -2 -2 29 -4 68 -4 l72 0 17 44 c10 24 22
49 28 55 8 8 9 6 5 -6 -5 -12 -2 -18 8 -18 8 0 30 -17 49 -37 l33 -38 185 5
c102 3 191 9 198 13 6 5 12 6 12 2 0 -3 -10 -10 -22 -15 -16 -6 -18 -9 -7 -9
23 -1 69 37 68 57 0 12 -3 11 -9 -5 -12 -29 -24 -30 -15 -2 5 13 3 19 -3 15
-17 -10 -133 31 -201 71 -35 21 -95 71 -135 114 -117 125 -197 286 -288 586
-24 79 -46 143 -50 143 -4 0 -28 -26 -53 -57z"/>
<path d="M2150 966 c0 -14 52 -193 87 -301 101 -309 252 -489 449 -536 27 -6
57 -21 68 -33 l19 -21 -7 25 c-7 24 -6 24 8 6 9 -11 16 -15 16 -10 0 23 -91
95 -166 132 -81 41 -128 82 -180 162 -31 47 -45 55 -16 8 50 -78 118 -146 174
-174 32 -15 56 -29 54 -31 -2 -3 -30 9 -61 24 -72 37 -160 138 -215 248 -48
97 -114 274 -140 373 -10 41 -20 74 -22 75 -2 1 -18 15 -36 31 -17 17 -32 26
-32 22z"/>
</g>
</svg>
