<?xml version="1.0" standalone="no"?>
<!DOCTYPE svg PUBLIC "-//W3C//DTD SVG 20010904//EN"
 "http://www.w3.org/TR/2001/REC-SVG-20010904/DTD/svg10.dtd">
<svg version="1.0" xmlns="http://www.w3.org/2000/svg"
 width="600.000000pt" height="244.000000pt" viewBox="0 0 600.000000 244.000000"
 preserveAspectRatio="xMidYMid meet">
<metadata>
Created by potrace 1.15, written by Peter Selinger 2001-2017
</metadata>
<g transform="translate(0.000000,244.000000) scale(0.100000,-0.100000)"
fill="#000000" stroke="none">
<path d="M5627 2433 c-10 -3 -16 -11 -13 -18 2 -7 -2 -21 -9 -32 -8 -10 -15
-14 -15 -10 0 4 -6 2 -14 -5 -8 -7 -11 -17 -8 -22 3 -5 0 -6 -6 -2 -6 4 -9 13
-6 21 3 7 -3 18 -15 24 -31 17 -35 13 -16 -15 9 -14 15 -27 13 -29 -2 -2 -21
0 -43 5 -22 5 -48 10 -58 10 -28 0 -11 -17 23 -24 17 -3 29 -10 26 -15 -3 -5
-14 -7 -24 -4 -10 2 -38 -3 -62 -11 -25 -9 -52 -16 -61 -16 -9 0 -23 -7 -30
-16 -12 -15 -11 -16 9 -10 24 8 29 -3 10 -22 -24 -24 13 -13 56 17 24 17 56
33 72 37 l29 7 -37 -41 c-21 -23 -38 -47 -38 -52 0 -5 -16 -33 -36 -60 -20
-28 -34 -53 -32 -56 7 -7 38 7 38 17 0 5 14 9 31 9 l30 0 -20 -27 c-25 -30
-20 -44 7 -20 24 22 30 21 35 -5 3 -21 4 -22 12 -4 5 11 4 25 -2 35 -19 31 13
84 54 88 19 2 21 -1 15 -40 -5 -37 -3 -41 10 -29 9 7 18 22 21 33 5 17 3 18
-10 7 -15 -12 -15 -11 -2 9 8 14 16 18 20 11 4 -6 11 -8 16 -5 6 4 8 -4 6 -17
-5 -25 11 -44 22 -26 3 5 0 10 -7 10 -10 0 -11 2 0 8 10 7 8 14 -7 33 -19 24
-19 26 -2 36 14 9 22 9 32 0 10 -10 10 -9 0 6 -17 22 -7 34 14 17 13 -11 14
-10 9 4 -3 9 -10 16 -16 16 -5 0 -6 5 -3 10 4 6 1 17 -5 25 -15 18 -3 31 62
65 45 24 47 24 67 6 11 -10 24 -15 29 -12 5 3 9 -1 9 -9 0 -9 -10 -15 -22 -15
-12 0 -29 -8 -38 -18 -16 -17 -15 -18 18 -14 34 4 43 -4 27 -23 -5 -6 -14 -23
-20 -38 -10 -23 -10 -27 0 -21 33 18 48 38 42 56 -3 10 0 18 6 18 6 0 8 -4 5
-10 -3 -5 -1 -10 6 -10 7 0 9 -10 7 -25 -3 -14 1 -30 8 -36 11 -9 14 -6 14 19
0 39 17 51 29 20 8 -19 10 -20 10 -4 1 14 6 17 26 12 14 -4 25 -2 25 3 0 13
-26 32 -34 24 -4 -4 -4 0 0 10 3 10 1 17 -5 17 -6 0 -11 -5 -11 -11 0 -5 -5
-7 -10 -4 -7 4 -6 13 1 26 10 19 8 20 -20 16 -17 -3 -29 -1 -26 4 4 5 1 17 -4
26 -10 17 -10 17 -11 -1 0 -18 -1 -18 -18 -3 -21 19 -37 22 -26 5 5 -7 3 -8
-5 -3 -10 5 -10 10 -1 19 7 7 47 10 111 9 78 -1 99 1 99 12 0 10 -22 15 -87
18 -49 2 -126 6 -173 9 -47 3 -93 3 -103 1z"/>
<path d="M5947 1783 c-16 -8 -63 -18 -104 -22 -74 -7 -78 -9 -115 -50 -21 -24
-35 -47 -32 -53 3 -5 1 -15 -6 -22 -17 -21 -30 -75 -19 -81 5 -4 9 1 9 9 0 10
6 13 15 10 11 -4 13 -2 10 9 -4 9 5 24 23 38 16 13 37 39 47 57 13 28 21 33
38 27 12 -3 40 -9 62 -12 55 -7 109 29 113 75 4 35 0 37 -41 15z"/>
<path d="M4512 1714 c12 -20 27 -38 35 -41 24 -9 13 -23 -14 -17 -16 3 -45 -2
-65 -10 -43 -18 -50 -31 -13 -24 14 3 22 1 18 -5 -3 -6 8 -8 31 -5 20 2 36 3
36 2 0 -2 -23 -27 -51 -56 -28 -29 -46 -54 -40 -56 16 -5 101 36 101 49 0 6
-7 9 -15 5 -22 -8 -18 2 6 15 13 6 19 7 15 1 -3 -6 -2 -12 3 -14 6 -2 7 -17 2
-38 -4 -20 -5 -44 -1 -55 6 -18 9 -16 29 15 21 35 32 112 11 80 -11 -17 -13
-1 -4 24 5 13 12 8 34 -21 64 -85 70 -90 70 -68 0 11 -9 40 -20 64 -24 52 -24
51 -4 51 8 0 12 5 9 10 -3 6 -19 10 -35 10 -27 0 -29 3 -28 35 1 20 -4 41 -12
48 -10 10 -11 6 -8 -19 5 -35 -16 -37 -27 -3 -7 22 -52 59 -71 59 -10 0 -7
-10 8 -36z"/>
<path d="M5335 1735 c-16 -8 -37 -19 -45 -24 -25 -15 -118 -51 -133 -51 -8 0
-20 -7 -27 -15 -11 -13 -8 -15 16 -15 16 0 43 7 59 16 103 57 125 64 145 52
13 -8 18 -19 14 -28 -4 -8 -6 -23 -6 -32 0 -10 -3 -20 -9 -23 -19 -12 -9 -26
11 -15 11 6 18 15 15 20 -3 5 5 10 17 12 13 2 23 8 23 15 0 22 16 27 21 6 3
-12 13 -24 20 -27 12 -5 14 2 11 33 -2 22 -9 47 -16 55 -12 14 -16 14 -40 -5
-23 -18 -26 -19 -29 -4 -2 9 2 22 8 30 10 12 9 15 -6 15 -11 -1 -32 -7 -49
-15z"/>
<path d="M3918 1703 c6 -2 10 -8 7 -12 -2 -4 9 -23 26 -42 l31 -34 -22 35 -22
35 26 -28 c28 -31 28 -42 -4 -50 -11 -3 -18 -1 -14 4 9 14 -34 10 -66 -6 -38
-20 -38 -28 -1 -23 17 2 28 1 25 -3 -2 -4 10 -9 28 -11 l33 -3 -27 -15 c-15
-8 -40 -34 -57 -57 -31 -42 -31 -42 -6 -33 45 17 81 38 96 56 11 14 6 13 -26
-5 -37 -21 -38 -21 -15 -2 14 12 32 26 42 31 14 8 16 6 12 -18 -13 -75 -15
-137 -5 -122 6 8 8 22 5 32 -2 9 0 19 5 23 7 4 8 -1 4 -12 -6 -16 -5 -16 10
-4 12 10 17 29 17 70 l1 56 16 -29 c8 -16 26 -41 39 -55 13 -14 24 -29 24 -33
0 -5 4 -8 9 -8 13 0 -7 82 -26 102 -18 20 -9 40 14 31 11 -4 14 -3 9 5 -9 15
-49 15 -64 0 -17 -17 -25 -3 -12 22 7 13 8 34 4 53 l-7 32 -13 -30 -12 -30
-11 27 c-9 24 -57 59 -78 57 -4 0 -2 -3 5 -6z"/>
<path d="M5625 1543 c-11 -8 -18 -20 -16 -26 2 -7 3 -26 3 -44 -2 -41 15 -51
29 -19 10 21 16 24 43 19 41 -8 43 -11 14 -22 -28 -10 -54 -39 -44 -48 3 -3 6
-1 6 6 0 7 5 9 10 6 6 -4 17 -2 25 5 8 7 15 7 19 1 4 -5 2 -12 -4 -16 -5 -3
-10 -23 -10 -43 l0 -37 20 30 c11 17 18 38 16 48 -3 14 -2 16 9 7 21 -17 29 6
11 32 -9 12 -16 29 -16 38 -1 20 -47 76 -56 67 -4 -3 -14 -2 -23 2 -11 6 -23
4 -36 -6z"/>
<path d="M1110 1316 c-41 -178 -13 -285 93 -346 29 -17 71 -35 95 -41 l42 -11
0 -145 0 -144 41 3 41 3 -1 138 c-2 161 1 164 81 93 47 -43 137 -86 178 -86
17 0 20 -7 20 -50 0 -27 -4 -50 -9 -50 -6 0 -13 -21 -17 -46 -3 -25 -13 -48
-20 -51 -8 -3 -35 2 -61 11 -87 30 -206 17 -278 -30 -34 -22 -26 -28 16 -10
46 18 121 28 138 17 10 -6 -3 -14 -45 -27 l-59 -18 71 -6 c67 -6 87 -13 191
-69 59 -32 173 -31 173 2 0 6 -17 29 -37 50 l-38 40 33 -6 32 -6 0 119 0 120
43 0 c98 0 225 56 283 123 44 52 64 115 64 203 0 75 -29 249 -49 294 -9 19
-11 20 -8 4 4 -17 0 -20 -22 -18 -49 6 -591 5 -600 -1 -6 -3 -14 1 -18 10 -9
16 -19 -10 -61 -154 -17 -56 -20 -61 -26 -38 -3 15 -12 27 -20 27 -7 0 -31 14
-52 31 -22 17 -54 43 -73 57 -19 15 -40 33 -48 40 -7 8 -21 15 -29 16 -9 1
-22 13 -29 26 -12 22 -14 16 -35 -74z"/>
<path d="M757 1243 c-9 -68 -4 -99 25 -156 21 -43 92 -93 145 -103 l33 -6 0
-104 c0 -60 4 -104 10 -104 5 0 21 -17 35 -37 l25 -38 0 138 0 137 28 1 c16 1
20 3 10 6 -10 2 -18 11 -18 19 0 8 -4 13 -9 10 -5 -4 -24 12 -41 34 -17 22
-37 37 -42 34 -6 -4 -8 -3 -5 3 8 13 -67 86 -77 76 -4 -5 -6 -3 -4 2 4 14 -63
96 -73 89 -5 -3 -9 2 -9 11 0 9 -4 14 -9 10 -5 -3 -11 5 -13 17 -2 13 -7 -5
-11 -39z"/>
<path d="M2846 972 c-2 -4 -7 -24 -11 -45 -9 -47 13 -83 58 -95 22 -6 33 -15
35 -30 5 -30 22 -28 22 2 0 28 15 36 53 29 20 -4 27 -11 27 -29 0 -13 5 -24
10 -24 6 0 10 10 10 23 0 16 9 26 29 34 35 13 47 6 54 -27 l4 -25 2 26 c1 17
9 30 26 37 18 8 25 19 25 39 l0 28 -24 -27 c-12 -15 -26 -24 -30 -21 -4 4 -4
0 0 -10 5 -13 2 -16 -10 -11 -10 4 -14 13 -11 24 3 9 1 29 -5 44 l-10 27 -22
-21 c-39 -36 -58 -44 -58 -22 0 11 -5 32 -10 48 -10 29 -12 30 -85 31 -41 1
-77 -2 -79 -5z"/>
<path d="M336 905 c38 -87 37 -89 -63 -114 -100 -25 -157 -55 -225 -119 -32
-30 -48 -53 -48 -70 0 -24 0 -24 39 11 71 64 149 93 94 35 -45 -49 -87 -108
-75 -108 5 0 15 7 23 16 22 27 122 72 185 83 32 6 89 10 125 10 80 -1 146 24
202 79 20 20 37 39 37 43 0 11 -53 30 -105 37 -46 7 -51 10 -81 61 -38 66 -67
91 -105 91 l-28 0 25 -55z"/>
<path d="M4881 879 c-26 -76 -2 -136 64 -160 33 -12 35 -15 35 -61 0 -41 3
-48 20 -48 17 0 20 7 20 45 0 25 3 45 6 45 3 0 20 -11 37 -24 18 -13 42 -27
55 -31 12 -3 22 -14 22 -24 0 -16 -9 -18 -87 -16 -49 1 -101 -2 -118 -7 -28
-9 -154 -25 -255 -33 -25 -2 -52 -5 -60 -8 -8 -3 -53 -11 -100 -17 -47 -6
-114 -16 -150 -22 -36 -6 -85 -10 -110 -10 -25 0 -40 -1 -35 -3 156 -56 244
-76 364 -80 342 -14 626 -40 906 -81 149 -21 416 -72 483 -90 22 -6 22 -6 22
114 l0 120 -49 11 c-70 15 -461 67 -611 81 -150 15 -150 14 -150 38 0 15 9 21
40 25 51 7 85 29 110 70 22 36 25 74 10 145 l-11 49 -148 2 -147 2 -17 -41
-16 -41 -54 40 c-30 23 -56 41 -59 41 -4 0 -11 -14 -17 -31z"/>
<path d="M1139 413 c-1 -4 0 -20 1 -35 1 -26 -1 -27 -27 -22 -38 7 -103 -10
-137 -37 -32 -25 -27 -38 6 -15 12 9 32 16 43 16 17 -1 16 -3 -7 -16 -38 -20
-35 -25 15 -18 23 3 67 2 97 -3 89 -15 147 17 85 45 -16 8 -28 23 -32 42 -5
28 -41 62 -44 43z"/>
<path d="M3557 144 c5 -14 3 -15 -14 -5 -16 8 -24 7 -33 -4 -7 -8 -22 -15 -33
-15 -21 0 -21 0 -1 15 17 14 16 14 -13 0 -21 -10 -61 -15 -115 -15 -46 0 -137
-5 -203 -11 -66 -5 -219 -12 -341 -14 -121 -2 -240 -9 -265 -14 -24 -6 -81
-11 -126 -11 -69 0 -82 -3 -86 -17 -4 -17 -5 -17 -6 0 -1 16 -9 17 -78 12 -43
-3 -99 -8 -125 -11 -41 -4 -48 -2 -49 13 -1 12 -3 11 -8 -6 -6 -23 -7 -23 -24
-7 -16 16 -17 16 -29 -8 -6 -14 -15 -26 -20 -26 -4 0 -8 -4 -8 -10 0 -7 677
-10 2010 -10 l2010 0 0 75 0 76 -1215 -1 c-668 -1 -1219 1 -1225 5 -6 4 -7 -1
-3 -11z"/>
</g>
</svg>
