<?xml version="1.0" standalone="no"?>
<!DOCTYPE svg PUBLIC "-//W3C//DTD SVG 20010904//EN"
 "http://www.w3.org/TR/2001/REC-SVG-20010904/DTD/svg10.dtd">
<svg version="1.0" xmlns="http://www.w3.org/2000/svg"
 width="521.000000pt" height="368.000000pt" viewBox="0 0 521.000000 368.000000"
 preserveAspectRatio="xMidYMid meet">
<metadata>
Created by potrace 1.15, written by Peter Selinger 2001-2017
</metadata>
<g transform="translate(0.000000,368.000000) scale(0.100000,-0.100000)"
fill="#000000" stroke="none">
<path d="M5044 1066 c-9 -7 -26 -11 -36 -8 -21 5 -107 -56 -108 -76 0 -19 -40
-69 -40 -50 0 16 -41 58 -57 58 -6 0 -16 6 -22 13 -6 8 -21 13 -33 11 -13 -1
-49 -3 -81 -3 -55 -1 -57 -2 -45 -21 10 -16 10 -24 0 -41 -15 -24 -15 -24 14
-33 27 -8 56 21 34 34 -8 5 -11 12 -7 16 4 4 15 -3 26 -14 10 -12 25 -22 33
-22 20 0 37 -20 31 -36 -3 -8 -1 -14 5 -14 16 0 20 -101 8 -205 -9 -71 -15
-94 -21 -81 -5 11 -4 48 3 88 18 103 14 135 -8 68 l-18 -55 -1 88 c-1 80 -3
89 -21 94 -11 3 -20 9 -20 14 0 5 -5 9 -10 9 -6 0 -1 -13 11 -30 21 -28 22
-35 15 -164 -7 -153 -21 -217 -24 -115 -1 35 -6 78 -11 94 -9 30 -9 30 -11
-10 l-2 -40 -13 40 c-11 35 -13 37 -14 13 -1 -15 4 -49 10 -77 6 -27 9 -67 7
-88 -2 -24 -10 14 -22 102 -20 151 -39 213 -33 108 2 -35 0 -63 -5 -63 -4 0
-8 12 -9 28 -1 24 -2 22 -11 -11 -9 -34 -8 -40 16 -62 27 -25 31 -41 17 -64
-7 -11 -23 -13 -67 -8 l-58 6 29 -23 c25 -20 28 -30 31 -87 2 -35 1 -57 -3
-49 -11 26 -27 30 -48 10 -20 -19 -21 -19 -44 46 -13 36 -25 63 -28 60 -3 -3
2 -26 11 -52 9 -26 16 -51 16 -56 0 -15 -49 -40 -68 -33 -29 8 -45 55 -33 89
l11 27 -34 -26 c-18 -14 -40 -25 -49 -25 -8 0 -18 -6 -20 -12 -4 -10 -6 -10
-6 0 -1 6 -10 21 -21 32 -11 11 -20 33 -20 50 0 17 -4 30 -9 30 -5 0 -12 8
-14 18 -3 12 -5 10 -6 -7 -1 -23 -2 -24 -21 -6 -20 18 -20 18 -14 -16 3 -19
10 -50 15 -69 5 -19 8 -46 8 -60 -1 -30 -7 -6 -33 140 -23 125 -36 146 -29 45
5 -73 16 -152 44 -319 5 -32 7 -61 4 -64 -3 -3 -5 4 -5 16 0 18 -6 22 -29 22
-44 0 -57 -52 -22 -84 11 -10 19 -27 18 -38 -1 -16 -3 -17 -12 -4 -13 17 -47
16 -58 -1 -11 -18 -27 -16 -49 4 -17 15 -18 15 -13 1 4 -10 -2 -25 -15 -38
-30 -30 -17 -37 17 -10 26 20 28 20 40 4 10 -14 13 -14 13 -3 0 9 7 6 19 -10
17 -23 19 -23 44 -6 14 9 31 14 37 10 32 -20 99 -7 84 16 -3 5 -3 9 0 9 3 0
11 -12 19 -26 13 -24 15 -25 30 -10 14 14 20 15 39 4 31 -17 56 -18 69 -1 10
11 16 10 36 -9 21 -19 23 -20 17 -4 -5 14 -4 17 4 12 7 -4 12 -1 12 8 0 20 16
21 24 1 7 -18 36 -20 37 -2 0 6 4 3 9 -8 7 -17 9 -17 9 -3 1 18 21 20 32 4 4
-4 16 -5 28 -1 17 5 20 11 14 28 -4 12 -8 40 -8 62 -1 22 -5 59 -9 83 -9 48
-3 54 17 15 21 -41 32 -153 15 -153 -9 0 -9 -3 -2 -8 6 -4 13 -15 17 -25 6
-15 10 -16 27 -5 11 7 20 16 20 21 0 4 6 5 13 0 17 -11 50 -10 60 2 6 6 10 6
14 -2 7 -19 23 -16 23 5 1 15 2 15 15 -2 8 -11 15 -16 15 -10 0 5 38 9 85 9
47 0 85 -3 85 -7 0 -5 5 -8 11 -8 6 0 9 6 6 13 -3 7 3 13 13 13 10 0 16 -6 13
-13 -3 -7 0 -13 6 -13 6 0 11 4 11 8 0 5 22 6 48 2 27 -3 61 -3 75 1 20 5 30
3 37 -9 7 -13 9 -4 9 33 0 28 -3 44 -6 37 -2 -6 -10 -9 -16 -5 -7 4 -30 7 -52
8 -29 0 -40 4 -38 15 1 8 6 47 12 85 23 157 23 167 9 163 -7 -3 -14 -20 -16
-39 -5 -51 -21 -59 -19 -9 l2 43 -52 12 c-29 7 -50 8 -47 3 3 -4 11 -8 18 -8
32 0 59 -36 63 -84 3 -44 2 -47 -17 -41 -11 4 -20 2 -20 -4 0 -6 -10 -11 -21
-11 -21 0 -21 -3 -15 -69 6 -63 5 -69 -11 -67 -15 3 -18 13 -18 60 0 31 -3 56
-6 56 -3 0 -15 -9 -26 -20 -15 -13 -23 -16 -26 -7 -7 19 -14 6 -21 -38 -6 -36
-5 -38 8 -22 14 18 14 18 19 0 4 -17 5 -17 6 0 0 10 6 15 11 12 6 -4 8 -11 5
-16 -4 -5 -1 -9 5 -9 7 0 6 -5 -2 -14 -9 -10 -17 -11 -25 -4 -7 6 -13 6 -13 1
0 -5 -8 -9 -17 -10 -76 -6 -147 -15 -156 -20 -6 -4 -7 5 -4 23 34 168 35 178
21 199 -27 38 -11 82 36 98 11 3 7 8 -12 16 -24 9 -28 16 -28 51 0 22 3 39 8
38 13 -2 47 15 60 31 11 14 12 14 7 0 -4 -10 3 -22 18 -32 l25 -16 -11 30 c-8
21 -8 34 -1 46 16 26 32 26 57 0 23 -22 25 -23 36 -5 6 10 20 18 31 18 25 0
25 -2 54 144 16 77 21 126 16 140 -6 13 -9 15 -9 6 -1 -19 -80 -229 -80 -214
-1 6 10 44 24 84 27 80 28 113 2 65 -13 -25 -16 -27 -17 -10 -1 11 -8 0 -15
-25 -17 -62 -33 -100 -41 -100 -4 0 -4 55 -2 123 6 135 19 181 63 215 32 26
60 29 51 7 -7 -20 27 -55 44 -45 7 5 19 6 27 3 7 -3 13 1 13 9 0 7 9 14 20 15
11 1 20 -2 20 -8 0 -5 -4 -9 -10 -9 -19 0 7 -43 28 -47 19 -2 21 1 16 26 -5
23 -2 32 15 40 31 17 26 31 -12 31 -18 0 -37 4 -42 8 -27 22 -63 30 -81 18z"/>
<path d="M4110 859 c-56 -29 -80 -39 -96 -39 -8 0 -14 -4 -14 -10 0 -5 7 -10
15 -10 9 0 20 -10 25 -22 5 -13 9 -19 9 -14 1 5 8 3 16 -4 12 -10 15 -10 15 3
0 8 -5 17 -12 19 -18 6 1 28 24 28 26 0 78 -53 78 -80 0 -14 -4 -19 -12 -14
-7 4 -22 8 -34 9 -19 0 -21 -2 -12 -18 5 -10 12 -16 15 -13 4 3 20 -9 38 -27
l32 -33 11 24 c7 15 8 32 2 45 -8 19 -9 17 -9 -12 -1 -32 -2 -34 -15 -16 -12
16 -12 24 -1 45 15 29 20 85 10 116 -11 35 -45 44 -85 23z"/>
<path d="M490 819 c0 -4 -16 -13 -35 -19 -20 -7 -45 -25 -57 -41 -16 -21 -24
-26 -30 -17 -7 12 -13 -57 -10 -107 2 -17 -1 -16 -15 6 -18 29 -67 62 -76 52
-4 -3 -13 0 -22 7 -9 8 -27 10 -47 6 -18 -4 -53 -10 -77 -14 -43 -7 -43 -7
-22 -26 15 -14 18 -23 11 -36 -16 -29 27 -34 46 -5 13 20 18 21 39 11 14 -6
25 -15 25 -19 0 -5 4 -6 9 -3 5 3 8 -2 7 -11 0 -9 4 -18 11 -20 14 -5 35 61
26 83 -9 23 21 16 47 -11 18 -19 24 -39 28 -95 4 -64 7 -70 26 -70 12 0 28 -6
35 -12 10 -11 11 -10 6 5 -4 9 -16 17 -27 17 -19 0 -20 6 -16 103 3 95 5 107
31 140 30 39 58 50 50 19 -3 -13 4 -22 24 -31 18 -8 29 -9 31 -2 2 5 9 8 17 5
7 -3 20 5 30 18 l16 23 -7 -27 c-7 -30 12 -46 41 -34 13 5 13 9 3 25 -10 16
-9 23 4 38 16 18 14 19 -53 34 -38 9 -69 12 -69 8z"/>
<path d="M671 625 c-2 -11 -5 -15 -8 -7 -12 31 -18 5 -16 -80 2 -86 3 -92 24
-95 68 -10 89 -103 24 -103 -24 0 -25 -3 -25 -59 0 -41 -5 -62 -16 -72 -12
-10 -17 -10 -23 0 -6 10 -10 9 -15 -4 -3 -10 -14 -15 -27 -13 -16 2 -27 19
-44 63 -27 68 -33 53 -9 -19 15 -43 15 -48 0 -65 -10 -11 -14 -29 -11 -54 3
-20 0 -39 -5 -42 -6 -4 -10 -3 -9 2 6 36 -3 64 -24 72 -39 15 -50 37 -44 87
l5 45 -22 -19 c-35 -32 -67 -45 -79 -33 -6 6 -19 11 -28 11 -19 0 -29 20 -29
55 0 34 10 55 26 55 21 0 17 18 -6 30 -16 9 -19 8 -15 -7 3 -10 -7 7 -22 38
-22 44 -31 54 -40 44 -8 -9 -7 -22 8 -55 20 -45 25 -64 9 -40 -8 12 -10 12
-10 -5 -1 -18 -2 -17 -15 5 -8 14 -14 19 -15 12 0 -7 -5 -10 -10 -7 -6 3 -10
0 -11 -7 -1 -7 -7 7 -14 32 -11 37 -13 40 -14 18 -1 -16 -5 -28 -11 -28 -5 0
-10 -19 -10 -42 l0 -43 -25 50 c-23 46 -30 31 -10 -19 16 -38 -11 -7 -34 39
-17 33 -26 44 -34 36 -8 -8 -5 -23 11 -52 22 -41 30 -67 12 -39 -9 13 -10 13
-10 0 0 -13 -1 -13 -10 0 -23 36 -7 -19 42 -146 51 -130 76 -163 70 -93 -3 36
13 31 20 -6 2 -11 11 -20 20 -20 9 0 20 -3 23 -7 11 -10 36 3 29 16 -3 6 1 4
8 -6 10 -11 19 -13 30 -7 11 6 21 5 30 -4 20 -21 39 -9 32 19 -3 13 -2 24 4
24 5 0 13 -11 16 -25 10 -39 44 -33 49 8 l4 32 1 -32 c2 -30 3 -31 45 -30 23
1 45 6 49 11 4 6 12 5 20 -2 17 -14 36 -2 32 20 -1 10 2 18 7 18 6 0 9 -7 7
-16 -5 -29 21 -27 32 2 10 25 11 26 30 9 20 -18 60 -13 60 8 1 8 5 6 13 -3 7
-8 27 -16 45 -18 25 -3 32 0 32 15 0 15 2 16 10 3 5 -8 14 -15 20 -15 6 0 15
-7 21 -15 8 -11 9 -9 4 10 -6 24 -5 24 9 6 16 -20 16 -20 16 0 1 16 3 16 15
-6 l14 -25 2 25 1 25 7 -25 c4 -14 13 -25 20 -25 19 0 22 62 6 110 -8 21 -13
41 -11 42 7 7 28 -56 34 -103 8 -54 31 -67 43 -24 7 24 7 24 8 3 1 -27 16 -30
29 -6 6 10 16 14 26 10 10 -4 26 -2 37 3 14 8 19 7 19 -2 0 -10 2 -10 8 0 7 9
16 10 40 1 25 -8 36 -8 47 1 13 11 14 10 9 -4 -5 -14 -3 -15 19 -7 14 6 44 8
66 6 23 -2 41 1 41 6 0 13 34 11 47 -2 9 -9 16 -8 28 4 13 14 21 14 53 4 23
-8 56 -10 87 -6 28 3 55 3 60 0 13 -9 183 -7 192 2 3 4 12 2 19 -4 18 -15 54
-2 54 19 -1 16 -2 15 -11 0 -5 -10 -18 -18 -27 -17 -10 0 -12 3 -4 6 6 2 12 9
12 15 0 6 -6 6 -15 -2 -12 -10 -15 -10 -15 3 0 11 -5 14 -17 10 -12 -5 -15 -2
-10 10 4 12 2 14 -10 10 -12 -5 -15 -2 -10 10 7 18 -12 24 -28 8 -11 -10 -343
-51 -414 -51 -40 0 -43 2 -38 23 14 54 37 203 37 236 0 27 -3 32 -10 21 -8
-13 -10 -12 -12 5 -1 11 -5 -18 -8 -65 l-7 -85 -1 95 c0 52 -1 111 -1 130 l-1
35 -19 -40 c-11 -22 -24 -56 -29 -75 -10 -35 -10 -35 -11 17 -1 28 6 82 14
118 20 84 14 107 -9 38 -18 -54 -33 -73 -22 -28 11 42 -22 18 -35 -26 -17 -56
-29 -38 -30 44 -1 54 -3 65 -9 42 -4 -16 -9 -55 -10 -85 l-2 -55 -13 55 c-8
30 -15 75 -16 100 -1 25 -4 36 -6 26 -4 -15 -7 -16 -14 -5 -5 9 -8 -19 -8 -71
-1 -77 -18 -196 -20 -130 0 14 4 45 9 70 10 54 5 64 -11 24 l-12 -29 -7 35 -7
35 -2 -36 c0 -20 -4 -58 -8 -85 l-8 -49 -5 40 c-5 39 -26 54 -42 30 -4 -5 -8
10 -8 35 0 44 0 45 -14 19 -7 -15 -18 -39 -24 -55 l-10 -29 -20 45 c-16 35
-22 41 -27 27 -4 -9 -13 -17 -20 -17 -10 0 -12 17 -10 73 l4 72 -19 -54 c-22
-61 -35 -81 -25 -38 7 27 7 28 -14 15 -11 -7 -21 -20 -21 -28 -1 -8 -7 -26
-16 -40 l-14 -25 1 30 c1 17 1 59 -1 95 -2 53 -4 59 -10 35 -4 -16 -8 -52 -9
-79 -2 -74 -21 -45 -31 45 -4 41 -8 65 -9 54z"/>
<path d="M3980 595 c1 -11 9 -45 20 -75 28 -78 24 -83 -15 -20 -19 30 -35 60
-35 66 0 7 -5 16 -12 20 -8 5 -9 2 -5 -10 6 -14 3 -17 -8 -12 -10 3 -13 2 -10
-5 11 -16 -14 -37 -40 -34 -33 3 -31 -6 5 -38 17 -15 30 -36 30 -46 0 -11 5
-23 10 -26 15 -9 12 22 -5 56 -14 27 -14 30 1 36 19 7 45 -21 43 -46 0 -9 -7
-2 -14 14 -14 30 -20 18 -9 -20 4 -17 12 -20 40 -17 65 8 86 -46 38 -95 -18
-18 -21 -24 -7 -18 10 4 36 11 59 14 l41 6 -13 60 c-7 33 -13 86 -13 118 -1
82 -21 63 -22 -21 0 -67 0 -67 -14 -32 -26 70 -65 144 -65 125z"/>
<path d="M1530 320 c0 -6 16 -18 35 -27 35 -17 45 -37 23 -46 -7 -3 -4 -6 7
-6 11 -1 27 -5 35 -11 12 -8 12 -11 -3 -28 -23 -25 -15 -30 38 -22 46 7 59 -1
28 -19 -10 -5 -15 -12 -13 -15 7 -6 85 16 97 27 4 5 -1 5 -12 1 -15 -6 -17 -4
-12 9 3 9 2 17 -3 17 -6 0 -10 5 -10 11 0 13 -52 79 -62 79 -5 0 -8 -7 -8 -15
0 -19 -26 -20 -33 -1 -3 8 -3 24 0 35 6 23 -6 28 -25 9 -9 -9 -18 -9 -37 0
-32 15 -45 15 -45 2z"/>
<path d="M3500 130 c-30 -5 -111 -16 -180 -25 -137 -19 -419 -17 -914 5 -137
7 -271 10 -297 8 -26 -1 -45 0 -42 5 2 4 0 7 -6 7 -5 0 -13 -5 -16 -10 -5 -8
-11 -7 -21 1 -12 10 -13 9 -7 -6 5 -14 3 -17 -10 -12 -11 4 -17 1 -17 -8 0 -8
-6 -12 -13 -9 -8 3 -14 -1 -14 -8 0 -7 11 -14 24 -14 15 -1 23 4 23 14 0 13 3
12 15 -4 13 -16 16 -17 25 -4 8 12 12 12 18 2 6 -9 20 -10 53 -4 24 5 59 4 78
-1 24 -6 42 -5 58 4 17 9 29 10 41 3 10 -6 59 -7 122 -4 58 4 110 3 116 -2 7
-5 22 -4 37 3 16 7 31 8 41 2 10 -5 47 -6 88 -1 39 4 76 4 82 1 17 -11 96 -13
96 -2 0 6 7 6 18 1 9 -5 89 -7 177 -5 328 7 788 4 799 -7 5 -5 16 -10 23 -10
6 0 1 11 -12 25 -14 13 -25 32 -25 42 0 16 -13 18 -153 19 -83 1 -177 -2 -207
-6z"/>
</g>
</svg>
