<?xml version="1.0" standalone="no"?>
<!DOCTYPE svg PUBLIC "-//W3C//DTD SVG 20010904//EN"
 "http://www.w3.org/TR/2001/REC-SVG-20010904/DTD/svg10.dtd">
<svg version="1.0" xmlns="http://www.w3.org/2000/svg"
 width="600.000000pt" height="565.000000pt" viewBox="0 0 600.000000 565.000000"
 preserveAspectRatio="xMidYMid meet">
<metadata>
Created by potrace 1.15, written by Peter Selinger 2001-2017
</metadata>
<g transform="translate(0.000000,565.000000) scale(0.100000,-0.100000)"
fill="#000000" stroke="none">
<path d="M1485 2684 c-208 -30 -321 -62 -470 -134 -66 -32 -158 -86 -205 -120
-83 -60 -235 -208 -226 -218 3 -2 20 2 38 11 63 30 213 68 292 74 58 5 85 12
105 27 117 93 261 151 404 162 71 6 86 10 112 34 42 40 172 108 247 130 51 15
57 19 33 21 -16 1 -39 3 -50 5 -38 6 -250 12 -280 8z"/>
<path d="M2060 2564 c-62 -16 -270 -113 -270 -126 0 -4 -6 -8 -13 -8 -8 0 -34
-20 -59 -44 -32 -32 -54 -45 -79 -48 -27 -2 -33 -7 -31 -23 2 -16 1 -17 -7 -5
-5 8 -7 18 -5 22 5 7 -24 5 -131 -8 -114 -14 -296 -88 -434 -177 -60 -40 -79
-47 -120 -47 -109 0 -299 -47 -431 -106 -55 -25 -58 -28 -83 -92 -27 -70 -59
-174 -54 -178 1 -1 40 11 87 26 125 42 282 72 397 75 99 3 104 4 145 36 24 18
45 36 48 39 3 3 46 31 95 62 197 123 409 183 715 202 15 0 42 18 66 42 52 52
117 97 219 152 44 24 73 41 64 39 -9 -3 -16 1 -16 8 0 8 7 11 15 7 9 -3 13 -1
9 5 -5 7 0 9 14 6 16 -5 18 -8 7 -15 -15 -11 -8 -9 55 16 26 10 47 22 47 26 0
8 -75 60 -85 60 -4 0 -13 7 -22 16 -9 8 -22 13 -29 10 -8 -3 -13 0 -11 7 1 8
-12 11 -43 10 -35 -1 -40 1 -22 8 12 4 22 11 22 14 0 3 -1 5 -2 4 -2 0 -28 -7
-58 -15z"/>
<path d="M5900 2497 c-36 -6 -57 -12 -47 -15 29 -6 19 -19 -28 -32 -51 -14
-59 -30 -15 -30 17 0 30 -4 30 -10 0 -5 3 -9 8 -8 6 2 84 -15 135 -29 15 -4
17 4 17 66 0 80 8 75 -100 58z"/>
<path d="M2259 2178 c-89 -44 -117 -65 -190 -139 l-87 -86 -118 -7 c-365 -22
-528 -78 -838 -289 l-86 -58 -67 6 c-123 12 -346 -33 -497 -100 -49 -22 -56
-28 -55 -52 0 -37 15 -122 21 -128 3 -3 38 10 79 29 128 60 214 78 388 82
l155 3 115 78 c285 195 467 266 747 291 70 6 79 9 79 27 0 18 7 20 70 19 39 0
61 1 50 4 -11 2 -24 8 -29 13 -6 5 -20 9 -33 9 -16 0 -21 4 -17 15 4 8 2 15
-4 15 -5 0 -12 -7 -16 -15 -3 -8 -11 -15 -18 -15 -9 0 -8 3 2 10 11 7 3 10
-30 11 l-45 1 38 8 c21 4 43 12 50 19 17 17 77 14 84 -6 4 -9 15 -25 25 -35
10 -10 18 -25 18 -33 0 -13 -11 -15 -67 -11 -44 4 -57 2 -38 -3 l30 -8 -30 -6
c-16 -3 6 -3 50 0 57 4 82 9 89 20 19 33 84 98 138 139 31 23 54 45 50 48 -3
4 2 4 12 0 14 -6 17 -4 11 6 -5 8 -3 11 6 8 8 -3 21 0 29 7 8 6 38 20 65 30
58 21 78 35 49 35 -17 0 -20 6 -20 42 1 24 -4 43 -11 45 -16 6 -18 -60 -3 -88
9 -16 7 -19 -12 -19 -19 0 -20 2 -8 10 12 8 8 10 -15 11 -16 1 -23 3 -13 6 19
5 30 79 12 93 -7 6 -47 -8 -115 -42z"/>
<path d="M2425 930 c-4 -6 -1 -35 6 -65 9 -42 9 -61 1 -80 -27 -59 -3 -76 29
-21 11 19 42 49 70 66 27 18 49 36 49 42 0 9 -120 68 -139 68 -5 0 -13 -5 -16
-10z"/>
<path d="M2000 647 c0 -78 66 -176 146 -217 72 -37 181 -36 246 2 25 16 60 45
77 65 35 42 64 121 58 155 -4 25 -3 27 -31 -62 -68 -210 -359 -226 -452 -25
-13 27 -24 62 -24 78 0 15 -4 27 -10 27 -5 0 -10 -10 -10 -23z"/>
</g>
</svg>
