<?xml version="1.0" standalone="no"?>
<!DOCTYPE svg PUBLIC "-//W3C//DTD SVG 20010904//EN"
 "http://www.w3.org/TR/2001/REC-SVG-20010904/DTD/svg10.dtd">
<svg version="1.0" xmlns="http://www.w3.org/2000/svg"
 width="2400.000000pt" height="1200.000000pt" viewBox="0 0 2400.000000 1200.000000"
 preserveAspectRatio="xMidYMid meet">
<metadata>
Created by potrace 1.15, written by Peter Selinger 2001-2017
</metadata>
<g transform="translate(0.000000,1200.000000) scale(0.100000,-0.100000)"
fill="#000000" stroke="none">
<path d="M14535 7186 c-20 -31 -11 -86 40 -245 20 -62 34 -115 31 -118 -5 -6
-61 21 -133 63 -32 19 -33 19 -55 -3 -21 -21 -21 -23 -4 -42 20 -22 123 -77
206 -110 50 -19 61 -30 115 -109 33 -48 98 -125 145 -172 l86 -85 -23 -85
c-70 -267 -208 -579 -359 -813 -52 -81 -59 -80 -132 16 -85 110 -98 123 -115
109 -11 -10 -17 -9 -28 5 -13 16 -12 17 3 5 12 -9 18 -10 23 -2 4 6 13 9 20 6
9 -3 4 17 -12 57 -14 34 -36 100 -49 146 l-24 84 54 51 c29 29 63 71 75 94 25
50 29 132 6 132 -11 0 -15 -11 -15 -38 0 -50 -44 -136 -84 -167 -18 -14 -35
-25 -38 -25 -6 0 -23 112 -34 224 -9 94 -47 130 -99 92 -18 -13 -18 -17 -2
-152 22 -172 39 -260 79 -391 28 -92 33 -101 45 -85 8 9 12 12 9 5 -4 -6 2
-16 11 -22 14 -8 4 -9 -39 -7 -122 8 -291 125 -377 261 -29 45 -48 65 -61 65
-48 0 -38 -54 25 -139 25 -33 45 -63 45 -66 0 -10 -56 -4 -137 14 -63 13 -83
15 -83 5 0 -22 70 -43 181 -53 78 -7 92 -11 137 -44 66 -49 187 -105 242 -112
33 -5 41 -4 30 4 -24 17 -2 13 25 -5 14 -9 42 -39 62 -68 21 -28 62 -77 91
-108 l54 -57 -57 -73 -56 -73 27 -23 c21 -19 24 -26 14 -35 -8 -7 -11 -8 -7
-1 4 6 -4 20 -16 32 l-22 21 -88 -99 c-49 -54 -136 -141 -193 -192 l-104 -93
-2 -60 -2 -60 -3 57 -4 56 -82 -62 c-45 -34 -149 -103 -232 -154 -82 -51 -160
-99 -172 -108 -21 -15 -23 -13 -103 106 -166 248 -318 518 -426 760 l-51 115
83 87 c46 48 109 125 139 172 42 66 65 91 102 112 154 86 228 154 235 214 2
20 -2 26 -23 28 -20 2 -32 -5 -54 -35 -15 -21 -38 -46 -49 -56 -28 -24 -97
-60 -103 -54 -2 3 5 47 16 99 11 51 23 134 27 185 6 77 4 96 -10 118 -18 27
-66 35 -83 13 -6 -7 -15 -70 -21 -141 -6 -70 -14 -132 -17 -137 -16 -26 -115
62 -154 135 -12 22 -27 66 -33 98 -8 37 -17 57 -26 57 -23 0 -9 -97 23 -160
32 -63 92 -130 140 -156 19 -10 35 -24 35 -31 0 -27 -50 -146 -90 -217 -39
-68 -161 -216 -179 -216 -7 0 -80 201 -120 330 -54 175 -98 366 -131 570 -23
146 -24 170 -7 170 25 0 114 49 181 99 65 48 72 51 112 45 23 -3 74 -1 113 6
61 10 71 15 71 32 0 15 -4 18 -17 13 -10 -4 -57 -9 -105 -12 l-87 -6 -3 54
c-3 50 -5 54 -28 54 -20 0 -27 -8 -38 -40 -7 -22 -27 -54 -44 -72 -32 -33
-165 -109 -175 -100 -2 3 -7 52 -10 109 -6 117 -19 148 -61 148 -16 0 -33 -5
-40 -12 -34 -34 9 -454 78 -763 11 -49 20 -93 20 -97 0 -5 -23 1 -50 11 -175
66 -323 248 -425 520 -35 95 -50 110 -92 95 -53 -18 -39 -103 49 -278 22 -43
37 -81 34 -84 -3 -2 -36 10 -73 28 -49 24 -90 56 -153 122 -48 48 -92 88 -97
88 -6 0 -16 -7 -23 -15 -18 -21 -2 -53 56 -116 26 -27 44 -52 41 -56 -14 -13
-139 17 -215 51 -91 41 -92 41 -92 21 0 -17 93 -66 169 -89 30 -9 83 -16 119
-16 55 0 73 -5 128 -36 36 -20 97 -44 136 -54 59 -16 76 -25 102 -57 108 -134
164 -175 327 -242 42 -18 83 -40 92 -49 8 -9 27 -55 42 -102 76 -240 154 -435
271 -679 41 -85 72 -157 69 -160 -3 -3 -47 -7 -98 -9 -106 -5 -241 16 -338 50
-57 21 -64 26 -61 48 14 143 14 164 -3 225 -23 86 -67 155 -99 155 -38 0 -38
-24 -1 -101 18 -39 37 -94 40 -123 7 -53 -8 -136 -25 -136 -4 0 -44 34 -88 75
-80 75 -97 84 -133 65 -78 -42 100 -222 292 -295 41 -16 78 -32 83 -36 10 -8
-49 -26 -133 -40 -81 -13 -174 -11 -270 6 -92 16 -115 10 -109 -29 4 -28 70
-45 210 -54 l107 -7 -32 -42 c-36 -47 -85 -77 -139 -87 -25 -5 -38 -12 -38
-23 0 -13 8 -15 45 -10 73 10 104 31 177 118 45 52 51 56 115 68 37 8 97 25
133 39 58 22 83 25 230 27 91 2 174 5 185 7 17 2 35 -27 115 -182 52 -102 121
-234 153 -295 l57 -109 0 -112 c0 -301 -53 -1156 -95 -1534 -25 -220 -60 -468
-71 -502 -5 -17 6 -18 139 -18 l144 0 6 68 c84 911 111 1492 89 1877 -5 101
-5 165 1 175 5 8 59 56 120 105 61 50 157 132 214 184 103 92 104 93 86 115
-17 21 -17 21 2 3 19 -17 23 -14 142 105 l123 122 56 -27 c31 -16 58 -26 60
-25 2 2 8 15 14 28 9 23 10 23 5 -6 l-6 -32 78 -20 c43 -12 114 -24 158 -28
79 -7 80 -7 120 -52 22 -25 68 -73 103 -107 l63 -60 14 -95 c16 -109 22 -130
40 -130 9 0 9 20 -1 97 -8 53 -12 98 -10 100 2 3 30 -9 62 -25 90 -45 132 -56
150 -41 32 26 12 51 -67 84 -41 17 -98 47 -125 65 -55 38 -164 138 -164 152 0
4 14 8 31 8 34 0 235 28 258 35 11 4 11 9 -1 28 -8 12 -18 35 -22 50 -6 27 -8
27 -56 21 -28 -4 -50 -4 -50 0 0 15 34 74 72 123 46 61 108 105 172 123 45 12
60 28 50 55 -13 32 -67 25 -154 -20 -75 -39 -175 -160 -215 -262 l-17 -43
-127 0 c-114 0 -264 21 -323 45 -11 4 -18 1 -21 -12 -4 -16 -5 -15 -6 3 -1 13
-14 26 -36 37 l-36 17 23 31 c13 17 22 40 20 52 -2 12 4 31 13 42 16 20 16 20
6 -2 -6 -12 -11 -30 -11 -40 1 -20 31 11 129 132 143 177 349 531 431 737 21
53 25 59 64 68 187 47 324 130 495 298 l126 124 100 -11 c126 -14 400 -12 484
3 72 12 97 34 70 62 -15 14 -28 14 -105 5 -125 -15 -184 -14 -184 3 0 26 65
111 115 148 28 21 50 43 50 50 0 15 -8 14 -59 -7 l-39 -16 6 44 c4 25 16 64
28 87 23 43 22 54 -4 44 -29 -11 -57 -86 -57 -150 0 -49 -5 -67 -30 -104 -16
-25 -35 -60 -41 -77 -10 -33 -11 -33 -72 -33 -66 0 -185 15 -194 24 -3 3 33
63 79 133 123 184 238 393 238 431 0 26 -34 54 -61 50 -16 -2 -33 -20 -54 -58
-18 -30 -62 -109 -99 -175 -38 -66 -75 -128 -84 -138 -15 -17 -17 -17 -30 9
-39 74 -54 142 -59 262 -3 67 -10 125 -15 129 -21 12 -29 -26 -24 -115 4 -81
2 -93 -11 -88 -8 3 -19 6 -24 6 -5 0 -27 16 -49 37 -51 45 -76 33 -34 -16 30
-35 56 -52 97 -60 26 -5 32 -15 51 -77 13 -39 31 -84 41 -102 23 -38 19 -47
-66 -162 -87 -117 -230 -256 -330 -322 -76 -51 -212 -118 -237 -118 -6 0 -2
28 9 68 79 271 143 638 118 683 -11 22 -70 26 -87 6 -6 -6 -18 -68 -27 -137
-22 -176 -27 -200 -35 -200 -26 0 -194 215 -182 234 4 6 24 36 44 66 61 90
112 280 76 280 -8 0 -21 -32 -31 -78 -22 -91 -66 -188 -100 -220 l-24 -23 -40
88 c-47 100 -76 184 -93 269 -17 81 -25 94 -60 94 -20 0 -35 -8 -45 -24z"/>
<path d="M14191 7096 c-17 -20 -5 -38 73 -116 36 -35 66 -70 66 -77 0 -15 -80
-17 -167 -4 -40 6 -53 4 -53 -5 0 -22 74 -35 180 -33 90 2 102 4 122 26 l22
24 -99 99 c-99 100 -122 113 -144 86z"/>
<path d="M7645 6070 c-60 -10 -176 -28 -257 -41 -110 -16 -148 -26 -148 -36 0
-8 7 -45 16 -84 13 -59 19 -69 37 -70 17 -1 18 -2 4 -6 -12 -3 -15 -11 -12
-26 3 -12 38 -167 79 -345 40 -177 76 -325 80 -329 7 -8 1 -17 71 102 32 55
94 154 138 220 58 87 80 128 80 150 -1 27 -1 28 6 6 6 -24 8 -22 45 28 l39 53
-12 177 c-7 98 -15 188 -18 199 -6 25 -3 25 -148 2z"/>
<path d="M5084 4892 c-8 -5 -9 -32 -3 -92 22 -230 3 -532 -47 -760 -25 -111
-79 -292 -110 -365 l-14 -35 -28 17 c-58 37 -103 78 -146 132 -45 58 -116 179
-116 198 0 6 15 34 34 62 37 54 52 113 41 161 -10 45 -31 38 -27 -9 5 -48 -10
-96 -42 -140 l-24 -32 -30 78 c-16 43 -35 95 -41 115 -15 46 -34 62 -66 54
-35 -9 -33 -41 11 -167 43 -124 79 -205 128 -289 20 -34 34 -65 31 -68 -11
-11 -146 21 -204 48 -33 16 -90 56 -126 90 -68 63 -88 70 -93 32 -2 -15 13
-39 47 -75 28 -30 51 -57 51 -60 0 -4 -39 -7 -86 -7 -79 0 -85 -1 -73 -16 12
-14 28 -16 114 -11 92 6 106 4 185 -22 47 -16 121 -32 165 -36 73 -6 84 -10
125 -44 25 -20 64 -50 87 -66 24 -17 43 -34 43 -39 0 -19 -114 -225 -184 -331
-100 -152 -154 -216 -328 -393 l-151 -154 -151 154 c-165 168 -249 264 -380
436 -65 87 -84 118 -77 130 5 10 29 49 53 88 24 40 55 104 69 144 21 65 31 79
92 133 112 100 160 197 101 205 -16 2 -25 -7 -38 -37 -10 -22 -37 -58 -60 -81
l-41 -42 -6 113 c-10 190 -23 239 -63 239 -44 0 -50 -20 -36 -127 7 -54 11
-106 9 -115 -4 -16 -7 -16 -44 1 -59 26 -103 67 -130 120 -13 26 -31 54 -41
62 -16 13 -17 12 -10 -16 19 -78 79 -147 166 -192 l55 -28 -2 -50 c-4 -72 -49
-206 -94 -276 -21 -32 -42 -59 -47 -59 -12 0 -152 239 -220 375 -55 110 -172
392 -172 413 0 5 26 29 59 54 32 25 71 64 87 87 22 30 36 41 56 41 44 0 158
41 158 56 0 8 -1 14 -2 14 -2 0 -32 -9 -66 -20 -90 -28 -98 -27 -109 18 -6 26
-15 38 -29 40 -18 3 -22 -4 -28 -40 -4 -24 -18 -59 -32 -79 -27 -39 -110 -104
-117 -92 -3 5 -15 44 -27 88 -12 44 -28 86 -35 94 -16 17 -60 8 -69 -14 -13
-35 83 -337 176 -554 27 -63 47 -116 45 -118 -11 -11 -175 49 -222 82 -76 52
-182 167 -239 258 -36 58 -53 77 -70 77 -27 0 -46 -18 -46 -42 0 -22 49 -105
106 -179 24 -32 44 -60 44 -62 0 -7 -77 11 -118 29 -21 8 -67 35 -104 61 -68
46 -98 51 -98 15 0 -11 22 -34 55 -58 30 -21 55 -42 55 -45 0 -16 -94 -17
-173 0 -63 12 -87 14 -87 5 0 -6 25 -19 57 -29 46 -15 76 -17 165 -12 67 4
118 3 135 -4 16 -6 63 -14 105 -19 71 -7 82 -11 140 -55 89 -66 128 -84 235
-106 52 -10 102 -23 112 -29 10 -5 42 -51 71 -102 77 -136 204 -326 308 -462
51 -66 92 -123 92 -126 0 -8 -61 -26 -139 -40 -60 -11 -187 -13 -242 -4 l-36
6 -5 68 c-8 112 -80 240 -135 240 -32 0 -29 -15 15 -80 22 -30 44 -70 50 -89
15 -42 16 -111 2 -111 -16 0 -67 28 -113 61 -47 34 -58 35 -81 10 -24 -27 -14
-52 37 -88 69 -50 122 -72 225 -97 l97 -23 -51 -26 c-69 -35 -161 -57 -266
-64 -84 -6 -88 -7 -88 -29 0 -34 36 -40 153 -25 55 7 101 10 104 8 7 -8 -23
-60 -49 -83 -12 -12 -38 -29 -57 -39 -23 -12 -30 -20 -23 -27 8 -8 25 -4 59
13 40 20 53 34 83 91 30 58 42 70 85 90 27 13 74 38 104 56 31 18 74 37 96 42
22 5 74 17 115 26 41 9 87 23 102 30 l27 14 153 -186 c84 -103 165 -203 180
-223 25 -33 33 -68 83 -370 30 -184 71 -452 90 -595 19 -143 36 -260 38 -261
1 -1 48 5 105 13 84 13 101 18 98 31 -3 9 -12 68 -21 131 -45 324 -106 649
-162 865 -14 55 -29 115 -33 133 -7 30 -2 39 74 135 117 147 213 279 291 403
38 60 70 111 72 113 1 2 31 -2 65 -9 35 -7 123 -12 197 -12 l135 2 50 -39 c28
-21 66 -46 84 -55 37 -19 65 -59 82 -120 6 -22 20 -52 30 -66 19 -24 20 -24
20 -3 0 11 -10 46 -21 77 -12 31 -20 59 -17 61 3 3 34 -1 69 -10 80 -18 119
-19 119 -2 0 27 -27 44 -90 56 -72 14 -189 66 -233 103 l-28 23 91 30 c107 33
288 122 304 148 14 22 -3 51 -31 55 -11 2 -70 -20 -132 -48 -62 -29 -115 -49
-118 -46 -11 11 18 91 53 144 22 33 54 65 85 84 60 38 67 68 15 68 -27 0 -46
-10 -88 -49 -61 -56 -98 -118 -123 -206 -9 -33 -22 -65 -29 -71 -33 -32 -233
-57 -345 -43 -47 5 -88 12 -90 15 -3 3 27 66 66 142 82 157 148 320 195 480
l32 112 32 0 c53 0 174 26 245 53 65 24 68 25 135 10 121 -26 251 -1 242 45
-4 18 -10 19 -115 6 -33 -3 -74 -3 -89 0 l-28 7 35 27 c18 14 67 58 107 96
113 109 134 158 75 173 -22 5 -36 -5 -103 -76 -43 -44 -83 -81 -88 -81 -11 0
-32 85 -32 128 1 15 10 52 21 82 31 86 32 90 20 90 -16 0 -57 -93 -66 -146 -4
-25 0 -68 10 -110 16 -69 16 -69 -7 -88 -61 -49 -215 -109 -312 -121 -65 -8
-61 -21 -41 130 32 233 29 649 -6 691 -12 15 -47 18 -65 6z"/>
<path d="M17759 3815 l-24 -45 25 -24 c22 -21 96 -67 267 -163 l42 -24 30 53
c17 29 31 55 31 58 0 3 -24 18 -53 33 -28 15 -106 57 -173 93 l-121 64 -24
-45z"/>
<path d="M10330 3429 c-69 -4 -498 -13 -955 -18 -456 -6 -886 -15 -955 -21
-235 -20 -525 -60 -720 -100 -159 -32 -372 -70 -401 -70 -7 0 -1 -260 7 -327
3 -28 11 -43 22 -46 14 -4 14 -5 -2 -6 -18 -1 -18 -8 -12 -113 3 -62 11 -216
16 -343 6 -126 13 -248 16 -270 16 -115 39 -207 66 -272 25 -62 33 -73 54 -73
13 0 228 22 476 49 249 28 487 53 528 56 212 17 1099 96 1125 100 17 3 234 19
484 35 250 16 457 32 460 36 3 3 6 141 5 307 0 271 -12 516 -30 649 l-7 47
-76 4 -76 3 78 2 c91 2 84 -22 62 217 -8 88 -15 161 -15 163 0 1 -6 1 -12 0
-7 0 -69 -5 -138 -9z m-1060 -189 c33 -18 93 -110 102 -158 17 -92 49 -469 48
-575 0 -118 -13 -161 -53 -176 -12 -5 -195 -17 -407 -28 -416 -22 -412 -22
-473 29 l-27 24 -26 289 c-34 384 -28 355 -67 357 l-32 1 31 4 c26 3 34 12 51
53 14 32 31 53 51 64 21 11 117 23 314 41 409 36 393 34 419 61 24 26 40 29
69 14z"/>
<path d="M12591 2819 c0 -13 4 -48 8 -76 6 -46 5 -53 -9 -53 -9 0 -27 9 -40
20 -28 24 -44 26 -36 4 3 -9 6 -20 6 -24 0 -5 21 -10 46 -12 l46 -3 29 -68
c16 -38 29 -71 29 -73 0 -2 -15 -4 -34 -4 -25 0 -36 5 -41 19 -3 11 -13 25
-22 33 -15 12 -15 11 -4 -9 10 -20 9 -23 -6 -23 -13 0 -11 -5 11 -19 28 -19
28 -19 7 -30 -12 -7 -19 -16 -16 -22 4 -5 20 2 37 16 47 40 77 34 121 -25 l38
-51 -8 -154 c-7 -139 -6 -155 8 -155 14 0 17 22 22 146 6 133 9 150 34 195 24
45 30 50 52 44 14 -3 38 -15 53 -25 22 -16 27 -17 32 -5 3 9 -1 15 -9 15 -20
0 -19 19 0 26 21 9 19 19 -5 21 -11 1 -20 -2 -20 -8 0 -5 -13 -9 -30 -9 -16 0
-30 2 -30 5 0 2 15 34 32 70 28 57 39 69 82 90 28 14 58 25 69 25 10 0 15 5
12 10 -3 6 -15 10 -26 10 -10 0 -19 6 -19 12 0 7 -14 -4 -31 -25 -17 -20 -34
-37 -38 -37 -4 0 -3 28 4 63 l12 63 -34 -4 c-33 -4 -33 -5 -14 -19 26 -18 26
-43 -3 -118 -22 -57 -23 -59 -35 -36 -7 13 -11 33 -9 46 3 12 -1 31 -9 41 -12
17 -13 17 -13 -3 0 -12 -5 -23 -11 -25 -8 -3 -2 -19 15 -45 20 -30 26 -48 21
-65 -12 -35 -69 -118 -82 -118 -14 0 -90 85 -110 123 -13 26 -13 30 4 43 10 7
33 16 51 20 19 4 32 12 32 21 0 13 -4 13 -26 -2 -14 -9 -27 -15 -29 -13 -2 2
0 22 4 45 7 37 6 40 -9 31 -10 -7 -15 -20 -12 -37 2 -17 -3 -33 -16 -45 -20
-17 -21 -17 -31 2 -6 11 -17 59 -26 108 -15 87 -26 119 -24 73z"/>
<path d="M15966 2559 c-9 -39 -16 -80 -16 -89 0 -20 -10 -19 266 -39 78 -6
181 -18 230 -27 107 -20 105 -20 174 0 67 19 139 20 205 2 70 -18 105 -38 168
-96 30 -27 61 -50 69 -50 8 0 88 -18 178 -40 179 -44 338 -80 356 -80 6 0 17
37 26 90 l14 89 -75 17 c-70 14 -406 97 -646 159 -153 39 -367 82 -495 99 -95
13 -361 36 -421 36 -13 0 -21 -18 -33 -71z"/>
<path d="M11316 2359 c-3 -13 -8 -64 -11 -114 -3 -49 -9 -107 -12 -127 l-6
-38 153 0 c141 0 152 1 145 18 -27 61 -29 91 -10 133 53 117 270 99 305 -25 8
-30 9 -54 2 -79 l-10 -36 131 6 c73 3 133 6 134 7 1 1 5 46 9 101 l7 100 -239
34 c-175 26 -286 36 -416 39 l-177 4 -5 -23z"/>
<path d="M18251 2160 c-25 -87 -27 -89 -45 -48 -9 21 -16 45 -16 55 0 16 -1
16 -13 -1 -12 -16 -14 -16 -26 -2 -8 9 -18 16 -24 16 -6 0 9 -21 35 -47 25
-27 51 -58 57 -70 12 -24 15 -163 3 -163 -15 0 -52 31 -52 44 0 8 -9 16 -21
19 -15 4 -19 2 -15 -9 3 -8 9 -21 13 -30 5 -13 2 -15 -15 -9 -15 4 -22 2 -22
-7 0 -10 16 -14 56 -14 30 -1 60 -6 66 -12 6 -6 13 -33 16 -61 5 -53 0 -68
-62 -203 l-35 -78 24 0 c20 0 28 11 55 83 17 45 36 94 42 110 10 27 71 62 129
74 33 6 89 -39 89 -73 0 -15 6 -24 15 -24 17 0 20 25 5 35 -20 12 -9 25 23 26
20 1 25 3 13 6 -18 5 -18 6 5 25 l24 19 -39 -16 c-41 -16 -67 -13 -85 9 -9 10
1 22 43 55 31 22 61 41 68 41 7 0 32 -9 56 -20 23 -11 40 -15 37 -10 -3 5 3
13 12 19 15 9 16 12 4 20 -9 6 -20 5 -31 -1 -11 -7 -26 -7 -43 -2 l-27 9 42
63 c51 78 45 92 -7 16 -21 -30 -57 -71 -79 -90 l-41 -35 -7 33 c-3 18 -2 40 2
49 5 8 6 26 3 39 -6 22 -7 23 -14 4 -4 -10 -8 -31 -8 -46 -1 -35 -13 -36 -31
-3 -7 14 -19 25 -27 25 -20 0 -16 -9 17 -37 71 -59 63 -80 -46 -118 -101 -36
-100 -36 -114 43 -16 89 -12 103 35 127 31 16 40 26 42 48 2 24 0 27 -13 17
-7 -7 -14 -9 -15 -4 -1 5 -4 -2 -8 -15 -3 -13 -16 -30 -29 -39 -22 -14 -22
-14 -22 41 0 30 3 69 6 86 6 27 10 31 41 31 20 0 32 4 28 10 -3 6 -17 7 -30 4
-17 -4 -24 -1 -27 13 -3 11 -9 2 -17 -27z"/>
<path d="M19593 1653 c-69 -253 -99 -381 -93 -392 8 -15 167 -57 177 -47 3 2
20 73 38 158 18 84 45 204 59 265 l26 113 -19 52 c-11 29 -34 91 -51 138 -17
46 -32 85 -33 86 -1 2 -48 -167 -104 -373z"/>
<path d="M16447 1972 c-19 -54 -33 -132 -23 -132 4 0 119 -18 257 -41 138 -22
253 -38 256 -36 10 11 15 117 5 117 -6 0 -13 -4 -17 -9 -13 -21 -121 -52 -181
-52 -104 0 -178 43 -242 142 l-38 58 -17 -47z"/>
<path d="M5493 1969 c13 -7 17 -23 17 -62 0 -61 -14 -91 -30 -67 -6 8 -9 24
-7 36 2 14 -2 20 -15 21 -26 2 -23 -29 7 -57 14 -13 25 -32 25 -42 0 -23 -40
-118 -49 -118 -14 0 -121 93 -121 105 0 7 16 23 36 35 19 12 32 25 29 28 -3 3
-11 0 -17 -6 -19 -19 -28 -14 -28 18 0 17 -4 30 -9 30 -6 0 -8 -15 -5 -32 3
-18 0 -40 -5 -48 -9 -13 -12 -12 -25 5 -9 11 -25 46 -37 78 -24 62 -35 72 -19
16 16 -54 13 -68 -11 -62 -11 3 -23 12 -26 19 -2 7 -11 10 -19 7 -10 -4 -11
-10 -3 -25 9 -16 18 -19 48 -15 35 4 38 2 70 -45 18 -28 31 -51 29 -53 -10 -9
-36 -8 -57 4 -14 8 -21 9 -17 2 4 -6 1 -11 -6 -11 -7 0 -4 -6 7 -12 30 -16 31
-18 15 -28 -8 -5 -11 -12 -6 -17 4 -4 12 0 17 10 6 9 23 24 38 32 28 14 30 13
75 -28 40 -37 46 -49 46 -83 0 -68 11 -114 28 -114 11 0 13 7 8 33 -16 76 -18
129 -6 172 14 49 17 51 73 31 20 -8 40 -10 43 -5 3 5 -2 9 -11 9 -13 0 -16 6
-11 24 3 14 1 28 -5 31 -6 4 -13 -2 -16 -14 -3 -14 -13 -21 -28 -21 -21 0 -22
3 -14 39 18 81 33 102 94 134 27 15 28 16 8 17 -13 0 -23 6 -23 13 0 6 -11 -6
-25 -28 l-24 -40 -1 48 c0 45 -1 47 -27 47 -24 -1 -25 -2 -10 -11z"/>
<path d="M21444 1192 c-18 -12 -41 -63 -54 -124 -7 -32 -17 -58 -21 -58 -18 0
-59 64 -74 115 -15 51 -18 55 -47 55 l-31 0 6 -50 c8 -66 51 -144 104 -188 39
-33 42 -39 54 -117 l12 -82 51 -18 c28 -10 56 -20 63 -22 8 -3 7 13 -5 54 -23
84 -22 252 1 321 22 63 17 94 -18 110 -30 14 -27 14 -41 4z"/>
<path d="M2037 1153 c-4 -3 -7 -42 -7 -85 0 -44 -5 -99 -11 -124 -13 -52 -11
-57 24 -49 19 5 27 15 32 41 4 22 25 56 56 90 36 39 49 62 49 84 0 45 -23 37
-50 -17 l-23 -48 -8 30 c-4 17 -11 42 -14 58 -5 26 -32 37 -48 20z"/>
<path d="M22012 1052 c-14 -14 -21 -41 -26 -103 -8 -98 -23 -162 -36 -154 -5
3 -19 36 -30 73 -22 72 -31 82 -62 74 -18 -4 -20 -11 -15 -57 6 -57 31 -115
71 -162 l26 -31 -20 -56 -19 -57 44 -20 c25 -11 50 -17 55 -14 29 18 100 337
100 451 0 42 -4 55 -19 64 -29 15 -49 12 -69 -8z"/>
<path d="M1410 986 c0 -26 5 -35 18 -38 17 -3 18 -6 5 -37 -13 -31 -17 -33
-53 -29 -32 3 -40 0 -40 -13 0 -12 13 -18 51 -23 34 -5 59 -15 75 -31 24 -24
54 -34 54 -17 0 4 -16 54 -34 112 -28 85 -38 106 -55 108 -18 3 -21 -2 -21
-32z"/>
<path d="M22614 802 c-6 -4 -30 -47 -54 -97 -33 -70 -58 -105 -109 -155 -36
-36 -85 -74 -108 -85 -24 -11 -42 -24 -40 -29 3 -10 95 -46 119 -46 9 0 43 23
76 50 l60 50 105 0 c112 0 135 9 122 50 -6 18 -15 20 -86 20 -43 0 -79 2 -79
5 0 3 13 31 29 63 16 31 34 76 41 99 12 38 11 45 -5 63 -18 20 -51 26 -71 12z"/>
</g>
</svg>
