<?xml version="1.0" standalone="no"?>
<!DOCTYPE svg PUBLIC "-//W3C//DTD SVG 20010904//EN"
 "http://www.w3.org/TR/2001/REC-SVG-20010904/DTD/svg10.dtd">
<svg version="1.0" xmlns="http://www.w3.org/2000/svg"
 width="900.000000pt" height="640.000000pt" viewBox="0 0 900.000000 640.000000"
 preserveAspectRatio="xMidYMid meet">
<metadata>
Created by potrace 1.15, written by Peter Selinger 2001-2017
</metadata>
<g transform="translate(0.000000,640.000000) scale(0.100000,-0.100000)"
fill="#000000" stroke="none">
<path d="M2400 6374 c-135 -61 -381 -253 -552 -433 -97 -102 -113 -137 -125
-268 -3 -40 -9 -73 -12 -72 -3 0 -33 34 -66 76 -88 111 -114 128 -195 128 -54
0 -73 -5 -103 -25 -65 -44 -151 -190 -215 -365 -44 -122 -44 -128 -11 -258 17
-66 27 -122 23 -126 -5 -4 -54 -42 -109 -84 -87 -65 -168 -137 -154 -137 2 0
64 16 137 34 72 19 132 31 132 27 -1 -3 -38 -34 -83 -68 -133 -100 -567 -501
-567 -524 0 -16 18 -10 64 22 44 29 206 109 222 109 4 0 -26 -35 -67 -77 -150
-156 -247 -293 -334 -476 -57 -119 -109 -276 -95 -290 4 -5 27 12 50 36 40 45
182 128 195 115 3 -3 -7 -28 -24 -54 -43 -71 -90 -193 -123 -324 -30 -119 -48
-270 -32 -270 5 0 21 31 36 68 15 37 39 81 52 97 l24 30 -5 -200 c-2 -110 -1
-244 4 -297 l9 -98 -114 -177 c-63 -98 -165 -268 -227 -378 -103 -180 -115
-208 -126 -275 -30 -194 39 -548 160 -814 75 -166 402 -352 777 -442 l109 -26
80 -77 c49 -47 105 -89 140 -107 71 -34 111 -36 360 -15 105 8 274 12 490 9
l330 -3 47 -28 c44 -26 75 -60 119 -135 25 -43 83 -68 182 -81 83 -10 237 0
342 22 54 12 64 11 97 -6 48 -24 163 -32 258 -18 41 7 107 16 145 21 80 11
169 53 199 94 24 31 33 137 18 204 l-10 42 34 0 c57 0 185 -30 247 -57 51 -23
62 -34 102 -97 24 -39 53 -92 64 -117 17 -38 29 -50 63 -64 61 -24 190 -34
310 -22 133 12 123 12 193 -7 74 -20 131 -20 220 0 77 18 96 19 138 9 23 -6
38 0 83 30 63 44 144 146 144 182 0 24 2 25 38 18 67 -12 181 -66 279 -132
l96 -64 80 32 79 32 58 -31 57 -32 88 30 c81 27 94 29 149 20 80 -13 193 -3
232 21 32 19 118 107 144 147 l15 23 128 -13 c275 -26 745 42 1190 173 117 35
164 43 267 49 104 6 140 13 211 39 90 33 236 122 304 185 l40 37 -42 -4 c-24
-3 -43 -3 -43 0 0 4 18 21 39 40 41 35 143 168 135 176 -2 2 -25 -7 -51 -19
-48 -25 -73 -30 -73 -15 0 4 20 51 44 102 47 100 89 209 81 209 -3 0 -51 -47
-107 -104 -125 -125 -386 -321 -405 -302 -4 3 8 22 26 40 53 54 33 62 -39 15
-103 -66 -202 -173 -247 -267 l-38 -80 -105 -26 c-203 -50 -334 -68 -546 -73
-263 -7 -511 19 -690 72 -47 14 -50 17 -78 81 -35 80 -99 167 -156 213 -54 43
-130 52 -215 26 l-56 -18 -80 42 -80 43 -122 -27 c-194 -42 -193 -42 -217 -80
-19 -31 -25 -34 -58 -30 -20 2 -72 7 -115 10 -199 15 -446 128 -561 256 -53
58 -99 162 -140 317 -43 166 -86 253 -150 312 -162 148 -256 270 -379 494
l-54 97 19 62 c10 34 28 113 39 175 10 63 28 144 38 180 41 141 57 352 38 520
-5 40 -4 72 0 72 19 0 145 -113 210 -189 37 -43 69 -73 71 -66 6 27 -61 203
-122 320 -63 121 -172 298 -268 433 -28 40 -49 74 -47 76 2 2 42 -3 89 -10 97
-15 160 -17 160 -6 0 4 -25 18 -56 31 -58 25 -139 79 -131 87 4 5 75 -5 160
-22 48 -10 31 19 -30 51 -97 50 -329 289 -452 465 l-34 48 21 30 c22 31 67 42
170 42 53 0 58 25 7 34 -19 4 -37 12 -41 18 -5 8 14 9 65 6 75 -6 101 5 54 22
-100 36 -143 56 -143 68 0 7 14 39 30 72 22 44 30 73 30 112 0 109 -74 399
-122 476 -23 37 -74 66 -136 77 -57 9 -104 -14 -228 -117 l-99 -83 -70 -3 -70
-4 75 49 c129 86 262 211 406 385 19 22 32 44 28 49 -3 5 -23 0 -45 -12 -92
-47 -181 -60 -439 -69 -135 -4 -254 -10 -265 -14 -11 -5 -3 8 20 28 49 43 190
123 317 178 107 47 119 55 98 68 -20 13 -233 12 -345 0 -191 -22 -373 -85
-499 -173 -36 -25 -66 -43 -66 -38 0 20 66 104 111 142 50 42 196 134 230 144
35 11 21 28 -18 20 -104 -19 -273 -106 -355 -183 -61 -56 -61 -37 -3 58 64
102 118 164 205 233 67 54 256 156 288 157 6 0 12 7 12 17 0 14 -11 15 -101 9
-292 -19 -599 -141 -863 -344 -64 -50 -76 -47 -76 19 0 60 56 156 138 237 40
40 72 77 70 81 -2 5 -28 -2 -58 -15z m418 -103 c-275 -161 -512 -444 -513
-613 l0 -57 -30 23 c-48 37 -88 110 -93 170 -3 42 1 62 22 104 14 28 36 57 48
63 13 7 48 34 80 60 109 91 335 217 480 269 79 28 80 24 6 -19z m-777 -198
c-112 -134 -151 -201 -171 -294 -18 -82 -8 -92 19 -19 22 61 80 165 87 157 2
-1 -9 -37 -23 -78 -23 -64 -27 -91 -27 -194 -1 -114 0 -122 27 -167 15 -27 25
-48 22 -48 -17 0 -54 27 -87 62 l-36 40 -16 -55 c-27 -92 -15 -184 26 -200 8
-3 5 -6 -6 -6 -28 -1 -92 69 -105 114 -14 50 -14 163 -1 280 18 156 18 155
172 308 140 138 177 169 119 100z m1193 -184 c-5 -9 1 -10 22 -5 24 5 26 4 11
-5 -10 -6 -27 -9 -37 -6 -10 2 -40 -1 -66 -9 -29 -7 -39 -13 -25 -13 20 -1 21
-3 11 -16 -13 -15 -35 -21 -27 -7 3 4 -10 7 -29 8 -38 1 -34 -12 5 -18 14 -1
26 -8 28 -14 5 -14 -69 -54 -97 -54 -11 0 -20 -6 -20 -14 0 -8 -16 -20 -35
-27 -19 -7 -35 -16 -35 -20 0 -4 -11 -10 -25 -13 -14 -4 -23 -10 -20 -15 2 -5
-5 -16 -18 -24 -31 -20 -94 -83 -113 -113 -9 -13 -20 -21 -26 -18 -5 3 -9 0
-7 -7 3 -28 -1 -39 -16 -39 -8 0 -16 -4 -16 -10 -1 -5 -3 -14 -4 -20 -1 -5 -3
-18 -4 -27 -1 -14 -4 -14 -13 -5 -10 10 -10 15 2 22 8 5 11 10 5 10 -13 0 -15
70 -2 70 5 0 6 7 3 16 -15 39 64 149 164 228 31 25 217 112 255 120 17 3 53
13 80 20 28 8 51 15 53 15 2 1 0 -4 -4 -10z m-1791 -409 c41 -37 54 -55 50
-70 -4 -14 2 -22 20 -29 32 -12 43 -31 26 -42 -7 -4 -44 -15 -81 -25 -54 -13
-68 -20 -68 -35 0 -13 7 -19 23 -19 13 0 26 -3 30 -6 7 -7 -14 -44 -26 -44 -4
0 -5 5 -2 10 3 6 1 10 -4 10 -6 0 -11 -6 -11 -12 -1 -16 -21 -31 -137 -101
l-91 -55 -31 106 c-33 114 -32 124 3 221 18 49 31 61 120 108 87 46 113 44
179 -17z m1068 -10 c71 -42 166 -139 176 -179 6 -22 -9 -287 -23 -421 -4 -36
-3 -51 3 -45 6 6 17 111 26 234 l16 225 38 54 c35 52 121 128 131 117 3 -3 -4
-15 -15 -28 -30 -32 -63 -98 -63 -124 0 -30 5 -29 48 9 20 17 69 46 109 65
118 55 295 86 197 35 -40 -20 -94 -74 -94 -92 0 -5 19 0 43 10 31 14 64 19
122 19 l80 0 -40 -15 c-22 -8 -47 -21 -55 -29 -13 -13 -9 -15 30 -15 60 -1
118 -28 170 -81 39 -40 110 -140 110 -154 0 -4 -17 7 -37 24 -74 61 -71 40 18
-109 184 -312 289 -610 289 -817 l-1 -78 -37 44 -38 43 4 -151 c3 -83 2 -151
-2 -151 -3 0 -24 20 -47 45 -23 25 -46 45 -51 45 -6 0 -7 -20 -3 -51 l7 -52
-68 7 c-98 10 -172 32 -226 69 -39 26 -77 74 -66 82 2 1 24 12 50 24 50 24
133 105 123 122 -4 5 -27 -13 -51 -40 -32 -35 -61 -56 -100 -70 -68 -26 -95
-26 -142 -2 -43 22 -67 46 -77 80 -7 22 -5 23 21 15 37 -10 99 -7 125 6 34 19
108 130 125 188 19 65 15 153 -11 201 -16 32 -16 32 5 21 38 -20 134 -124 179
-193 41 -63 61 -82 61 -56 0 7 -9 26 -20 45 -13 19 -27 72 -35 130 -26 169
-55 248 -85 229 -8 -5 -7 -13 3 -28 8 -12 18 -40 22 -62 5 -22 9 -44 11 -50
27 -111 29 -129 13 -120 -6 4 -8 14 -5 22 3 8 1 11 -5 8 -5 -4 -22 6 -37 21
-17 17 -21 25 -10 21 13 -4 16 -1 13 15 -3 11 -7 23 -11 27 -4 3 -4 -2 -1 -12
5 -13 3 -17 -5 -14 -7 2 -12 10 -10 17 2 11 0 11 -11 2 -12 -10 -25 -5 -66 23
-65 43 -121 59 -189 52 l-53 -6 41 52 c23 29 60 71 82 95 l41 43 -74 -3 -73
-3 -17 -83 c-9 -46 -23 -88 -32 -95 -9 -7 -29 -75 -50 -167 l-35 -154 19 -42
c24 -57 121 -356 152 -472 21 -78 23 -93 10 -88 -130 50 -312 23 -489 -73
l-55 -30 -63 48 c-119 90 -283 153 -403 154 l-72 0 13 31 c7 17 26 60 41 96
15 36 68 145 117 243 l90 179 -13 170 c-9 115 -17 172 -25 175 -8 3 -15 38
-20 94 -5 69 -10 89 -23 93 -32 9 -111 17 -111 12 0 -3 15 -29 34 -58 40 -64
89 -158 81 -158 -3 0 -18 6 -33 14 -95 47 -220 12 -359 -102 -29 -23 -53 -38
-53 -33 0 32 27 125 51 180 33 73 33 71 18 71 -18 0 -69 -123 -84 -206 -12
-62 -22 -85 -45 -109 -28 -28 -39 -55 -24 -55 4 0 48 39 98 88 51 48 115 100
144 115 29 16 52 26 52 24 0 -3 -12 -26 -27 -53 -24 -42 -28 -60 -28 -129 0
-87 15 -134 67 -211 42 -64 122 -83 186 -44 36 22 38 20 17 -20 -16 -32 -61
-61 -120 -80 -74 -24 -132 -10 -187 45 -15 15 -33 25 -40 23 -18 -7 47 -67 91
-85 50 -21 109 -19 164 5 26 11 47 19 47 16 0 -2 -23 -55 -51 -117 -29 -61
-60 -134 -69 -162 -10 -27 -30 -72 -45 -100 -24 -44 -26 -58 -22 -122 5 -96
39 -152 124 -209 58 -39 159 -82 169 -71 2 2 -4 25 -15 51 -11 25 -17 46 -12
46 14 0 125 -81 171 -125 46 -44 97 -75 125 -75 19 0 19 -4 0 -205 -8 -88 -15
-165 -15 -172 0 -6 -33 -25 -74 -42 -192 -80 -388 -85 -531 -13 -104 52 -213
196 -245 325 -8 29 -18 47 -27 47 -16 0 -15 -9 23 -115 33 -94 112 -198 189
-250 94 -63 158 -80 300 -80 130 1 205 16 306 61 l58 26 39 -31 c122 -96 349
-151 507 -122 167 30 340 168 390 311 11 32 11 39 0 44 -9 3 -24 -17 -44 -60
-58 -124 -194 -230 -340 -264 -147 -35 -401 28 -504 126 -32 29 -31 11 -3 294
l11 115 53 7 c61 9 81 18 137 63 53 43 122 77 148 73 19 -3 17 -8 -25 -53 -26
-27 -45 -51 -44 -52 2 -2 32 6 68 17 64 20 182 88 205 119 6 9 15 13 19 8 4
-4 2 -7 -4 -7 -7 0 -12 -4 -12 -9 0 -4 24 -4 53 1 28 6 71 8 93 5 39 -4 49 -9
88 -44 8 -7 17 -9 20 -6 11 11 86 14 86 3 0 -5 5 -10 11 -10 6 0 9 7 5 15 -4
12 -2 13 13 6 10 -6 21 -8 24 -5 9 9 58 -75 80 -136 24 -69 19 -180 -12 -260
-34 -89 -111 -182 -199 -241 -59 -39 -82 -62 -100 -97 -32 -63 -81 -128 -138
-182 -44 -43 -46 -44 -40 -17 3 15 4 27 1 27 -17 0 -175 -87 -245 -135 -52
-35 -80 -49 -75 -38 27 62 38 103 32 109 -19 19 -178 -176 -226 -276 -14 -30
-27 -57 -28 -59 -2 -2 -67 59 -146 136 -133 131 -221 203 -232 191 -3 -3 2
-24 10 -48 8 -24 14 -44 13 -46 -2 -1 -46 36 -98 82 -104 93 -197 161 -206
151 -3 -3 7 -25 24 -49 16 -24 35 -54 42 -68 l13 -24 -29 18 c-152 97 -194
146 -237 273 -21 65 -31 78 -111 153 -141 135 -192 251 -184 425 3 72 10 100
31 141 31 61 110 135 172 160 41 17 47 25 77 93 39 90 133 249 187 316 22 27
38 52 35 56 -2 4 -41 -14 -87 -40 -234 -134 -322 -132 -272 8 8 22 11 41 8 41
-4 0 -30 -14 -60 -30 -29 -17 -53 -28 -53 -25 0 22 36 157 51 193 11 24 19 46
19 48 0 14 -25 -2 -74 -47 l-56 -51 0 38 c0 56 34 187 70 274 17 41 34 83 37
93 7 22 -14 22 -39 0 -10 -9 -18 -12 -18 -7 0 20 121 217 187 306 74 97 225
250 281 283 48 29 43 48 -10 40 -24 -3 -51 -9 -60 -11 -33 -10 -18 13 46 73
109 103 233 163 333 163 49 0 41 23 -18 50 -28 13 -52 27 -54 30 -6 9 100 1
153 -11 24 -5 64 -19 88 -31 25 -11 47 -18 49 -16 3 3 -6 27 -20 54 -14 27
-25 50 -25 52 0 7 21 -2 81 -38z m1604 -240 c22 -16 57 -46 79 -68 37 -39 38
-43 43 -124 5 -79 4 -87 -26 -146 -17 -34 -36 -62 -42 -62 -21 0 -229 123
-229 135 0 7 -7 18 -15 25 -8 6 -14 15 -13 18 2 21 -4 42 -16 55 -13 12 -5 16
55 27 43 7 69 16 66 23 -2 6 -39 18 -82 25 l-79 14 35 29 c55 46 142 89 164
82 11 -3 38 -18 60 -33z m-2545 -42 c-19 -12 -38 -27 -42 -33 -4 -5 -8 -7 -8
-3 0 10 -76 -57 -155 -137 -39 -39 -81 -94 -95 -123 -14 -28 -28 -52 -33 -52
-4 0 -12 -11 -17 -25 -5 -14 -25 -33 -45 -42 -38 -18 -45 -39 -18 -58 13 -9
13 -14 3 -20 -9 -5 -11 -4 -6 3 4 7 1 12 -8 12 -8 0 -20 8 -25 18 -6 9 -11 12
-11 7 0 -6 6 -17 13 -24 10 -11 9 -14 -2 -18 -21 -8 -52 -43 -46 -52 2 -5 -6
-8 -20 -7 -16 0 -23 6 -20 13 3 10 0 10 -15 1 -19 -12 -19 -13 2 -21 11 -4 19
-10 16 -12 -3 -3 -17 -1 -32 5 -46 17 -54 10 -9 -8 39 -16 41 -18 23 -30 -16
-9 -18 -9 -14 2 5 14 -24 31 -35 20 -3 -4 0 -9 7 -11 10 -4 8 -9 -5 -20 -17
-14 -17 -14 2 -8 13 4 16 3 10 -3 -5 -5 -26 -12 -45 -15 -19 -3 -29 -3 -22 0
10 4 9 9 -4 24 -9 11 -14 22 -10 26 4 4 12 1 17 -7 9 -12 10 -11 5 4 -4 12 1
27 15 43 13 12 19 23 15 23 -10 0 -59 -59 -68 -81 -5 -13 -3 -17 8 -12 12 4
14 -1 10 -22 -4 -22 -2 -26 12 -21 9 4 4 -4 -13 -18 -16 -13 -35 -22 -42 -19
-7 3 -20 -2 -28 -11 -9 -9 -23 -16 -31 -16 -8 0 -14 -5 -14 -11 0 -6 -7 -8
-15 -5 -8 3 -22 9 -32 13 -11 4 -14 3 -9 -5 4 -7 2 -12 -6 -12 -9 0 -9 -3 2
-10 12 -8 11 -10 -5 -10 -11 0 -32 -7 -45 -16 -37 -24 211 215 295 285 14 11
18 10 31 -5 14 -18 15 -18 5 2 -9 18 -5 26 22 51 53 48 108 82 126 76 12 -3
13 -2 3 4 -11 8 16 31 106 89 2 2 -1 11 -8 21 -10 16 -11 16 -6 1 7 -22 -12
-24 -21 -2 -3 9 -9 12 -12 7 -6 -8 -223 -65 -228 -60 -4 5 174 137 185 137 5
0 12 4 14 8 8 19 68 52 85 46 13 -4 14 -3 5 4 -18 13 129 89 228 118 96 28
102 28 60 2z m-295 -536 c-6 -5 -37 -29 -70 -55 -57 -43 -272 -244 -250 -233
6 2 70 45 144 95 74 50 138 88 143 85 5 -3 -9 -25 -31 -50 -62 -66 -211 -317
-198 -331 5 -4 35 15 118 76 18 13 18 12 5 -25 -7 -22 -34 -81 -60 -132 -25
-50 -46 -94 -46 -96 0 -5 131 29 223 58 l48 14 -20 -31 c-11 -17 -54 -75 -95
-128 -42 -53 -76 -99 -76 -103 0 -3 -18 -31 -40 -62 -22 -32 -40 -62 -40 -67
0 -6 33 21 73 58 39 38 98 93 130 123 31 30 57 49 57 43 0 -6 -13 -38 -30 -71
-16 -32 -27 -66 -24 -74 3 -8 -9 -43 -26 -78 -61 -119 -209 -532 -195 -546 2
-3 9 6 14 19 18 50 54 120 58 115 2 -2 -12 -53 -32 -112 -20 -60 -42 -152 -49
-204 -12 -88 -13 -92 -21 -56 -20 99 19 399 75 562 15 46 26 84 23 84 -3 0
-18 -9 -34 -21 -39 -27 -37 -18 12 47 22 31 39 57 37 60 -3 2 -32 -14 -65 -35
-34 -22 -63 -37 -66 -35 -3 3 -14 -7 -26 -22 -15 -19 -21 -22 -21 -10 0 19
-11 21 -28 4 -16 -16 -15 -31 1 -23 6 4 3 -1 -8 -9 -11 -9 -37 -33 -58 -53
l-38 -38 7 30 c19 83 115 252 190 334 61 69 28 65 -71 -8 -70 -52 -84 -59 -55
-26 23 26 40 45 74 85 31 36 28 43 -8 21 -20 -13 -39 -21 -42 -18 -3 3 13 33
36 67 23 34 40 64 37 66 -7 8 -163 -109 -248 -186 -90 -82 -185 -195 -231
-277 -17 -30 -32 -52 -35 -50 -6 7 55 154 85 206 30 52 163 230 229 307 24 29
43 56 41 60 -1 5 22 33 52 63 31 30 43 47 28 37 -46 -27 -44 -18 7 34 27 27
46 52 43 56 -10 10 -70 -13 -133 -51 -32 -19 -60 -35 -62 -35 -7 0 54 78 96
124 41 45 32 41 -59 -23 -123 -86 -251 -218 -338 -348 -19 -29 -36 -53 -38
-53 -2 0 5 17 14 38 146 313 424 604 717 749 44 22 91 45 105 51 30 13 58 15
45 4z m-735 -2318 c40 -123 54 -122 65 8 9 103 8 105 35 -81 25 -178 93 -355
191 -497 65 -94 181 -215 186 -194 2 8 -3 60 -11 115 -8 55 -12 102 -10 104 2
2 16 -17 31 -42 15 -26 34 -47 42 -47 8 0 11 -3 8 -6 -9 -10 33 -65 44 -59 5
4 6 0 4 -7 -10 -26 190 -205 337 -301 115 -75 408 -195 394 -162 -3 8 -9 22
-13 32 -7 19 -11 21 100 -54 97 -64 248 -141 347 -177 41 -15 103 -39 136 -52
l62 -25 198 11 c250 14 864 7 914 -11 83 -29 114 -74 175 -253 42 -124 56
-247 36 -309 -11 -32 -52 -77 -70 -77 -4 0 -12 26 -19 59 -7 32 -25 91 -42
132 -16 41 -38 106 -50 146 -19 68 -34 92 -47 80 -3 -3 6 -39 20 -79 13 -40
32 -115 41 -166 17 -93 17 -93 -5 -129 -40 -64 -192 -110 -302 -89 -33 6 -35
9 -42 54 -20 137 -115 402 -145 402 -19 0 -15 -16 16 -68 48 -79 66 -142 71
-247 8 -168 -22 -187 -287 -189 l-155 -1 -67 33 c-53 26 -69 39 -74 60 -19 80
-91 170 -164 207 -113 57 -316 60 -594 8 -52 -9 -92 -21 -89 -27 4 -5 -6 -6
-23 -3 -16 3 -23 4 -16 1 6 -3 10 -9 7 -14 -3 -4 5 -6 17 -2 13 3 19 1 15 -5
-4 -5 -57 -13 -119 -17 -62 -3 -150 -13 -194 -22 -97 -18 -150 -9 -234 39 -72
41 -217 190 -287 296 -60 91 -203 351 -203 369 0 35 -58 -16 -81 -71 -13 -30
-14 -22 -19 108 l-5 140 -26 -40 c-14 -22 -35 -65 -46 -95 l-21 -55 -7 36 c-4
20 -5 91 -3 158 l3 122 -23 -28 c-12 -15 -29 -52 -38 -80 -8 -29 -18 -53 -20
-53 -3 0 -2 24 1 53 20 170 72 368 139 526 20 47 34 87 32 89 -12 11 -28 -17
-65 -111 -89 -229 -138 -471 -127 -630 6 -89 20 -138 29 -107 3 8 8 53 11 100
3 47 11 101 18 120 12 33 13 29 19 -80 4 -78 11 -128 23 -155 l18 -40 13 60
c7 33 21 78 31 100 l19 40 5 -130 c3 -72 9 -136 14 -143 14 -22 24 -12 30 31
7 44 39 107 55 107 5 0 30 -42 56 -92 59 -117 144 -258 192 -322 l37 -48 -35
7 c-70 15 -266 75 -328 100 -259 106 -426 230 -487 360 -112 244 -180 580
-154 772 10 79 18 100 72 198 82 147 171 291 281 457 l92 136 21 -107 c12 -59
31 -139 44 -177z m4378 -807 c2 -9 -6 -26 -17 -39 -12 -12 -21 -29 -21 -37 0
-13 2 -14 9 -2 8 12 10 12 14 0 2 -8 3 -4 1 7 -2 13 3 24 12 28 12 5 15 2 10
-11 -4 -9 -3 -19 1 -22 5 -3 17 -33 27 -66 27 -91 91 -215 132 -258 53 -56
130 -110 220 -155 80 -40 229 -92 265 -92 26 0 24 -12 -5 -40 -43 -40 -74
-160 -41 -160 10 0 15 10 15 30 0 47 24 94 63 126 34 27 39 28 134 25 54 -1
107 -8 118 -13 39 -21 116 -87 154 -133 40 -49 123 -194 127 -223 2 -9 -3 -42
-11 -74 -7 -32 -9 -58 -4 -58 5 0 9 6 9 14 0 18 31 29 54 20 9 -3 16 -1 16 5
0 6 9 11 19 11 11 0 22 6 25 13 4 6 4 2 2 -10 -2 -12 1 -24 8 -26 7 -3 6 -9
-4 -22 -9 -11 -10 -16 -3 -11 7 4 18 16 24 28 8 15 8 19 0 14 -6 -4 -11 0 -11
8 0 9 6 13 14 10 16 -6 48 50 69 124 14 47 14 51 -6 85 -61 101 -198 222 -284
253 -64 22 -165 11 -148 -17 4 -6 -7 -3 -24 5 -30 16 -31 17 -15 41 9 14 19
25 22 25 3 0 69 14 148 31 l142 32 80 -44 c87 -48 158 -119 249 -251 l46 -68
-17 -61 c-18 -68 -87 -204 -97 -195 -2 2 -13 -6 -24 -17 l-20 -20 24 13 25 13
-25 -30 c-37 -47 -76 -69 -183 -106 l-99 -35 -47 29 c-26 16 -52 29 -58 29 -6
0 -46 -14 -88 -30 -59 -24 -79 -28 -90 -19 -8 6 -11 15 -8 20 3 5 -1 6 -9 3
-20 -7 -38 18 -26 36 8 13 10 13 19 0 6 -9 10 -10 10 -3 0 21 -23 26 -36 8
-13 -18 -14 -18 -34 0 -11 10 -17 22 -13 28 4 6 0 8 -10 4 -10 -3 -17 -2 -17
3 0 5 -6 7 -14 4 -8 -3 -16 -2 -19 3 -5 7 59 9 73 2 3 -1 17 -3 32 -3 30 -2
30 3 -2 93 -12 33 -31 69 -41 80 -44 48 -193 111 -294 127 -41 6 -51 13 -91
65 -55 72 -122 119 -177 127 -27 3 -56 17 -81 38 -57 49 -113 64 -238 64 -98
0 -127 -7 -98 -25 6 -4 8 -11 5 -16 -7 -11 -122 -12 -127 -1 -8 21 -107 77
-148 84 -62 12 -61 12 -95 3 -28 -8 -29 -7 -16 9 8 10 21 14 30 11 13 -5 14
-4 3 7 -11 11 -17 8 -36 -13 -23 -26 -66 -45 -66 -28 0 5 -3 8 -7 8 -23 -4
-38 6 -91 59 -61 59 -93 105 -71 100 6 -2 13 2 16 9 3 8 -3 11 -16 8 -11 -2
-23 0 -26 6 -4 5 -1 9 5 9 6 0 8 5 5 10 -4 6 -11 7 -18 3 -6 -3 -1 8 12 25 19
28 28 32 67 32 35 0 44 -3 44 -17 0 -10 5 -25 11 -33 8 -11 9 -7 5 18 -7 40 7
42 24 2 15 -37 41 -61 33 -31 -3 12 -10 21 -15 21 -6 0 -8 12 -5 30 5 24 4 28
-11 23 -14 -5 -15 -3 -4 8 6 7 12 32 12 56 0 75 21 191 36 197 8 3 14 1 14 -4
0 -6 5 -10 10 -10 6 0 10 8 10 19 0 10 7 24 16 31 13 12 14 10 4 -12 -10 -21
-9 -31 6 -54 l18 -29 -23 20 -24 20 17 -27 c15 -22 22 -26 36 -18 24 13 33 13
25 0 -3 -6 1 -7 10 -4 10 4 14 13 10 23 -4 10 -3 13 3 6 6 -5 12 -19 15 -30 3
-14 5 -12 7 10 1 26 3 27 10 10 6 -15 9 -16 9 -4 1 13 14 16 64 18 34 1 64 6
65 11 2 6 21 10 43 10 21 0 39 5 39 10 0 6 18 10 40 10 22 0 40 5 40 11 0 7
17 10 45 7 36 -2 45 0 44 12 -3 30 1 42 14 38 6 -3 13 -12 15 -21z m-1066
-477 c-34 -22 -62 -44 -62 -50 0 -5 21 -10 48 -10 73 -1 200 -33 254 -65 16
-9 16 -14 3 -50 -16 -44 -20 -131 -6 -139 4 -3 18 6 31 19 13 13 27 22 32 19
5 -3 26 10 48 30 50 45 99 69 181 90 76 19 132 20 161 5 12 -6 45 -30 73 -53
51 -42 52 -42 111 -35 133 17 172 12 230 -26 29 -20 58 -43 63 -53 6 -9 11
-13 11 -9 0 5 14 -3 32 -18 20 -17 38 -25 52 -21 12 3 28 1 36 -5 13 -8 13
-11 -3 -23 -17 -13 -14 -22 47 -146 79 -159 84 -195 34 -234 -35 -25 -92 -44
-119 -39 -20 5 -49 55 -49 85 0 13 -15 46 -34 74 -35 52 -331 354 -347 354
-21 0 -3 -27 101 -155 79 -98 107 -140 103 -153 -27 -70 -81 -118 -166 -146
-49 -16 -238 -21 -284 -8 -12 4 -36 27 -54 52 -53 74 -289 307 -360 355 -72
48 -183 99 -239 110 -25 4 -43 17 -59 40 -27 40 -52 57 -104 75 l-39 12 27 28
c37 39 136 90 215 111 95 26 100 23 32 -21z m2734 -138 c116 -84 224 -313 194
-409 -16 -50 -70 -134 -81 -127 -5 3 -6 -1 -3 -9 5 -13 -58 -78 -107 -110 -22
-14 -111 -23 -189 -18 -24 1 -23 4 22 46 26 25 44 45 41 45 -3 0 0 7 7 15 6 8
25 40 41 72 15 32 29 50 29 41 0 -9 4 -19 8 -22 4 -2 7 12 5 32 -3 36 -3 37 8
9 10 -26 12 -27 25 -10 13 17 13 17 14 -2 1 -21 59 100 60 124 0 27 -64 131
-110 178 -27 27 -66 58 -87 68 -41 21 -93 64 -93 77 0 12 61 26 121 27 46 1
63 -4 95 -27z m-1405 -224 c0 -10 2 -10 6 -1 5 13 14 10 52 -16 12 -8 12 -12
2 -25 -11 -13 -10 -18 2 -31 18 -18 47 -20 47 -3 0 6 11 1 25 -12 13 -12 22
-26 20 -30 -3 -4 4 -15 15 -25 11 -10 16 -24 13 -33 -5 -11 -3 -13 7 -7 10 6
12 4 7 -8 -4 -10 0 -20 11 -26 9 -5 13 -13 8 -18 -5 -4 -11 -2 -13 5 -3 6 -9
12 -15 12 -5 0 4 -16 22 -36 17 -20 29 -39 26 -42 -3 -3 -7 -3 -8 -1 -2 2 -21
24 -43 48 -23 25 -32 41 -22 38 11 -4 17 -1 17 7 0 9 -7 12 -20 9 -13 -4 -39
11 -82 47 -62 51 -111 120 -87 120 7 0 5 8 -6 20 -16 18 -16 20 -2 20 10 0 17
-6 18 -12z m3019 -58 c8 -5 12 -11 10 -13 -11 -9 -352 -98 -455 -118 -87 -17
-149 -22 -295 -23 -198 -1 -350 12 -295 25 28 6 29 7 5 9 -24 2 -24 3 5 10 23
6 25 8 8 9 -12 0 -24 5 -28 10 -3 6 8 8 27 6 238 -29 624 1 883 69 103 28 115
29 135 16z"/>
</g>
</svg>
