<?xml version="1.0" standalone="no"?>
<!DOCTYPE svg PUBLIC "-//W3C//DTD SVG 20010904//EN"
 "http://www.w3.org/TR/2001/REC-SVG-20010904/DTD/svg10.dtd">
<svg version="1.0" xmlns="http://www.w3.org/2000/svg"
 width="900.000000pt" height="1000.000000pt" viewBox="0 0 900.000000 1000.000000"
 preserveAspectRatio="xMidYMid meet">
<metadata>
Created by potrace 1.15, written by Peter Selinger 2001-2017
</metadata>
<g transform="translate(0.000000,1000.000000) scale(0.100000,-0.100000)"
fill="#000000" stroke="none">
<path d="M2457 9989 c-21 -5 -50 -15 -66 -23 -45 -24 -116 -110 -139 -168 -31
-82 -99 -313 -122 -416 -68 -309 -66 -689 6 -1037 l24 -120 -338 -335 c-377
-373 -462 -475 -556 -665 -121 -245 -142 -440 -75 -688 26 -96 126 -296 189
-379 197 -259 534 -515 932 -708 142 -69 434 -168 591 -201 l109 -23 -7 -65
c-18 -171 -91 -384 -195 -571 -204 -366 -259 -754 -168 -1195 25 -123 40 -170
53 -168 6 1 12 19 15 40 5 37 5 36 29 -37 46 -145 145 -356 212 -452 17 -23
19 -46 19 -175 0 -340 -50 -714 -130 -982 l-20 -66 -86 -44 c-184 -94 -426
-271 -619 -454 -126 -120 -122 -135 21 -76 54 22 110 45 123 50 14 6 -38 -54
-115 -133 -154 -159 -265 -299 -351 -446 -59 -101 -130 -259 -157 -349 l-15
-53 42 0 c23 0 78 14 122 31 311 119 667 129 1045 28 198 -54 223 -58 305 -58
l80 0 -135 28 c-74 16 -175 40 -225 54 -364 103 -714 101 -1030 -7 -55 -18
-112 -39 -128 -46 -15 -7 -29 -11 -32 -8 -9 9 45 152 96 255 114 231 334 507
553 693 69 59 92 90 66 90 -5 0 -64 -23 -131 -50 -67 -28 -124 -48 -126 -46
-5 5 142 139 232 211 206 166 496 326 730 404 417 139 836 131 1310 -26 155
-51 159 -53 231 -123 29 -29 51 -43 51 -35 0 8 -4 15 -9 15 -5 0 -6 5 -2 12 4
6 3 8 -3 5 -5 -3 -22 5 -39 18 l-29 24 43 -16 c23 -9 42 -20 42 -25 0 -5 4 -7
8 -4 10 6 10 -40 0 -49 -4 -4 5 -25 19 -46 24 -37 38 -43 38 -17 0 6 6 13 14
16 9 3 11 0 6 -8 -6 -9 -4 -11 4 -6 9 6 8 13 -5 27 -21 23 -7 25 18 2 17 -15
17 -18 2 -34 -14 -16 -14 -20 0 -46 8 -15 15 -24 16 -20 0 5 -5 18 -11 29 -7
13 -7 24 -1 30 6 6 12 0 16 -18 6 -22 9 -25 17 -13 13 20 11 59 -3 59 -6 0
-22 10 -35 22 l-23 21 -25 -23 c-25 -23 -37 -16 -13 8 9 9 9 12 0 12 -7 0 -12
-5 -12 -11 0 -5 -5 -7 -10 -4 -8 5 -7 11 0 20 7 8 9 19 6 24 -4 5 -1 13 5 17
8 5 9 3 4 -6 -6 -10 -4 -12 10 -6 11 4 25 0 37 -11 11 -10 21 -16 22 -14 5 15
103 -46 497 -309 461 -309 550 -359 759 -432 207 -71 433 -95 621 -63 129 21
311 80 434 140 206 101 539 355 465 355 -6 0 -56 -38 -113 -84 -442 -361 -892
-472 -1347 -334 -90 27 -261 102 -347 151 -65 38 -91 66 -85 90 1 5 -2 6 -8 2
-6 -3 -7 -11 -4 -17 4 -6 1 -8 -7 -6 -8 3 -13 11 -11 18 2 7 -3 10 -11 7 -17
-6 -70 37 -59 48 4 5 -1 5 -10 2 -10 -3 -25 1 -35 11 -10 9 -14 14 -9 10 6 -5
17 -8 26 -7 8 0 4 5 -10 11 -14 6 -31 10 -39 9 -8 -1 -10 2 -5 10 5 8 3 10 -5
5 -14 -9 -51 21 -51 41 0 7 -5 13 -11 13 -5 0 -7 -5 -3 -11 4 -7 1 -10 -7 -7
-8 3 -13 11 -11 17 1 7 -2 10 -8 6 -5 -3 -19 0 -31 8 -15 11 -17 17 -8 23 7 4
14 3 17 -4 2 -8 7 -8 16 1 8 6 11 19 8 27 -4 12 -2 12 8 3 16 -15 40 -6 40 15
0 13 -2 13 -13 -3 -8 -10 -17 -14 -20 -8 -9 15 39 57 54 48 8 -5 10 -4 5 3 -4
7 -2 12 4 12 6 0 8 5 5 10 -3 6 -2 10 4 10 17 0 23 -20 11 -35 -8 -9 -8 -15
-2 -15 11 0 35 60 27 68 -3 3 -5 0 -5 -6 0 -7 -5 -12 -11 -12 -8 0 -7 7 2 21
8 11 17 19 20 17 3 -2 13 3 22 11 15 12 21 9 19 -10 -2 -12 40 4 45 17 3 7 -2
22 -10 34 -14 21 -15 21 -40 -10 -15 -17 -28 -29 -30 -28 -7 5 -76 -60 -70
-66 4 -3 2 -6 -4 -6 -6 0 -28 -16 -49 -35 -21 -19 -34 -35 -28 -35 5 0 -4 -7
-20 -15 l-30 -16 -198 132 c-195 131 -198 133 -215 183 -26 73 -25 307 0 389
14 42 26 61 43 69 13 6 24 16 24 22 0 20 18 39 29 31 9 -5 7 -11 -6 -21 -10
-7 12 -2 49 13 38 14 66 28 64 30 -2 2 -22 -4 -45 -13 -32 -12 -45 -14 -54 -5
-11 11 1 16 26 12 5 -1 6 2 3 7 -2 4 11 8 30 8 19 0 40 6 46 13 11 10 8 10
-15 2 -37 -14 -57 -14 -37 0 13 9 12 10 -3 5 -14 -5 -16 -1 -12 22 3 15 2 21
-1 15 -3 -7 -10 -13 -15 -13 -6 0 -7 5 -3 12 4 7 3 8 -5 4 -7 -5 -9 -12 -3
-19 12 -17 9 -40 -7 -45 -8 -3 -11 0 -7 7 5 7 1 9 -9 4 -13 -5 -14 -7 -3 -14
10 -7 9 -9 -3 -9 -10 0 -20 -11 -23 -26 -4 -15 -9 -24 -12 -21 -9 9 29 91 77
167 47 73 47 75 29 92 -22 21 -31 23 -25 6 2 -7 -7 -21 -20 -31 -20 -14 -24
-15 -19 -2 3 8 11 15 17 15 6 0 7 3 4 6 -10 11 13 45 25 38 7 -5 9 -2 5 9 -3
9 -1 19 5 23 7 4 8 3 4 -4 -4 -7 -3 -12 3 -12 5 0 11 8 13 18 3 13 8 10 21
-14 9 -17 23 -34 32 -38 9 -3 2 12 -16 34 -18 22 -36 37 -40 34 -23 -14 -3 27
49 100 125 177 371 394 567 502 75 40 89 54 75 68 -11 11 -180 -86 -295 -172
-49 -37 -132 -107 -183 -157 l-93 -91 -47 39 c-26 21 -50 42 -54 46 -4 4 6 61
23 126 42 168 72 346 59 359 -15 15 -19 5 -31 -62 l-11 -60 -81 -35 c-45 -19
-98 -40 -118 -46 -30 -9 -38 -19 -48 -51 -8 -26 -16 -37 -25 -34 -10 4 -12 -2
-9 -19 3 -14 0 -28 -6 -31 -6 -4 -11 -15 -11 -25 0 -14 -11 -21 -37 -26 l-38
-8 28 -9 c15 -5 24 -14 21 -19 -4 -7 40 -9 120 -7 112 3 126 1 126 -14 0 -30
-82 -262 -142 -398 -32 -74 -90 -193 -130 -265 -76 -140 -232 -385 -245 -385
-4 0 -31 9 -60 20 -219 83 -562 150 -769 150 -30 0 -54 2 -54 5 0 3 11 28 25
56 38 74 110 253 140 349 15 47 33 99 40 115 12 27 54 200 57 233 1 9 5 9 12
2 21 -21 29 -9 8 13 -20 21 -21 29 -13 73 5 27 12 83 16 124 4 41 12 78 18 82
7 4 5 52 -7 150 -28 244 -38 435 -33 648 3 113 7 223 11 245 3 22 13 103 21
180 15 142 52 324 76 381 8 17 66 125 129 239 124 224 197 322 302 403 197
155 404 180 623 76 93 -44 159 -104 255 -232 93 -123 91 -117 61 -306 -14 -83
-17 -124 -10 -135 8 -12 9 -9 5 14 -3 17 26 -35 65 -113 55 -114 68 -147 58
-158 -6 -7 -15 -11 -20 -8 -5 3 -6 -1 -3 -9 3 -8 -3 -20 -12 -28 -16 -12 -17
-12 -12 1 4 11 -1 16 -15 18 -17 1 -18 -1 -8 -8 12 -7 12 -11 2 -24 -8 -9 -10
-16 -5 -16 4 0 2 -6 -4 -12 -7 -7 -18 -13 -25 -13 -6 0 -13 -9 -15 -20 -3 -26
146 130 200 208 22 33 44 55 48 50 4 -4 24 -51 45 -103 41 -106 144 -308 181
-357 13 -17 24 -37 24 -44 0 -6 -21 -60 -46 -120 -25 -60 -46 -112 -46 -116 1
-4 -5 -15 -12 -23 -8 -8 -19 -26 -25 -40 l-12 -25 20 25 c11 14 27 34 35 45
13 17 15 18 16 3 0 -9 -4 -20 -10 -23 -5 -3 -10 -11 -10 -17 0 -7 9 -2 21 11
20 21 20 23 4 41 -9 10 -14 24 -10 30 6 9 10 9 17 -1 6 -10 7 -6 2 11 -6 24
-5 24 17 -5 13 -16 43 -50 66 -75 29 -31 41 -51 38 -65 -3 -11 -2 -14 1 -7 11
24 24 12 22 -20 -3 -31 -29 -62 -53 -63 -5 -1 -18 7 -28 17 -10 10 -23 18 -29
18 -7 0 -3 -6 8 -14 11 -8 15 -18 10 -23 -5 -4 -11 -2 -13 5 -3 6 -9 12 -14
12 -6 0 -7 -6 -2 -12 12 -20 12 -39 1 -36 -6 2 -12 12 -14 22 -1 10 -5 21 -8
24 -9 8 -2 -30 7 -45 4 -6 1 -13 -5 -16 -10 -4 -10 -7 0 -18 11 -12 13 -12 10
0 -2 7 3 16 11 19 10 3 11 0 5 -9 -7 -12 -5 -12 9 0 9 7 14 18 10 24 -4 6 0 8
10 4 19 -7 122 71 188 144 l46 52 74 -63 c107 -90 224 -165 389 -248 224 -114
419 -235 520 -322 32 -28 33 -30 10 -25 -43 9 -242 25 -309 25 l-64 0 21 -23
22 -23 -36 3 c-20 1 -34 0 -31 -3 3 -3 24 -7 46 -8 29 -2 51 -11 74 -32 17
-16 34 -30 37 -32 2 -2 -2 -7 -10 -13 -11 -7 -9 -8 10 -7 18 2 25 -2 24 -14
-1 -9 4 -14 10 -12 6 2 28 -13 49 -35 l38 -40 -38 5 c-21 3 5 -7 57 -21 52
-14 175 -50 272 -80 98 -30 180 -55 183 -55 21 0 160 -255 208 -385 31 -82 77
-251 77 -281 0 -20 -3 -21 -57 -12 -73 12 -321 3 -393 -15 -48 -11 -51 -14
-28 -19 15 -3 25 -1 22 3 -3 5 7 9 23 9 26 -1 27 -2 10 -14 -21 -16 -15 -21
44 -36 63 -16 101 -22 63 -10 -17 5 -37 17 -44 25 -7 8 -18 15 -25 15 -7 0
-15 7 -19 15 -4 11 2 15 22 15 15 0 43 3 64 6 l36 6 13 -58 c7 -33 17 -65 22
-71 11 -15 -1 -17 -21 -5 -7 5 -10 17 -7 28 6 17 6 18 -5 1 -12 -19 -36 -24
-24 -5 4 7 3 8 -5 4 -6 -4 -17 -3 -24 2 -7 5 -30 13 -52 17 -22 3 -48 14 -57
22 -16 14 -18 14 -18 1 0 -10 22 -21 63 -32 128 -36 283 -122 390 -216 l48
-42 -6 -102 c-20 -338 -71 -563 -181 -795 -93 -197 -242 -397 -357 -479 l-46
-33 -7 28 c-13 54 -56 148 -95 205 -38 55 -59 66 -59 32 0 -9 -7 -22 -15 -30
-13 -14 -15 -14 -15 0 0 8 4 18 10 21 6 3 10 12 10 18 0 7 -8 0 -18 -16 -10
-15 -22 -24 -27 -20 -4 5 -5 2 0 -6 4 -8 9 -28 10 -45 1 -17 7 -79 15 -138
l13 -108 75 0 75 0 80 58 c219 157 423 504 505 857 54 231 72 522 48 752 -47
440 -216 794 -526 1103 -176 175 -369 310 -657 455 -274 140 -453 272 -602
448 -147 172 -235 321 -326 552 -26 66 -84 192 -129 280 -44 88 -82 163 -84
166 -2 4 25 10 60 14 568 60 949 270 1132 625 75 145 90 221 91 455 0 153 -4
223 -19 300 -18 100 -29 141 -170 640 -42 149 -76 278 -76 287 0 10 28 48 61
85 295 325 505 721 594 1119 14 63 28 119 30 126 15 42 23 156 14 206 -30 162
-138 236 -381 262 -122 13 -279 3 -493 -31 -177 -29 -444 -118 -686 -231 l-86
-39 -94 66 c-268 190 -495 294 -825 379 -186 48 -306 65 -494 73 -125 5 -352
-6 -434 -20 -5 -1 -42 45 -84 103 -198 277 -355 442 -576 609 -171 128 -302
198 -435 232 -80 20 -115 22 -174 8z m214 -48 c172 -59 355 -184 638 -436 93
-83 434 -544 462 -625 12 -33 33 -40 43 -13 4 9 -4 32 -19 55 -14 21 -22 38
-19 38 4 0 1 7 -6 15 -9 11 -10 19 -3 26 16 16 469 22 578 8 50 -6 92 -15 95
-20 3 -5 33 -11 65 -14 33 -2 110 -18 170 -35 61 -17 115 -32 122 -32 7 -1 14
-7 17 -14 3 -8 12 -11 22 -7 10 4 15 2 11 -3 -3 -6 8 -10 26 -10 34 0 97 -24
97 -36 0 -4 -12 -14 -27 -22 -16 -8 -23 -15 -17 -16 6 0 23 9 37 20 23 18 63
18 52 0 -3 -5 5 -6 17 -2 14 3 19 1 14 -6 -4 -7 -2 -10 7 -7 7 3 29 -5 49 -19
20 -13 39 -22 42 -20 4 2 2 -1 -3 -7 -7 -8 -18 -5 -40 10 -17 13 -31 17 -31
11 0 -6 8 -13 18 -17 9 -3 25 -15 35 -27 10 -12 16 -16 13 -9 -4 7 2 17 13 22
22 12 38 15 28 5 -3 -3 21 -20 54 -36 32 -16 59 -34 59 -39 0 -13 -7 -11 -35
7 -14 9 -25 14 -25 10 0 -3 11 -13 25 -22 18 -12 29 -13 38 -6 8 7 18 7 27 2
8 -6 13 -10 10 -11 -49 -9 -57 -13 -41 -24 6 -3 11 -1 11 6 0 7 7 4 16 -7 8
-10 13 -14 10 -8 -3 7 1 17 9 24 13 11 14 10 9 -4 -5 -12 -2 -15 11 -10 15 6
16 4 7 -13 -6 -11 -18 -25 -26 -33 -9 -7 -16 -17 -16 -22 0 -5 -16 -25 -35
-45 -28 -29 -33 -39 -23 -50 10 -12 13 -12 21 3 8 13 11 14 18 3 5 -9 7 -4 6
16 -3 36 27 75 54 70 15 -3 17 0 9 21 -17 44 38 40 80 -6 8 -9 30 -25 47 -35
l33 -19 -23 -13 c-12 -7 -31 -12 -41 -13 -11 0 -16 -3 -13 -7 4 -3 -1 -12 -11
-19 -23 -18 -33 -17 -26 1 4 8 1 15 -5 15 -6 0 -11 -5 -11 -11 0 -6 -10 -20
-22 -30 l-23 -20 28 17 c25 15 27 15 27 0 0 -9 4 -16 10 -16 5 0 67 29 137 64
306 153 565 248 783 285 353 60 593 49 733 -33 61 -35 93 -78 112 -151 22 -83
15 -131 -57 -415 -75 -297 -220 -587 -431 -865 -70 -92 -177 -215 -187 -215
-4 0 -23 62 -43 137 l-36 136 70 75 c160 171 302 405 367 603 28 85 52 188 67
290 l6 37 79 7 c58 5 80 11 80 21 0 18 -38 18 -165 -1 -304 -46 -568 -157
-805 -341 -80 -62 -150 -128 -150 -142 0 -22 26 -12 60 23 19 19 37 35 40 35
11 0 111 -160 168 -269 85 -165 155 -350 211 -566 29 -110 97 -357 152 -548
90 -318 139 -522 139 -581 0 -32 -214 -190 -392 -290 -38 -21 -68 -40 -68 -42
0 -3 5 -2 10 1 6 3 10 1 10 -4 0 -6 -12 -11 -27 -11 -27 0 -71 -20 -46 -20 6
0 20 -3 30 -6 15 -5 15 -4 3 5 -12 9 -11 11 8 11 20 0 22 -4 16 -22 -14 -47
-61 -128 -69 -121 -4 5 -5 2 -1 -4 8 -15 -17 -56 -28 -45 -5 4 -7 0 -5 -8 2
-8 -2 -25 -9 -37 -12 -21 -11 -23 16 -23 74 0 308 24 402 40 57 11 105 18 107
17 1 -2 -8 -26 -21 -54 -38 -81 -110 -183 -173 -245 l-58 -57 -160 9 c-88 6
-217 17 -286 26 -121 15 -128 15 -155 -3 -16 -10 -25 -12 -21 -5 5 7 3 12 -7
12 -9 0 -13 -6 -10 -14 6 -15 -36 -31 -73 -27 -11 1 -24 -2 -27 -7 -3 -6 4 -8
16 -6 18 3 17 1 -4 -8 -16 -7 -28 -14 -28 -17 1 -12 253 -152 334 -185 22 -9
-17 -24 -143 -54 -127 -31 -325 -63 -384 -61 -29 0 -37 9 -95 98 -114 175
-235 283 -369 329 -143 49 -278 52 -406 7 -94 -33 -157 -75 -268 -183 l-97
-93 -111 43 c-61 23 -111 46 -111 49 0 4 9 9 20 12 22 6 28 27 8 27 -7 -1 -40
-7 -73 -15 -89 -22 -255 -19 -350 5 -134 34 -258 104 -345 194 -33 33 -60 46
-60 28 0 -4 5 -13 12 -20 23 -23 -4 -25 -125 -8 -290 43 -664 158 -867 268
-160 87 -188 103 -280 161 -187 118 -411 299 -474 382 l-23 30 136 3 c75 1
161 6 191 11 42 7 31 8 -48 4 -97 -6 -104 -5 -118 16 -16 22 -34 28 -34 11 0
-5 7 -10 15 -10 8 0 15 -4 15 -10 0 -24 -32 -7 -67 36 -21 26 -66 75 -100 109
-60 59 -62 63 -45 79 20 18 37 22 27 6 -4 -6 1 -7 11 -3 13 5 15 3 9 -7 -5 -9
-4 -11 4 -6 6 4 8 12 5 18 -5 8 -1 9 12 4 10 -5 27 -11 36 -13 10 -3 15 -9 12
-14 -3 -5 -1 -9 5 -9 5 0 12 4 15 9 8 12 -72 41 -91 34 -11 -4 -14 -2 -9 5 9
16 4 15 -30 -3 -16 -8 -25 -15 -20 -15 5 0 7 -3 3 -6 -7 -7 -47 32 -47 46 0 6
-4 10 -10 10 -5 0 -10 6 -10 13 0 8 -24 24 -52 37 -29 13 -54 25 -56 26 -2 1
-14 33 -27 72 -29 84 -50 255 -41 325 11 81 65 259 84 274 9 8 11 12 5 8 -8
-4 -11 -1 -7 9 3 8 11 14 17 12 7 -1 9 -1 5 1 -21 12 7 49 32 45 3 0 6 8 6 18
0 10 -4 16 -8 14 -18 -12 -6 10 23 38 18 19 26 34 20 37 -7 4 -3 13 9 24 11 9
20 24 20 32 0 8 7 15 16 15 16 0 16 -18 0 -75 -4 -11 0 -6 9 10 9 19 12 44 9
68 -5 34 -1 43 53 110 32 39 177 189 323 331 146 143 339 334 430 426 91 92
189 186 218 210 166 135 374 271 495 325 l56 24 17 -54 c10 -30 24 -55 31 -55
7 0 13 6 13 13 0 30 -56 181 -105 285 -117 244 -271 434 -490 606 -96 76 -124
91 -137 78 -6 -6 15 -26 57 -57 50 -35 65 -51 60 -63 -4 -10 -25 -67 -46 -128
-58 -168 -73 -269 -73 -479 0 -182 12 -287 51 -433 l16 -64 -105 -105 -105
-105 -22 113 c-41 217 -54 368 -48 589 6 233 28 383 83 570 19 63 41 140 50
170 42 153 109 237 214 271 37 12 148 2 211 -20z m-62 -508 c64 -65 144 -157
178 -206 62 -88 162 -272 188 -347 l14 -40 -101 -51 c-114 -57 -254 -147 -378
-242 -47 -36 -88 -63 -92 -59 -3 4 -15 50 -26 102 -64 299 -51 584 37 840 39
114 42 120 54 120 5 0 62 -53 126 -117z m4291 -1098 c0 -48 -25 -168 -56 -262
-41 -131 -145 -328 -233 -443 -87 -114 -187 -227 -194 -220 -2 3 -30 66 -61
140 -65 152 -114 246 -194 370 l-55 84 34 29 c107 90 305 202 457 257 69 25
257 76 295 79 4 1 7 -15 7 -34z m-3692 -3139 c102 -12 111 -14 162 -53 70 -52
155 -94 250 -124 65 -21 97 -24 235 -25 l160 -2 105 -44 c58 -25 113 -47 123
-51 17 -6 17 -8 -2 -34 -10 -16 -69 -119 -130 -230 -75 -136 -117 -225 -131
-275 -29 -107 -68 -336 -80 -468 -14 -158 -13 -518 2 -681 19 -194 16 -500 -6
-624 -30 -176 -89 -395 -107 -395 -14 0 -142 79 -216 134 -82 61 -241 220
-303 304 -42 58 -70 78 -70 50 0 -7 12 -46 25 -87 14 -41 23 -77 20 -79 -8 -8
-126 103 -184 173 -82 100 -116 153 -178 275 -58 118 -122 286 -157 418 -23
88 -38 104 -46 50 -5 -27 -7 -29 -12 -13 -37 113 -45 496 -14 660 26 145 78
297 143 421 115 223 133 261 164 349 33 97 63 224 74 318 7 58 8 58 36 52 16
-4 77 -12 137 -19z m17 -2716 c74 -57 93 -50 65 22 -11 29 -20 57 -20 61 0 5
26 -20 58 -55 123 -135 254 -242 383 -314 38 -22 69 -45 69 -53 0 -15 -100
-261 -136 -333 l-24 -46 -67 -7 c-218 -20 -427 -69 -598 -140 -47 -19 -87 -35
-89 -35 -2 0 11 57 29 128 18 70 38 160 45 200 l12 72 54 0 c30 0 54 3 54 8 0
4 -20 6 -45 4 l-45 -4 0 38 c0 22 5 68 11 104 6 36 10 79 10 95 -1 17 4 37 10
45 9 12 10 11 4 -5 -5 -16 -4 -17 6 -8 9 9 9 17 -2 35 -12 19 -14 59 -11 215
l4 192 84 -88 c46 -49 109 -108 139 -131z m1929 -27 c-94 -123 -224 -345 -224
-382 0 -14 27 -15 35 -1 3 6 10 10 14 10 4 0 -10 -34 -30 -75 -20 -41 -46
-106 -58 -143 -23 -74 -46 -234 -37 -258 10 -26 -15 -15 -97 43 -45 31 -83 57
-85 58 -1 1 31 59 72 128 141 236 220 410 331 725 3 9 21 0 55 -29 l50 -42
-26 -34z m-289 -951 c3 -21 8 -45 11 -55 4 -13 -20 -5 -103 36 -59 29 -127 62
-150 72 l-43 20 37 52 36 52 103 -70 c92 -63 103 -75 109 -107z"/>
<path d="M3110 8412 c-115 -49 -258 -151 -433 -307 -65 -57 -95 -91 -89 -97 7
-7 45 17 114 70 208 160 358 227 498 220 73 -3 82 -6 140 -46 35 -23 65 -41
67 -38 10 10 -8 95 -30 137 -47 93 -141 114 -267 61z m173 -16 c29 -12 79 -66
61 -66 -4 0 -1 -7 6 -15 16 -20 11 -19 -51 5 -41 16 -71 20 -150 19 -61 -2
-95 -6 -87 -11 10 -7 10 -8 -2 -6 -8 1 -25 -3 -37 -10 -13 -7 -23 -9 -23 -4 0
11 103 62 124 62 8 0 16 5 18 10 2 6 26 15 53 19 28 5 51 9 53 10 1 0 17 -5
35 -13z"/>
<path d="M2219 7833 c-7 -21 -13 -72 -13 -113 -1 -85 22 -141 78 -194 l31 -29
-56 6 c-31 3 -74 14 -95 25 -53 27 -126 107 -155 170 -33 72 -49 68 -49 -12 0
-123 61 -253 141 -300 38 -23 25 -36 -39 -36 -85 0 -180 61 -257 165 -57 78
-75 76 -56 -9 17 -78 66 -170 115 -218 35 -35 116 -81 179 -102 15 -5 17 -12
10 -43 -25 -127 4 -269 79 -385 98 -152 243 -259 448 -329 85 -30 107 -33 210
-34 105 0 120 2 173 27 258 121 361 547 204 843 -45 85 -165 202 -252 247
-118 61 -172 72 -340 74 -83 1 -162 5 -175 9 -74 23 -125 103 -136 213 -8 72
-26 82 -45 25z m267 -415 c-22 -11 -64 -45 -94 -74 l-54 -54 32 -37 c28 -32
32 -41 27 -77 -7 -52 -44 -86 -94 -86 l-35 0 7 -57 c20 -163 99 -274 243 -341
50 -24 69 -27 162 -27 97 0 110 2 165 30 49 24 61 35 63 58 4 29 26 47 57 44
26 -3 76 72 99 147 14 43 17 79 14 139 -5 95 -27 153 -90 236 l-41 54 45 -31
c61 -42 147 -137 183 -203 27 -49 30 -64 33 -165 3 -90 0 -127 -18 -195 -40
-157 -123 -269 -239 -326 -51 -26 -65 -28 -166 -27 -98 1 -120 4 -200 34 -182
66 -287 135 -376 247 -103 130 -130 210 -109 332 28 168 144 297 338 377 70
29 101 30 48 2z"/>
<path d="M5554 7791 c-44 -20 -126 -99 -121 -115 2 -6 36 -9 84 -7 90 3 131
-12 210 -75 84 -69 199 -257 263 -433 27 -74 50 -103 50 -63 0 32 -97 303
-145 406 -77 168 -164 274 -242 295 -49 14 -51 14 -99 -8z"/>
<path d="M5353 6805 c-228 -50 -419 -239 -481 -475 -31 -117 -35 -185 -18
-266 43 -210 172 -314 445 -359 347 -58 652 76 757 334 l23 55 118 0 c105 1
124 4 173 27 59 28 180 132 180 155 0 20 -17 18 -97 -16 -125 -53 -236 -50
-312 8 l-35 26 69 13 c105 19 208 102 265 212 22 42 -3 46 -56 8 -104 -73
-216 -90 -309 -47 l-50 23 43 13 c98 30 153 89 192 204 16 47 18 66 10 74 -9
8 -16 4 -28 -14 -10 -14 -36 -46 -60 -72 -91 -98 -166 -103 -304 -20 -117 71
-180 99 -266 117 -88 18 -175 18 -259 0z m49 -106 c-71 -9 -151 -43 -199 -83
l-33 -28 30 -30 c24 -24 30 -38 30 -75 0 -36 -6 -50 -29 -73 -35 -35 -71 -45
-111 -32 -28 10 -30 9 -36 -14 -11 -43 3 -156 26 -217 31 -81 120 -175 200
-211 108 -49 224 -53 327 -11 39 15 42 19 36 46 -3 17 0 35 7 44 15 18 51 20
68 3 30 -30 113 106 134 220 27 145 -48 314 -182 405 -14 10 -2 6 25 -7 193
-93 340 -354 306 -542 -15 -79 -73 -195 -118 -235 -48 -41 -181 -104 -264
-124 -126 -29 -338 -12 -475 40 -153 58 -236 155 -265 310 -24 133 37 342 138
471 71 88 228 154 368 152 l80 -1 -63 -8z"/>
<path d="M3657 6323 c-19 -18 3 -23 106 -23 80 0 136 -6 189 -19 76 -20 201
-77 270 -124 28 -20 39 -23 47 -13 21 26 -178 131 -313 166 -78 20 -284 29
-299 13z"/>
<path d="M3238 5809 c-23 -13 -41 -47 -32 -61 5 -7 15 -1 31 18 23 28 24 28
35 9 7 -11 22 -49 34 -85 56 -164 259 -239 422 -156 28 14 53 26 55 26 3 0 10
-14 17 -30 19 -45 103 -116 166 -139 75 -28 171 -28 227 0 23 12 63 41 89 65
26 24 52 44 58 44 5 0 10 -13 10 -30 0 -20 5 -30 15 -30 24 0 20 67 -4 80 -26
13 -48 4 -98 -41 -64 -58 -116 -81 -186 -80 -79 0 -172 44 -221 105 -54 65
-56 78 -28 173 13 46 21 91 18 100 -10 26 -22 4 -47 -91 -26 -96 -40 -113
-120 -141 -82 -29 -196 -12 -266 41 -40 31 -79 95 -92 154 -5 25 -20 53 -32
63 -24 20 -28 20 -51 6z"/>
<path d="M3097 2158 c-3 -35 -6 -85 -8 -113 -1 -27 -7 -54 -13 -58 -18 -13 80
3 137 22 70 25 168 74 249 128 69 46 98 73 62 59 -10 -4 -71 -10 -134 -13
-107 -5 -209 7 -272 32 -14 5 -17 -3 -21 -57z"/>
<path d="M4666 365 c-7 -26 -34 -32 -84 -18 -18 4 -20 8 -10 14 10 7 9 9 -4 9
-10 0 -18 -4 -18 -10 0 -5 -18 -10 -40 -10 -33 0 -38 3 -33 18 13 36 -8 3 -53
-83 -25 -50 -62 -116 -81 -148 -33 -55 -36 -57 -76 -58 -23 0 -73 -6 -112 -12
-60 -11 1 -12 405 -13 403 0 463 2 395 12 -44 7 -135 15 -202 19 -68 4 -123
11 -123 16 0 4 4 19 10 34 16 43 47 255 36 255 -2 0 -7 -11 -10 -25z"/>
<path d="M5153 252 c-6 -4 -18 -41 -27 -82 -9 -41 -19 -85 -22 -98 -6 -22 -6
-22 115 -22 l122 0 -3 77 -3 78 -70 19 c-38 10 -77 22 -86 26 -9 5 -20 5 -26
2z"/>
</g>
</svg>
