<?xml version="1.0" standalone="no"?>
<!DOCTYPE svg PUBLIC "-//W3C//DTD SVG 20010904//EN"
 "http://www.w3.org/TR/2001/REC-SVG-20010904/DTD/svg10.dtd">
<svg version="1.0" xmlns="http://www.w3.org/2000/svg"
 width="736.000000pt" height="1365.000000pt" viewBox="0 0 736.000000 1365.000000"
 preserveAspectRatio="xMidYMid meet">
<metadata>
Created by potrace 1.15, written by Peter Selinger 2001-2017
</metadata>
<g transform="translate(0.000000,1365.000000) scale(0.100000,-0.100000)"
fill="#000000" stroke="none">
<path d="M1575 13641 c-33 -14 -99 -92 -141 -166 -223 -399 -427 -1201 -510
-2000 -22 -210 -30 -753 -14 -957 45 -593 197 -1056 450 -1370 66 -82 207
-217 325 -313 92 -74 265 -180 358 -218 36 -15 34 -13 -37 61 -286 298 -400
569 -318 755 l21 47 83 -31 c351 -133 673 -201 858 -184 160 15 241 40 555
169 61 25 160 58 220 73 102 25 125 27 315 28 255 0 319 -12 682 -131 372
-122 430 -135 623 -141 124 -4 180 -2 247 11 132 25 266 72 404 142 l124 63
17 -37 c28 -62 23 -200 -10 -298 -48 -141 -147 -295 -301 -467 l-79 -89 84 42
c172 87 340 212 516 387 356 354 549 1021 570 1973 24 1143 -256 2446 -566
2628 -133 78 -270 7 -856 -447 l-95 -73 -147 45 c-429 133 -745 181 -1203 181
-307 0 -465 -13 -720 -60 -153 -28 -354 -79 -490 -124 l-91 -30 -192 148
c-318 246 -476 347 -592 378 -57 16 -62 16 -90 5z m884 -3151 c566 -191 513
-167 533 -232 21 -71 38 -211 38 -320 l0 -87 -37 -7 c-50 -9 -253 2 -377 22
-121 19 -288 72 -363 115 -86 50 -169 132 -187 187 -40 121 -83 387 -70 437 4
16 13 25 27 25 11 0 207 -63 436 -140z m3118 28 c-6 -114 -40 -287 -72 -365
-50 -125 -285 -248 -550 -288 -126 -19 -321 -30 -368 -21 l-37 7 0 107 c0 118
12 219 36 300 11 41 21 55 42 64 107 42 903 307 926 307 l29 1 -6 -112z"/>
<path d="M2410 8414 c-130 -20 -255 -51 -316 -80 -163 -77 -434 -400 -649
-776 -36 -64 -79 -153 -94 -196 -16 -44 -45 -110 -65 -146 -127 -237 -284
-641 -401 -1036 -125 -422 -214 -817 -386 -1710 -134 -701 -186 -933 -260
-1159 -68 -206 -138 -337 -210 -394 l-31 -24 23 -17 c16 -11 45 -16 95 -16
134 0 341 -52 464 -116 138 -72 247 -169 438 -389 24 -28 39 -41 33 -30 -25
52 -58 294 -77 552 -6 90 -5 93 15 93 62 0 220 -83 313 -164 44 -39 136 -146
157 -183 8 -15 15 -12 63 24 151 116 373 218 556 253 31 6 66 13 77 15 20 4
20 11 17 337 -5 388 9 745 39 1048 12 118 23 217 25 219 2 2 173 -81 381 -184
577 -287 723 -356 898 -430 50 -21 94 -42 99 -46 7 -6 -20 -208 -79 -584 -31
-201 -68 -495 -63 -500 3 -4 54 -1 112 6 84 10 134 10 237 0 72 -6 133 -10
135 -8 5 5 -72 639 -106 877 -16 113 -26 207 -22 211 4 3 79 34 167 69 199 79
302 128 787 371 213 106 389 191 391 189 8 -9 27 -288 38 -550 9 -209 7 -562
-5 -959 -1 -21 7 -26 63 -41 119 -33 326 -154 492 -288 43 -34 80 -62 83 -62
3 0 19 28 36 61 67 137 160 231 285 290 74 35 198 69 209 58 7 -6 -10 -309
-25 -442 -5 -54 -18 -130 -29 -170 -10 -40 -17 -73 -16 -74 2 -2 27 27 57 64
126 156 275 288 400 357 114 62 210 90 467 136 l122 22 -50 55 c-151 165 -273
568 -476 1568 -132 650 -250 1162 -353 1530 -170 608 -273 935 -358 1135 -25
58 -52 130 -60 160 -46 179 -353 641 -565 851 -134 133 -210 171 -420 209
-105 19 -107 19 -175 0 -675 -194 -1523 -195 -2219 -5 -141 39 -133 38 -264
19z m1380 -391 c229 -88 874 -295 1635 -523 132 -40 265 -80 295 -89 l54 -17
23 -90 c111 -439 192 -1011 219 -1545 l7 -137 -69 34 c-109 54 -208 75 -379
81 -143 5 -236 -5 -297 -31 -14 -6 -17 1 -23 51 -33 299 -89 650 -150 933 -40
188 -40 190 -5 -220 26 -306 60 -844 60 -942 0 -42 4 -80 10 -83 5 -3 20 -38
32 -78 21 -66 23 -89 22 -290 -1 -120 -3 -220 -6 -222 -22 -22 -866 -85 -1139
-85 -80 0 -130 -5 -160 -16 -116 -40 -294 -38 -416 7 -32 11 -103 25 -158 30
-422 38 -822 90 -1074 140 l-53 11 5 186 c4 170 19 289 38 302 9 6 16 58 24
185 11 160 45 543 75 835 44 420 43 415 37 410 -18 -16 -191 -817 -220 -1023
-8 -54 -17 -100 -19 -103 -3 -2 -34 3 -69 13 -95 26 -330 23 -468 -6 -57 -12
-131 -33 -164 -46 -33 -14 -62 -25 -65 -25 -10 0 30 492 59 710 49 385 123
762 185 950 l24 75 213 64 c747 225 1591 494 1752 560 39 16 77 27 85 24 8 -3
44 -16 80 -30z"/>
<path d="M3459 7200 c-95 -28 -212 -118 -244 -187 -45 -95 21 -201 158 -252
24 -10 28 -9 26 7 -4 42 2 54 38 69 83 34 226 -1 273 -67 l22 -31 38 40 c45
46 94 64 175 65 83 1 119 -18 125 -66 l5 -38 60 31 c99 50 135 95 135 169 0
84 -76 173 -196 230 -84 41 -93 40 -87 -9 5 -33 1 -44 -20 -65 -48 -48 -116
-47 -135 1 -6 16 -14 44 -17 64 l-7 37 -56 -1 c-32 0 -63 2 -71 4 -11 3 -17
-9 -22 -44 -11 -71 -32 -90 -93 -84 -36 3 -55 11 -68 27 -19 24 -24 75 -8 85
12 7 14 25 3 24 -5 0 -20 -4 -34 -9z"/>
<path d="M4408 6957 c2 -54 -1 -69 -28 -114 -76 -131 -258 -216 -521 -244
-257 -27 -555 49 -697 176 -64 58 -93 105 -108 175 l-12 55 -1 -63 c-1 -78 17
-121 79 -183 83 -83 217 -146 395 -186 62 -14 120 -18 255 -17 155 1 186 4
275 27 191 51 322 136 371 242 26 55 29 91 14 147 -17 58 -25 52 -22 -15z"/>
<path d="M4991 2279 c-247 -18 -596 -64 -801 -105 -112 -22 -234 -57 -252 -73
-7 -6 20 -277 78 -766 75 -637 124 -957 151 -988 69 -75 439 -228 708 -292
241 -57 487 -69 642 -31 149 37 278 130 329 240 22 47 24 59 19 156 -11 197
-44 279 -156 384 -74 70 -147 117 -339 216 l-125 65 -14 50 c-20 74 -17 447 8
824 11 173 19 316 18 317 -9 8 -173 10 -266 3z"/>
<path d="M2163 2273 l-31 -4 4 -57 c50 -682 53 -1042 10 -1106 -7 -11 -69 -50
-137 -85 -227 -117 -345 -204 -404 -296 -52 -82 -67 -137 -72 -277 -5 -118 -4
-130 18 -175 44 -91 152 -179 266 -217 177 -58 457 -49 746 25 202 51 468 156
591 233 l74 46 16 88 c39 224 130 1034 171 1532 3 36 8 84 11 107 5 39 3 43
-24 57 -66 34 -380 81 -742 110 -206 17 -448 27 -497 19z"/>
</g>
</svg>
