<?xml version="1.0" standalone="no"?>
<!DOCTYPE svg PUBLIC "-//W3C//DTD SVG 20010904//EN"
 "http://www.w3.org/TR/2001/REC-SVG-20010904/DTD/svg10.dtd">
<svg version="1.0" xmlns="http://www.w3.org/2000/svg"
 width="368.000000pt" height="900.000000pt" viewBox="0 0 368.000000 900.000000"
 preserveAspectRatio="xMidYMid meet">
<metadata>
Created by potrace 1.15, written by Peter Selinger 2001-2017
</metadata>
<g transform="translate(0.000000,900.000000) scale(0.100000,-0.100000)"
fill="#000000" stroke="none">
<path d="M1635 8994 c-448 -67 -806 -188 -991 -335 -203 -162 -408 -532 -498
-900 -44 -181 -59 -309 -59 -509 0 -278 45 -505 152 -771 123 -301 295 -526
537 -698 103 -73 315 -179 424 -212 74 -23 75 -23 40 -31 -19 -4 -84 -12 -145
-18 -134 -13 -227 -44 -318 -106 -129 -88 -224 -211 -412 -534 -59 -102 -134
-223 -165 -270 -31 -47 -89 -149 -128 -226 -59 -115 -72 -150 -72 -188 0 -65
53 -202 165 -431 90 -183 289 -545 305 -555 4 -3 30 -39 58 -80 109 -164 243
-294 350 -342 32 -15 42 -24 37 -36 -12 -31 -65 -310 -84 -442 -23 -158 -46
-379 -61 -575 -14 -194 -16 -202 -44 -209 l-24 -6 -5 -367 c-3 -236 -9 -392
-17 -436 l-13 -67 -61 -30 c-70 -33 -225 -80 -265 -80 -15 0 -50 -12 -79 -26
-87 -43 -128 -129 -134 -281 -3 -58 -1 -64 31 -97 105 -108 350 -152 613 -110
133 21 189 42 322 118 61 35 133 72 159 82 33 13 52 27 59 44 36 92 190 852
229 1128 8 61 8 86 0 96 -9 10 4 72 55 262 62 234 129 510 153 634 l11 55 118
-1 117 -2 27 -126 c33 -154 93 -395 159 -637 37 -139 46 -185 38 -196 -8 -9
-9 -34 -5 -76 22 -190 157 -877 217 -1097 l20 -75 107 -52 c59 -29 139 -70
178 -93 111 -63 198 -82 409 -87 148 -4 192 -2 244 12 79 20 165 63 209 104
29 27 32 35 32 90 0 129 -40 231 -108 276 -20 13 -71 31 -112 40 -93 19 -187
49 -262 82 l-56 25 -11 64 c-21 117 -32 386 -26 594 l7 205 -31 17 c-17 9 -31
25 -31 35 0 45 -42 552 -55 673 -25 221 -69 468 -100 570 -3 10 16 31 57 60
71 52 178 172 244 274 26 39 52 76 58 81 7 6 42 62 78 125 162 283 322 606
372 752 26 77 34 166 17 183 -6 6 -37 64 -69 130 -33 66 -101 182 -152 259
-50 76 -128 197 -172 270 -130 212 -198 306 -283 393 -107 109 -173 140 -426
202 l-192 47 74 28 c541 210 912 634 1031 1179 20 92 22 129 22 377 0 234 -3
296 -22 415 -30 187 -68 355 -85 369 -8 6 -27 45 -42 86 -40 108 -124 275
-185 366 -71 107 -243 275 -358 352 -168 112 -357 188 -578 233 -91 18 -148
22 -339 25 -126 1 -243 0 -260 -2z m1525 -2013 c0 -213 -128 -507 -282 -646
-81 -73 -165 -109 -265 -113 -71 -4 -89 -1 -138 22 -65 29 -159 116 -220 201
-46 65 -115 181 -115 195 0 25 368 207 545 270 100 35 417 119 453 120 20 0
22 -5 22 -49z m-2561 3 c260 -58 458 -131 701 -255 207 -107 198 -100 176
-146 -10 -21 -42 -74 -71 -118 -138 -211 -271 -294 -428 -266 -97 17 -163 55
-253 146 -70 70 -90 98 -138 196 -35 71 -66 152 -82 214 -25 102 -43 255 -29
255 4 0 60 -12 124 -26z m2350 -2618 c66 -99 121 -186 121 -194 0 -8 -25 -62
-55 -121 -56 -107 -198 -298 -202 -271 -1 8 -4 190 -6 403 -3 306 -1 385 9
375 6 -7 66 -94 133 -192z m-2075 -576 l7 -35 -46 50 c-72 78 -136 171 -187
274 l-47 94 127 189 127 188 6 -362 c3 -200 9 -379 13 -398z"/>
</g>
</svg>
