<?xml version="1.0" standalone="no"?>
<!DOCTYPE svg PUBLIC "-//W3C//DTD SVG 20010904//EN"
 "http://www.w3.org/TR/2001/REC-SVG-20010904/DTD/svg10.dtd">
<svg version="1.0" xmlns="http://www.w3.org/2000/svg"
 width="496.000000pt" height="900.000000pt" viewBox="0 0 496.000000 900.000000"
 preserveAspectRatio="xMidYMid meet">
<metadata>
Created by potrace 1.15, written by Peter Selinger 2001-2017
</metadata>
<g transform="translate(0.000000,900.000000) scale(0.100000,-0.100000)"
fill="#000000" stroke="none">
<path d="M2935 8993 c-183 -24 -404 -75 -683 -159 -206 -62 -564 -135 -662
-136 -36 -1 -103 7 -150 17 -164 34 -228 69 -291 162 -17 23 -34 43 -38 43
-16 0 -20 -44 -10 -122 11 -89 38 -169 74 -222 l24 -36 -40 0 c-75 0 -163 59
-260 177 -54 65 -89 90 -89 64 0 -61 67 -280 111 -360 16 -30 28 -56 26 -57
-1 -2 -42 11 -91 27 -51 18 -92 27 -97 22 -7 -7 39 -256 56 -301 3 -7 -12 -27
-31 -45 -97 -84 -147 -238 -164 -502 -19 -311 26 -697 111 -946 26 -76 76
-179 87 -179 4 0 18 20 30 46 26 54 69 77 113 62 64 -22 152 -162 165 -261 6
-44 9 -48 32 -45 73 9 87 148 51 493 -30 284 -32 573 -6 657 9 32 28 69 40 84
22 26 23 26 85 13 89 -17 271 -6 404 25 59 14 238 64 398 111 160 47 319 91
353 96 114 19 313 -10 430 -63 130 -60 171 -143 110 -228 -50 -69 -85 -85
-182 -85 -102 1 -194 28 -267 80 -26 19 -50 32 -52 30 -9 -9 42 -77 97 -127
71 -66 175 -122 278 -149 110 -29 306 -29 416 0 197 52 339 181 382 346 8 32
15 76 15 97 0 21 3 38 8 38 11 0 200 -108 262 -150 85 -58 155 -125 199 -192
61 -90 59 -126 -27 -443 -74 -272 -64 -376 46 -482 46 -45 72 -54 72 -25 0 9
11 41 25 69 25 56 71 93 113 93 24 0 84 -51 94 -80 9 -25 18 -7 64 131 57 169
106 358 135 524 30 172 33 468 5 620 -22 122 -84 315 -127 395 -58 108 -200
231 -347 299 -47 22 -59 34 -103 108 -145 240 -384 403 -672 458 -74 14 -434
20 -522 8z"/>
<path d="M3378 6563 c-9 -10 -28 -26 -43 -37 -107 -74 -36 -266 97 -266 94 0
169 121 127 203 -17 32 -18 32 -33 12 -29 -40 -91 8 -67 53 12 23 6 32 -23 33
-12 0 -16 3 -9 5 21 9 91 -16 124 -43 65 -55 79 -162 33 -249 -25 -47 -25 -48
-4 -29 57 50 75 155 41 231 -30 65 -81 98 -160 102 -54 3 -69 0 -83 -15z"/>
<path d="M1875 6529 c-65 -57 -71 -149 -14 -214 55 -62 138 -70 199 -19 48 41
63 132 31 183 -8 12 -12 12 -26 -2 -21 -21 -39 -21 -60 -1 -16 16 -16 28 0 67
6 15 1 17 -44 17 -42 0 -56 -5 -86 -31z"/>
<path d="M1045 6150 c-10 -17 104 -179 180 -256 69 -70 194 -169 202 -160 3 2
-34 42 -82 87 -85 82 -182 213 -219 297 -16 35 -24 42 -47 42 -15 0 -31 -5
-34 -10z"/>
<path d="M4259 6088 c-57 -113 -170 -237 -311 -342 -83 -61 -102 -82 -40 -45
90 54 173 119 253 199 81 80 179 201 179 221 0 5 -13 9 -30 9 -25 0 -33 -7
-51 -42z"/>
<path d="M3401 5479 c-401 -138 -849 -143 -1338 -14 l-133 35 -50 -20 c-74
-29 -163 -76 -196 -102 -16 -13 -67 -46 -114 -73 -182 -107 -376 -337 -511
-608 -124 -246 -187 -423 -364 -1019 -133 -444 -192 -618 -260 -764 -108 -232
-234 -362 -383 -395 -28 -7 -52 -18 -52 -24 0 -17 118 -175 199 -264 85 -96
224 -217 326 -285 292 -194 578 -280 1008 -301 l137 -7 0 -65 c0 -61 -2 -65
-30 -81 l-30 -17 0 -280 c0 -272 -9 -415 -31 -522 l-10 -52 -72 -30 c-64 -26
-118 -42 -286 -81 -109 -26 -166 -121 -173 -288 -2 -58 0 -64 32 -97 46 -47
133 -90 227 -111 61 -13 106 -15 232 -11 175 7 267 24 350 66 207 104 317 164
324 177 25 44 199 859 231 1083 13 91 14 107 1 121 -12 13 -11 27 11 105 14
50 32 113 40 141 13 48 16 52 51 59 21 3 134 27 251 52 118 25 217 41 222 37
5 -5 27 -81 50 -168 23 -87 46 -170 51 -184 7 -19 6 -29 -7 -43 -15 -16 -15
-26 1 -126 34 -218 159 -811 216 -1024 20 -75 20 -75 67 -92 26 -10 103 -49
172 -87 170 -94 235 -111 455 -117 138 -4 182 -2 235 11 90 23 160 57 209 101
40 36 41 39 41 99 0 34 -7 89 -15 121 -30 113 -85 163 -203 185 -134 24 -307
89 -316 119 -27 87 -47 441 -38 684 l5 153 -32 13 c-27 12 -31 18 -31 50 0 20
-7 125 -17 234 -12 148 -13 201 -5 209 17 17 274 -5 377 -31 221 -57 412 -209
506 -404 13 -26 28 -47 34 -47 21 0 107 305 144 511 39 214 51 364 51 625 0
380 -35 651 -126 989 -97 356 -266 749 -444 1033 -151 241 -374 502 -525 613
-33 25 -90 75 -127 111 -71 71 -173 129 -224 127 -16 0 -67 -14 -113 -30z
m-383 -846 c29 -41 51 -81 49 -87 -6 -14 -151 -146 -161 -146 -3 0 -6 17 -6
38 0 29 -7 45 -28 65 -34 32 -63 43 -167 58 -96 13 -115 22 -115 54 0 50 86
72 155 39 18 -8 45 -33 59 -54 20 -30 30 -37 46 -33 20 5 21 10 15 74 l-7 69
53 0 54 -1 53 -76z m-476 35 c-59 -64 -47 -144 30 -184 14 -7 66 -20 115 -28
107 -18 121 -22 129 -48 13 -43 -70 -86 -142 -72 -41 8 -88 44 -110 85 -21 42
-52 39 -56 -7 l-3 -35 -92 86 c-51 48 -93 91 -93 96 0 10 45 83 69 112 11 14
30 17 94 17 l80 0 -21 -22z m-712 -1185 c7 -32 15 -74 19 -93 8 -41 14 -43
217 -64 74 -8 137 -16 139 -17 4 -5 32 -303 29 -308 -2 -2 -90 8 -196 22 -105
15 -194 24 -196 22 -3 -2 1 -60 7 -128 8 -90 8 -133 0 -156 -6 -17 -13 -31
-15 -31 -3 0 -33 14 -67 31 -80 40 -241 202 -316 317 -47 72 -53 86 -43 106
18 41 128 162 202 223 67 55 185 133 201 133 4 0 13 -26 19 -57z m1918 1 c89
-57 271 -231 304 -291 l17 -30 -66 -98 c-37 -53 -98 -130 -137 -169 -73 -74
-163 -143 -173 -132 -4 3 -7 64 -7 135 -1 71 -4 132 -7 135 -3 3 -87 -4 -187
-16 -100 -12 -185 -18 -189 -15 -3 4 -1 62 5 129 7 68 12 146 12 175 l0 52 48
6 c250 35 266 39 273 65 4 14 7 44 8 68 1 23 4 42 7 42 3 0 45 -25 92 -56z
m-867 -144 c55 -19 70 -20 161 -10 55 5 109 10 119 10 18 0 19 -10 19 -175 l0
-174 -32 -5 c-18 -3 -80 -7 -138 -11 -58 -3 -130 -12 -160 -20 -70 -19 -122
-19 -190 1 -30 8 -108 19 -173 24 -65 4 -120 10 -123 13 -3 2 -8 75 -11 160
l-6 156 96 -6 c78 -5 101 -3 120 10 74 48 218 60 318 27z"/>
</g>
</svg>
